adventprofmm_bld_it_krn.ufo
<glyph name="exclam" format="1">
  <advance width="231"/>
  <unicode hex="0021"/>
  <outline>
    <contour>
      <point x="110" y="582" type="curve" smooth="yes"/>
      <point x="44" y="109" type="line"/>
      <point x="113" y="109" type="line"/>
      <point x="216" y="583" type="line" smooth="yes"/>
      <point x="224" y="624"/>
      <point x="208" y="644"/>
      <point x="172" y="644" type="curve" smooth="yes"/>
      <point x="138" y="644"/>
      <point x="118" y="624"/>
    </contour>
    <contour>
      <point x="77" y="95" type="curve" smooth="yes"/>
      <point x="48" y="95"/>
      <point x="19" y="71"/>
      <point x="14" y="41" type="curve" smooth="yes"/>
      <point x="8" y="11"/>
      <point x="29" y="-14"/>
      <point x="58" y="-14" type="curve" smooth="yes"/>
      <point x="88" y="-14"/>
      <point x="116" y="11"/>
      <point x="122" y="41" type="curve" smooth="yes"/>
      <point x="127" y="71"/>
      <point x="107" y="95"/>
    </contour>
  </outline>
</glyph>
<glyph name="quotedbl" format="1">
  <advance width="241"/>
  <unicode hex="0022"/>
  <outline>
    <contour>
      <point x="143" y="631" type="curve"/>
      <point x="138" y="534" type="line"/>
      <point x="195" y="534" type="line"/>
      <point x="224" y="631" type="line"/>
      <point x="233" y="683"/>
      <point x="151" y="683"/>
    </contour>
    <contour>
      <point x="19" y="631" type="curve"/>
      <point x="15" y="534" type="line"/>
      <point x="71" y="534" type="line"/>
      <point x="101" y="631" type="line"/>
      <point x="110" y="683"/>
      <point x="28" y="683"/>
    </contour>
  </outline>
</glyph>
<glyph name="numbersign" format="1">
  <advance width="589"/>
  <unicode hex="0023"/>
  <outline>
    <contour>
      <point x="544" y="324" type="line"/>
      <point x="562" y="426" type="line"/>
      <point x="494" y="426" type="line"/>
      <point x="579" y="635" type="line"/>
      <point x="475" y="635" type="line"/>
      <point x="390" y="426" type="line"/>
      <point x="282" y="426" type="line"/>
      <point x="367" y="635" type="line"/>
      <point x="272" y="635" type="line"/>
      <point x="188" y="426" type="line"/>
      <point x="63" y="426" type="line"/>
      <point x="45" y="324" type="line"/>
      <point x="145" y="324" type="line"/>
      <point x="112" y="245" type="line"/>
      <point x="31" y="245" type="line"/>
      <point x="14" y="151" type="line"/>
      <point x="73" y="151" type="line"/>
      <point x="11" y="0" type="line"/>
      <point x="107" y="0" type="line"/>
      <point x="168" y="151" type="line"/>
      <point x="275" y="151" type="line"/>
      <point x="215" y="0" type="line"/>
      <point x="317" y="0" type="line"/>
      <point x="379" y="151" type="line"/>
      <point x="513" y="151" type="line"/>
      <point x="530" y="245" type="line"/>
      <point x="418" y="245" type="line"/>
      <point x="450" y="324" type="line"/>
    </contour>
    <contour>
      <point x="240" y="324" type="line"/>
      <point x="348" y="324" type="line"/>
      <point x="315" y="245" type="line"/>
      <point x="207" y="245" type="line"/>
    </contour>
  </outline>
</glyph>
<glyph name="dollar" format="1">
  <advance width="491"/>
  <unicode hex="0024"/>
  <outline>
    <contour>
      <point x="436" y="522" type="curve"/>
      <point x="481" y="610" type="line"/>
      <point x="443" y="632"/>
      <point x="392" y="644"/>
      <point x="341" y="644" type="curve" smooth="yes"/>
      <point x="288" y="644"/>
      <point x="235" y="634"/>
      <point x="189" y="606" type="curve" smooth="yes"/>
      <point x="140" y="577"/>
      <point x="114" y="533"/>
      <point x="107" y="488" type="curve" smooth="yes"/>
      <point x="89" y="389"/>
      <point x="163" y="352"/>
      <point x="234" y="315" type="curve" smooth="yes"/>
      <point x="252" y="306"/>
      <point x="272" y="296"/>
      <point x="289" y="285" type="curve" smooth="yes"/>
      <point x="330" y="260"/>
      <point x="361" y="229"/>
      <point x="352" y="180" type="curve" smooth="yes"/>
      <point x="347" y="152"/>
      <point x="330" y="125"/>
      <point x="307" y="110" type="curve" smooth="yes"/>
      <point x="281" y="93"/>
      <point x="248" y="87"/>
      <point x="221" y="87" type="curve" smooth="yes"/>
      <point x="203" y="87"/>
      <point x="170" y="90"/>
      <point x="140" y="111" type="curve" smooth="yes"/>
      <point x="123" y="123"/>
      <point x="108" y="141"/>
      <point x="98" y="166" type="curve"/>
      <point x="11" y="115" type="line"/>
      <point x="31" y="74"/>
      <point x="48" y="50"/>
      <point x="75" y="28" type="curve" smooth="yes"/>
      <point x="112" y="-2"/>
      <point x="160" y="-11"/>
      <point x="202" y="-11" type="curve" smooth="yes"/>
      <point x="256" y="-11"/>
      <point x="311" y="-1"/>
      <point x="358" y="26" type="curve" smooth="yes"/>
      <point x="421" y="63"/>
      <point x="454" y="124"/>
      <point x="464" y="181" type="curve" smooth="yes"/>
      <point x="480" y="270"/>
      <point x="429" y="327"/>
      <point x="368" y="367" type="curve"/>
      <point x="345" y="384"/>
      <point x="319" y="397"/>
      <point x="295" y="408" type="curve" smooth="yes"/>
      <point x="247" y="432"/>
      <point x="212" y="451"/>
      <point x="218" y="488" type="curve" smooth="yes"/>
      <point x="221" y="508"/>
      <point x="233" y="523"/>
      <point x="248" y="533" type="curve" smooth="yes"/>
      <point x="265" y="544"/>
      <point x="292" y="551"/>
      <point x="323" y="551" type="curve" smooth="yes"/>
      <point x="356" y="551"/>
      <point x="395" y="543"/>
    </contour>
    <contour>
      <point x="402" y="742" type="line"/>
      <point x="302" y="742" type="line"/>
      <point x="153" y="-104" type="line"/>
      <point x="253" y="-104" type="line"/>
    </contour>
  </outline>
</glyph>
<glyph name="percent" format="1">
  <advance width="736"/>
  <unicode hex="0025"/>
  <outline>
    <contour>
      <point x="726" y="635" type="line"/>
      <point x="611" y="635" type="line"/>
      <point x="11" y="0" type="line"/>
      <point x="124" y="0" type="line"/>
    </contour>
    <contour>
      <point x="268" y="648" type="curve" smooth="yes"/>
      <point x="194" y="648"/>
      <point x="124" y="589"/>
      <point x="111" y="516" type="curve" smooth="yes"/>
      <point x="99" y="443"/>
      <point x="147" y="384"/>
      <point x="221" y="384" type="curve" smooth="yes"/>
      <point x="293" y="384"/>
      <point x="364" y="443"/>
      <point x="376" y="516" type="curve" smooth="yes"/>
      <point x="389" y="589"/>
      <point x="340" y="648"/>
    </contour>
    <contour>
      <point x="253" y="564" type="curve" smooth="yes"/>
      <point x="278" y="564"/>
      <point x="296" y="542"/>
      <point x="291" y="516" type="curve" smooth="yes"/>
      <point x="287" y="490"/>
      <point x="261" y="468"/>
      <point x="236" y="468" type="curve" smooth="yes"/>
      <point x="209" y="468"/>
      <point x="192" y="490"/>
      <point x="196" y="516" type="curve" smooth="yes"/>
      <point x="201" y="542"/>
      <point x="226" y="564"/>
    </contour>
    <contour>
      <point x="525" y="252" type="curve" smooth="yes"/>
      <point x="452" y="252"/>
      <point x="383" y="193"/>
      <point x="369" y="119" type="curve" smooth="yes"/>
      <point x="357" y="46"/>
      <point x="405" y="-13"/>
      <point x="478" y="-13" type="curve" smooth="yes"/>
      <point x="551" y="-13"/>
      <point x="621" y="46"/>
      <point x="633" y="119" type="curve" smooth="yes"/>
      <point x="647" y="193"/>
      <point x="598" y="252"/>
    </contour>
    <contour>
      <point x="510" y="167" type="curve" smooth="yes"/>
      <point x="536" y="167"/>
      <point x="553" y="145"/>
      <point x="548" y="119" type="curve" smooth="yes"/>
      <point x="544" y="94"/>
      <point x="519" y="72"/>
      <point x="493" y="72" type="curve" smooth="yes"/>
      <point x="467" y="72"/>
      <point x="450" y="94"/>
      <point x="454" y="119" type="curve" smooth="yes"/>
      <point x="459" y="145"/>
      <point x="484" y="167"/>
    </contour>
  </outline>
</glyph>
<glyph name="ampersand" format="1">
  <advance width="496"/>
  <unicode hex="0026"/>
  <outline>
    <contour>
      <point x="411" y="535" type="curve"/>
      <point x="448" y="636" type="line"/>
      <point x="448" y="636"/>
      <point x="368" y="636"/>
      <point x="296" y="636" type="curve" smooth="yes"/>
      <point x="214" y="636"/>
      <point x="156" y="582"/>
      <point x="142" y="504" type="curve" smooth="yes"/>
      <point x="131" y="442"/>
      <point x="158" y="394"/>
      <point x="199" y="366" type="curve"/>
      <point x="197" y="366"/>
      <point x="181" y="366"/>
      <point x="174" y="366" type="curve" smooth="yes"/>
      <point x="107" y="366"/>
      <point x="54" y="325"/>
      <point x="38" y="233" type="curve"/>
      <point x="38" y="233"/>
      <point x="22" y="146"/>
      <point x="22" y="146" type="curve"/>
      <point x="2" y="31"/>
      <point x="72" y="-2"/>
      <point x="143" y="-2" type="curve" smooth="yes"/>
      <point x="181" y="-2"/>
      <point x="225" y="15"/>
      <point x="262" y="44" type="curve"/>
      <point x="278" y="11"/>
      <point x="314" y="-6"/>
      <point x="370" y="-7" type="curve"/>
      <point x="414" y="73" type="line"/>
      <point x="372" y="73"/>
      <point x="350" y="83"/>
      <point x="357" y="124" type="curve" smooth="yes"/>
      <point x="385" y="278" type="line"/>
      <point x="450" y="278" type="line"/>
      <point x="486" y="366" type="line"/>
      <point x="396" y="366" type="line"/>
      <point x="413" y="460" type="line"/>
      <point x="313" y="460" type="line"/>
      <point x="296" y="366" type="line"/>
      <point x="295" y="366"/>
      <point x="294" y="366"/>
      <point x="294" y="366" type="curve"/>
      <point x="257" y="397"/>
      <point x="231" y="448"/>
      <point x="240" y="499" type="curve" smooth="yes"/>
      <point x="245" y="524"/>
      <point x="263" y="535"/>
      <point x="287" y="535" type="curve" smooth="yes"/>
      <point x="308" y="535"/>
      <point x="411" y="535"/>
    </contour>
    <contour>
      <point x="281" y="282" type="curve"/>
      <point x="258" y="152" type="line"/>
      <point x="245" y="114"/>
      <point x="210" y="89"/>
      <point x="174" y="89" type="curve" smooth="yes"/>
      <point x="135" y="89"/>
      <point x="116" y="115"/>
      <point x="122" y="149" type="curve" smooth="yes"/>
      <point x="123" y="154"/>
      <point x="136" y="232"/>
      <point x="137" y="235" type="curve"/>
      <point x="143" y="269"/>
      <point x="172" y="282"/>
      <point x="201" y="282" type="curve" smooth="yes"/>
      <point x="216" y="282"/>
      <point x="254" y="282"/>
    </contour>
  </outline>
</glyph>
<glyph name="parenleft" format="1">
  <advance width="289"/>
  <unicode hex="0028"/>
  <outline>
    <contour>
      <point x="279" y="663" type="curve"/>
      <point x="243" y="742" type="line"/>
      <point x="152" y="694"/>
      <point x="114" y="622"/>
      <point x="101" y="549" type="curve" smooth="yes"/>
      <point x="19" y="85" type="line" smooth="yes"/>
      <point x="7" y="12"/>
      <point x="15" y="-55"/>
      <point x="95" y="-105" type="curve"/>
      <point x="158" y="-32" type="line"/>
      <point x="158" y="-32"/>
      <point x="104" y="0"/>
      <point x="120" y="94" type="curve" smooth="yes"/>
      <point x="133" y="165"/>
      <point x="156" y="295"/>
      <point x="201" y="551" type="curve" smooth="yes"/>
      <point x="216" y="637"/>
      <point x="279" y="663"/>
    </contour>
  </outline>
</glyph>
<glyph name="parenright" format="1">
  <advance width="291"/>
  <unicode hex="0029"/>
  <outline>
    <contour>
      <point x="134" y="663" type="curve"/>
      <point x="198" y="742" type="line"/>
      <point x="273" y="694"/>
      <point x="285" y="622"/>
      <point x="272" y="549" type="curve" smooth="yes"/>
      <point x="190" y="85" type="line" smooth="yes"/>
      <point x="178" y="12"/>
      <point x="146" y="-55"/>
      <point x="48" y="-105" type="curve"/>
      <point x="11" y="-32" type="line"/>
      <point x="11" y="-32"/>
      <point x="77" y="0"/>
      <point x="93" y="94" type="curve" smooth="yes"/>
      <point x="106" y="165"/>
      <point x="129" y="295"/>
      <point x="174" y="551" type="curve" smooth="yes"/>
      <point x="189" y="637"/>
      <point x="134" y="663"/>
    </contour>
  </outline>
</glyph>
<glyph name="asterisk" format="1">
  <advance width="318"/>
  <unicode hex="002A"/>
  <outline>
    <contour>
      <point x="116" y="491" type="line"/>
      <point x="21" y="424" type="line"/>
      <point x="99" y="360" type="line"/>
      <point x="153" y="467" type="line"/>
      <point x="168" y="360" type="line"/>
      <point x="272" y="422" type="line"/>
      <point x="197" y="490" type="line"/>
      <point x="308" y="499" type="line"/>
      <point x="284" y="595" type="line"/>
      <point x="188" y="533" type="line"/>
      <point x="237" y="635" type="line"/>
      <point x="128" y="635" type="line"/>
      <point x="140" y="533" type="line"/>
      <point x="63" y="594" type="line"/>
      <point x="12" y="500" type="line"/>
    </contour>
  </outline>
</glyph>
<glyph name="plus" format="1">
  <advance width="330"/>
  <unicode hex="002B"/>
  <outline>
    <contour>
      <point x="124" y="381" type="line"/>
      <point x="29" y="381" type="line"/>
      <point x="12" y="285" type="line"/>
      <point x="107" y="285" type="line"/>
      <point x="90" y="191" type="line"/>
      <point x="191" y="191" type="line"/>
      <point x="208" y="285" type="line"/>
      <point x="303" y="285" type="line"/>
      <point x="320" y="381" type="line"/>
      <point x="225" y="381" type="line"/>
      <point x="242" y="481" type="line"/>
      <point x="141" y="481" type="line"/>
    </contour>
  </outline>
</glyph>
<glyph name="comma" format="1">
  <advance width="140"/>
  <unicode hex="002C"/>
  <outline>
    <contour>
      <point x="21" y="-60" type="curve"/>
      <point x="40" y="-75" type="line"/>
      <point x="40" y="-75"/>
      <point x="108" y="-37"/>
      <point x="122" y="45" type="curve" smooth="yes"/>
      <point x="128" y="75"/>
      <point x="108" y="99"/>
      <point x="79" y="99" type="curve" smooth="yes"/>
      <point x="49" y="99"/>
      <point x="20" y="75"/>
      <point x="14" y="45" type="curve" smooth="yes"/>
      <point x="10" y="20"/>
      <point x="23" y="-1"/>
      <point x="46" y="-7" type="curve"/>
      <point x="40" y="-25"/>
      <point x="33" y="-44"/>
    </contour>
  </outline>
</glyph>
<glyph name="period" format="1">
  <advance width="140"/>
  <unicode hex="002E"/>
  <outline>
    <contour>
      <point x="78" y="94" type="curve" smooth="yes"/>
      <point x="48" y="94"/>
      <point x="20" y="69"/>
      <point x="14" y="39" type="curve" smooth="yes"/>
      <point x="9" y="9"/>
      <point x="29" y="-15"/>
      <point x="59" y="-15" type="curve" smooth="yes"/>
      <point x="89" y="-15"/>
      <point x="118" y="9"/>
      <point x="123" y="39" type="curve" smooth="yes"/>
      <point x="129" y="69"/>
      <point x="108" y="94"/>
    </contour>
  </outline>
</glyph>
<glyph name="one" format="1">
  <advance width="201"/>
  <unicode hex="0031"/>
  <outline>
    <contour>
      <point x="7" y="570" type="curve"/>
      <point x="22" y="483" type="line"/>
      <point x="22" y="483"/>
      <point x="76" y="492"/>
      <point x="100" y="506" type="curve"/>
      <point x="10" y="0" type="line"/>
      <point x="111" y="0" type="line"/>
      <point x="222" y="635" type="line"/>
      <point x="122" y="635" type="line"/>
      <point x="78" y="585"/>
      <point x="7" y="570"/>
    </contour>
  </outline>
</glyph>
<glyph name="two" format="1">
  <advance width="398"/>
  <unicode hex="0032"/>
  <outline>
    <contour>
      <point x="87" y="535" type="curve"/>
      <point x="162" y="492" type="line"/>
      <point x="181" y="527"/>
      <point x="216" y="546"/>
      <point x="249" y="546" type="curve" smooth="yes"/>
      <point x="282" y="545"/>
      <point x="309" y="524"/>
      <point x="301" y="481" type="curve" smooth="yes"/>
      <point x="297" y="455"/>
      <point x="287" y="435"/>
      <point x="245" y="384" type="curve" smooth="yes"/>
      <point x="159" y="288"/>
      <point x="77" y="190"/>
      <point x="-5" y="92" type="curve"/>
      <point x="-21" y="0" type="line"/>
      <point x="318" y="0" type="line"/>
      <point x="334" y="91" type="line"/>
      <point x="110" y="91" type="line"/>
      <point x="212" y="214"/>
      <point x="266" y="276"/>
      <point x="317" y="338" type="curve" smooth="yes"/>
      <point x="359" y="389"/>
      <point x="391" y="433"/>
      <point x="401" y="489" type="curve" smooth="yes"/>
      <point x="419" y="591"/>
      <point x="349" y="644"/>
      <point x="267" y="644" type="curve" smooth="yes"/>
      <point x="194" y="644"/>
      <point x="125" y="602"/>
    </contour>
  </outline>
</glyph>
<glyph name="three" format="1">
  <advance width="377"/>
  <unicode hex="0033"/>
  <outline>
    <contour>
      <point x="232" y="374" type="curve"/>
      <point x="230" y="375" type="line"/>
      <point x="367" y="535" type="line"/>
      <point x="384" y="635" type="line"/>
      <point x="120" y="635" type="line"/>
      <point x="103" y="535" type="line"/>
      <point x="256" y="535" type="line"/>
      <point x="41" y="278" type="line"/>
      <point x="140" y="278" type="line" smooth="yes"/>
      <point x="178" y="278"/>
      <point x="206" y="270"/>
      <point x="225" y="258" type="curve" smooth="yes"/>
      <point x="251" y="242"/>
      <point x="261" y="217"/>
      <point x="255" y="183" type="curve" smooth="yes"/>
      <point x="250" y="155"/>
      <point x="237" y="131"/>
      <point x="216" y="113" type="curve" smooth="yes"/>
      <point x="197" y="96"/>
      <point x="172" y="86"/>
      <point x="142" y="86" type="curve" smooth="yes"/>
      <point x="102" y="86"/>
      <point x="67" y="111"/>
      <point x="56" y="146" type="curve"/>
      <point x="-18" y="75" type="line"/>
      <point x="8" y="22"/>
      <point x="62" y="-11"/>
      <point x="127" y="-11" type="curve" smooth="yes"/>
      <point x="181" y="-11"/>
      <point x="229" y="8"/>
      <point x="272" y="45" type="curve" smooth="yes"/>
      <point x="318" y="83"/>
      <point x="345" y="129"/>
      <point x="355" y="183" type="curve" smooth="yes"/>
      <point x="364" y="233"/>
      <point x="355" y="275"/>
      <point x="329" y="310" type="curve" smooth="yes"/>
      <point x="304" y="344"/>
      <point x="272" y="366"/>
    </contour>
  </outline>
</glyph>
<glyph name="four" format="1">
  <advance width="443"/>
  <unicode hex="0034"/>
  <outline>
    <contour>
      <point x="373" y="278" type="line"/>
      <point x="419" y="278" type="line"/>
      <point x="453" y="375" type="line"/>
      <point x="390" y="375" type="line"/>
      <point x="435" y="635" type="line"/>
      <point x="335" y="635" type="line"/>
      <point x="290" y="375" type="line"/>
      <point x="167" y="375" type="line"/>
      <point x="327" y="635" type="line"/>
      <point x="225" y="635" type="line"/>
      <point x="-12" y="278" type="line"/>
      <point x="273" y="278" type="line"/>
      <point x="224" y="0" type="line"/>
      <point x="324" y="0" type="line"/>
    </contour>
  </outline>
</glyph>
<glyph name="five" format="1">
  <advance width="377"/>
  <unicode hex="0035"/>
  <outline>
    <contour>
      <point x="172" y="375" type="curve"/>
      <point x="217" y="535" type="line"/>
      <point x="366" y="535" type="line"/>
      <point x="383" y="635" type="line"/>
      <point x="141" y="635" type="line"/>
      <point x="40" y="282" type="line"/>
      <point x="140" y="282" type="line"/>
      <point x="218" y="278"/>
      <point x="266" y="252"/>
      <point x="254" y="183" type="curve" smooth="yes"/>
      <point x="244" y="129"/>
      <point x="196" y="88"/>
      <point x="143" y="88" type="curve" smooth="yes"/>
      <point x="88" y="88"/>
      <point x="32" y="125"/>
      <point x="32" y="125" type="curve"/>
      <point x="-20" y="38" type="line"/>
      <point x="-20" y="38"/>
      <point x="49" y="-11"/>
      <point x="128" y="-11" type="curve" smooth="yes"/>
      <point x="256" y="-11"/>
      <point x="340" y="97"/>
      <point x="354" y="181" type="curve" smooth="yes"/>
      <point x="373" y="285"/>
      <point x="324" y="369"/>
      <point x="189" y="374" type="curve" smooth="yes"/>
      <point x="183" y="374"/>
      <point x="178" y="375"/>
    </contour>
  </outline>
</glyph>
<glyph name="six" format="1">
  <advance width="392"/>
  <unicode hex="0036"/>
  <outline>
    <contour>
      <point x="278" y="544" type="curve" smooth="yes"/>
      <point x="313" y="544" type="line"/>
      <point x="329" y="635" type="line"/>
      <point x="298" y="635" type="line" smooth="yes"/>
      <point x="217" y="635"/>
      <point x="150" y="604"/>
      <point x="110" y="559" type="curve" smooth="yes"/>
      <point x="69" y="513"/>
      <point x="48" y="466"/>
      <point x="39" y="418" type="curve" smooth="yes"/>
      <point x="-2" y="185" type="line" smooth="yes"/>
      <point x="-11" y="131"/>
      <point x="-1" y="85"/>
      <point x="30" y="47" type="curve" smooth="yes"/>
      <point x="59" y="10"/>
      <point x="102" y="-9"/>
      <point x="156" y="-9" type="curve" smooth="yes"/>
      <point x="209" y="-9"/>
      <point x="258" y="10"/>
      <point x="303" y="47" type="curve" smooth="yes"/>
      <point x="346" y="85"/>
      <point x="374" y="131"/>
      <point x="383" y="185" type="curve" smooth="yes"/>
      <point x="392" y="238"/>
      <point x="382" y="284"/>
      <point x="351" y="321" type="curve" smooth="yes"/>
      <point x="320" y="358"/>
      <point x="277" y="375"/>
      <point x="224" y="375" type="curve" smooth="yes"/>
      <point x="164" y="375"/>
      <point x="125" y="349"/>
      <point x="125" y="349" type="curve"/>
      <point x="134" y="397" type="line" smooth="yes"/>
      <point x="142" y="444"/>
      <point x="160" y="482"/>
      <point x="187" y="507" type="curve" smooth="yes"/>
      <point x="211" y="531"/>
      <point x="242" y="544"/>
    </contour>
    <contour>
      <point x="206" y="277" type="curve" smooth="yes"/>
      <point x="258" y="277"/>
      <point x="293" y="235"/>
      <point x="284" y="184" type="curve" smooth="yes"/>
      <point x="275" y="132"/>
      <point x="225" y="89"/>
      <point x="173" y="89" type="curve" smooth="yes"/>
      <point x="122" y="89"/>
      <point x="87" y="132"/>
      <point x="96" y="184" type="curve" smooth="yes"/>
      <point x="105" y="235"/>
      <point x="155" y="277"/>
    </contour>
  </outline>
</glyph>
<glyph name="seven" format="1">
  <advance width="427"/>
  <unicode hex="0037"/>
  <outline>
    <contour>
      <point x="462" y="635" type="line"/>
      <point x="105" y="635" type="line"/>
      <point x="88" y="535" type="line"/>
      <point x="333" y="535" type="line"/>
      <point x="-25" y="0" type="line"/>
      <point x="85" y="0" type="line"/>
      <point x="445" y="535" type="line"/>
    </contour>
  </outline>
</glyph>
<glyph name="eight" format="1">
  <advance width="404"/>
  <unicode hex="0038"/>
  <outline>
    <contour>
      <point x="270" y="644" type="curve" smooth="yes"/>
      <point x="225" y="644"/>
      <point x="185" y="628"/>
      <point x="150" y="596" type="curve" smooth="yes"/>
      <point x="113" y="565"/>
      <point x="92" y="528"/>
      <point x="84" y="484" type="curve" smooth="yes"/>
      <point x="78" y="453"/>
      <point x="79" y="425"/>
      <point x="90" y="402" type="curve" smooth="yes"/>
      <point x="98" y="383"/>
      <point x="110" y="367"/>
      <point x="128" y="354" type="curve"/>
      <point x="102" y="341"/>
      <point x="79" y="324"/>
      <point x="59" y="304" type="curve" smooth="yes"/>
      <point x="26" y="270"/>
      <point x="3" y="228"/>
      <point x="-5" y="183" type="curve" smooth="yes"/>
      <point x="-15" y="129"/>
      <point x="-4" y="83"/>
      <point x="27" y="45" type="curve" smooth="yes"/>
      <point x="58" y="8"/>
      <point x="100" y="-11"/>
      <point x="154" y="-11" type="curve" smooth="yes"/>
      <point x="208" y="-11"/>
      <point x="256" y="8"/>
      <point x="299" y="45" type="curve" smooth="yes"/>
      <point x="344" y="83"/>
      <point x="372" y="129"/>
      <point x="382" y="183" type="curve" smooth="yes"/>
      <point x="391" y="235"/>
      <point x="378" y="283"/>
      <point x="349" y="318" type="curve" smooth="yes"/>
      <point x="338" y="332"/>
      <point x="324" y="343"/>
      <point x="309" y="353" type="curve"/>
      <point x="332" y="366"/>
      <point x="351" y="383"/>
      <point x="366" y="402" type="curve" smooth="yes"/>
      <point x="384" y="425"/>
      <point x="396" y="453"/>
      <point x="402" y="484" type="curve" smooth="yes"/>
      <point x="410" y="528"/>
      <point x="400" y="565"/>
      <point x="375" y="596" type="curve" smooth="yes"/>
      <point x="349" y="628"/>
      <point x="314" y="644"/>
    </contour>
    <contour>
      <point x="230" y="424" type="curve" smooth="yes"/>
      <point x="212" y="424"/>
      <point x="197" y="433"/>
      <point x="189" y="445" type="curve" smooth="yes"/>
      <point x="181" y="456"/>
      <point x="178" y="470"/>
      <point x="181" y="485" type="curve" smooth="yes"/>
      <point x="187" y="519"/>
      <point x="219" y="545"/>
      <point x="252" y="545" type="curve" smooth="yes"/>
      <point x="286" y="545"/>
      <point x="308" y="519"/>
      <point x="302" y="485" type="curve" smooth="yes"/>
      <point x="299" y="470"/>
      <point x="290" y="455"/>
      <point x="279" y="445" type="curve" smooth="yes"/>
      <point x="266" y="433"/>
      <point x="248" y="424"/>
    </contour>
    <contour>
      <point x="171" y="87" type="curve" smooth="yes"/>
      <point x="118" y="87"/>
      <point x="83" y="130"/>
      <point x="93" y="183" type="curve" smooth="yes"/>
      <point x="97" y="207"/>
      <point x="111" y="230"/>
      <point x="129" y="247" type="curve" smooth="yes"/>
      <point x="149" y="266"/>
      <point x="178" y="278"/>
      <point x="205" y="278" type="curve" smooth="yes"/>
      <point x="229" y="278"/>
      <point x="247" y="270"/>
      <point x="262" y="256" type="curve" smooth="yes"/>
      <point x="280" y="239"/>
      <point x="288" y="213"/>
      <point x="283" y="183" type="curve" smooth="yes"/>
      <point x="273" y="130"/>
      <point x="224" y="87"/>
    </contour>
  </outline>
</glyph>
<glyph name="nine" format="1">
  <advance width="389"/>
  <unicode hex="0039"/>
  <outline>
    <contour>
      <point x="238" y="644" type="curve" smooth="yes"/>
      <point x="184" y="644"/>
      <point x="136" y="625"/>
      <point x="91" y="588" type="curve" smooth="yes"/>
      <point x="48" y="551"/>
      <point x="20" y="504"/>
      <point x="11" y="451" type="curve" smooth="yes"/>
      <point x="2" y="397"/>
      <point x="13" y="352"/>
      <point x="43" y="314" type="curve" smooth="yes"/>
      <point x="73" y="277"/>
      <point x="117" y="260"/>
      <point x="170" y="260" type="curve" smooth="yes"/>
      <point x="231" y="260"/>
      <point x="268" y="286"/>
      <point x="268" y="286" type="curve"/>
      <point x="259" y="238" type="line" smooth="yes"/>
      <point x="251" y="192"/>
      <point x="234" y="154"/>
      <point x="207" y="127" type="curve" smooth="yes"/>
      <point x="183" y="105"/>
      <point x="153" y="91"/>
      <point x="115" y="91" type="curve" smooth="yes"/>
      <point x="80" y="91" type="line"/>
      <point x="63" y="-1" type="line"/>
      <point x="95" y="-1" type="line" smooth="yes"/>
      <point x="176" y="-1"/>
      <point x="244" y="31"/>
      <point x="284" y="75" type="curve" smooth="yes"/>
      <point x="325" y="122"/>
      <point x="346" y="168"/>
      <point x="355" y="216" type="curve" smooth="yes"/>
      <point x="396" y="451" type="line" smooth="yes"/>
      <point x="405" y="504"/>
      <point x="395" y="551"/>
      <point x="364" y="588" type="curve" smooth="yes"/>
      <point x="334" y="625"/>
      <point x="291" y="644"/>
    </contour>
    <contour>
      <point x="221" y="545" type="curve" smooth="yes"/>
      <point x="273" y="545"/>
      <point x="306" y="504"/>
      <point x="297" y="452" type="curve" smooth="yes"/>
      <point x="288" y="400"/>
      <point x="240" y="358"/>
      <point x="188" y="358" type="curve" smooth="yes"/>
      <point x="136" y="358"/>
      <point x="100" y="400"/>
      <point x="109" y="452" type="curve" smooth="yes"/>
      <point x="118" y="504"/>
      <point x="169" y="545"/>
    </contour>
  </outline>
</glyph>
<glyph name="colon" format="1">
  <advance width="174"/>
  <unicode hex="003A"/>
  <outline>
    <contour>
      <point x="122" y="130" type="curve" smooth="yes"/>
      <point x="128" y="160"/>
      <point x="107" y="185"/>
      <point x="77" y="185" type="curve" smooth="yes"/>
      <point x="47" y="185"/>
      <point x="20" y="160"/>
      <point x="14" y="130" type="curve" smooth="yes"/>
      <point x="9" y="100"/>
      <point x="28" y="76"/>
      <point x="58" y="76" type="curve" smooth="yes"/>
      <point x="88" y="76"/>
      <point x="117" y="100"/>
    </contour>
    <contour>
      <point x="161" y="350" type="curve" smooth="yes"/>
      <point x="166" y="379"/>
      <point x="146" y="404"/>
      <point x="116" y="404" type="curve" smooth="yes"/>
      <point x="86" y="404"/>
      <point x="58" y="379"/>
      <point x="53" y="350" type="curve" smooth="yes"/>
      <point x="48" y="320"/>
      <point x="67" y="295"/>
      <point x="97" y="295" type="curve" smooth="yes"/>
      <point x="127" y="295"/>
      <point x="156" y="320"/>
    </contour>
  </outline>
</glyph>
<glyph name="semicolon" format="1">
  <advance width="174"/>
  <unicode hex="003B"/>
  <outline>
    <contour>
      <point x="19" y="25" type="curve"/>
      <point x="39" y="10" type="line"/>
      <point x="39" y="10"/>
      <point x="107" y="47"/>
      <point x="121" y="130" type="curve" smooth="yes"/>
      <point x="127" y="160"/>
      <point x="106" y="184"/>
      <point x="77" y="184" type="curve" smooth="yes"/>
      <point x="47" y="184"/>
      <point x="19" y="160"/>
      <point x="13" y="130" type="curve" smooth="yes"/>
      <point x="9" y="105"/>
      <point x="22" y="84"/>
      <point x="45" y="77" type="curve"/>
      <point x="39" y="60"/>
      <point x="31" y="41"/>
    </contour>
    <contour>
      <point x="161" y="350" type="curve" smooth="yes"/>
      <point x="166" y="379"/>
      <point x="146" y="404"/>
      <point x="116" y="404" type="curve" smooth="yes"/>
      <point x="86" y="404"/>
      <point x="58" y="379"/>
      <point x="53" y="350" type="curve" smooth="yes"/>
      <point x="48" y="320"/>
      <point x="67" y="295"/>
      <point x="97" y="295" type="curve" smooth="yes"/>
      <point x="127" y="295"/>
      <point x="156" y="320"/>
    </contour>
  </outline>
</glyph>
<glyph name="less" format="1">
  <advance width="375"/>
  <unicode hex="003C"/>
  <outline>
    <contour>
      <point x="296" y="133" type="line"/>
      <point x="140" y="325" type="line"/>
      <point x="365" y="514" type="line"/>
      <point x="309" y="578" type="line"/>
      <point x="12" y="325" type="line"/>
      <point x="220" y="73" type="line"/>
    </contour>
  </outline>
</glyph>
<glyph name="equal" format="1">
  <advance width="354"/>
  <unicode hex="003D"/>
  <outline>
    <contour>
      <point x="343" y="419" type="line"/>
      <point x="52" y="419" type="line"/>
      <point x="36" y="324" type="line"/>
      <point x="327" y="324" type="line"/>
    </contour>
    <contour>
      <point x="319" y="281" type="line"/>
      <point x="28" y="281" type="line"/>
      <point x="11" y="185" type="line"/>
      <point x="302" y="185" type="line"/>
    </contour>
  </outline>
</glyph>
<glyph name="greater" format="1">
  <advance width="373"/>
  <unicode hex="003E"/>
  <outline>
    <contour>
      <point x="11" y="133" type="line"/>
      <point x="65" y="73" type="line"/>
      <point x="363" y="325" type="line"/>
      <point x="154" y="578" type="line"/>
      <point x="76" y="514" type="line"/>
      <point x="235" y="325" type="line"/>
    </contour>
  </outline>
</glyph>
<glyph name="question" format="1">
  <advance width="367"/>
  <unicode hex="003F"/>
  <outline>
    <contour>
      <point x="12" y="483" type="curve"/>
      <point x="114" y="483" type="line"/>
      <point x="121" y="527"/>
      <point x="155" y="548"/>
      <point x="187" y="548" type="curve" smooth="yes"/>
      <point x="231" y="548"/>
      <point x="252" y="514"/>
      <point x="246" y="477" type="curve" smooth="yes"/>
      <point x="239" y="437"/>
      <point x="201" y="404"/>
      <point x="162" y="364" type="curve" smooth="yes"/>
      <point x="120" y="322"/>
      <point x="76" y="271"/>
      <point x="63" y="193" type="curve" smooth="yes"/>
      <point x="48" y="108" type="line"/>
      <point x="147" y="108" type="line"/>
      <point x="153" y="142"/>
      <point x="157" y="166"/>
      <point x="161" y="191" type="curve"/>
      <point x="176" y="256"/>
      <point x="193" y="278"/>
      <point x="250" y="332" type="curve" smooth="yes"/>
      <point x="297" y="375"/>
      <point x="335" y="414"/>
      <point x="346" y="474" type="curve" smooth="yes"/>
      <point x="364" y="576"/>
      <point x="297" y="644"/>
      <point x="203" y="644" type="curve" smooth="yes"/>
      <point x="123" y="644"/>
      <point x="31" y="593"/>
    </contour>
    <contour>
      <point x="95" y="94" type="curve" smooth="yes"/>
      <point x="65" y="94"/>
      <point x="37" y="69"/>
      <point x="31" y="39" type="curve" smooth="yes"/>
      <point x="26" y="9"/>
      <point x="46" y="-15"/>
      <point x="76" y="-15" type="curve" smooth="yes"/>
      <point x="106" y="-15"/>
      <point x="134" y="9"/>
      <point x="139" y="39" type="curve" smooth="yes"/>
      <point x="145" y="69"/>
      <point x="125" y="94"/>
    </contour>
  </outline>
</glyph>
<glyph name="at" format="1">
  <advance width="762"/>
  <unicode hex="0040"/>
  <outline>
    <contour>
      <point x="752" y="377" type="curve"/>
      <point x="734" y="440" type="line"/>
      <point x="646" y="424"/>
      <point x="620" y="377"/>
      <point x="609" y="316" type="curve" smooth="yes"/>
      <point x="607" y="302"/>
      <point x="582" y="163"/>
      <point x="579" y="147" type="curve" smooth="yes"/>
      <point x="563" y="52"/>
      <point x="480" y="5"/>
      <point x="331" y="5" type="curve" smooth="yes"/>
      <point x="159" y="5"/>
      <point x="104" y="64"/>
      <point x="129" y="205" type="curve" smooth="yes"/>
      <point x="134" y="237"/>
      <point x="140" y="268"/>
      <point x="145" y="300" type="curve" smooth="yes"/>
      <point x="164" y="403"/>
      <point x="201" y="458"/>
      <point x="335" y="458" type="curve" smooth="yes"/>
      <point x="412" y="458"/>
      <point x="456" y="451"/>
      <point x="448" y="403" type="curve"/>
      <point x="448" y="403"/>
      <point x="357" y="403"/>
      <point x="348" y="403" type="curve" smooth="yes"/>
      <point x="277" y="403"/>
      <point x="217" y="364"/>
      <point x="195" y="259" type="curve" smooth="yes"/>
      <point x="187" y="213" type="line" smooth="yes"/>
      <point x="172" y="128"/>
      <point x="194" y="55"/>
      <point x="306" y="55" type="curve" smooth="yes"/>
      <point x="377" y="55"/>
      <point x="488" y="64"/>
      <point x="488" y="64" type="curve"/>
      <point x="503" y="148"/>
      <point x="517" y="230"/>
      <point x="532" y="314" type="curve"/>
      <point x="560" y="314" type="line"/>
      <point x="600" y="403" type="line"/>
      <point x="545" y="403" type="line"/>
      <point x="566" y="524"/>
      <point x="475" y="549"/>
      <point x="347" y="549" type="curve" smooth="yes"/>
      <point x="187" y="549"/>
      <point x="82" y="475"/>
      <point x="50" y="294" type="curve" smooth="yes"/>
      <point x="43" y="255"/>
      <point x="36" y="213"/>
      <point x="28" y="167" type="curve" smooth="yes"/>
      <point x="-2" y="-2"/>
      <point x="120" y="-85"/>
      <point x="312" y="-85" type="curve" smooth="yes"/>
      <point x="547" y="-85"/>
      <point x="652" y="35"/>
      <point x="674" y="162" type="curve" smooth="yes"/>
      <point x="699" y="305" type="line" smooth="yes"/>
      <point x="705" y="338"/>
      <point x="711" y="359"/>
    </contour>
    <contour>
      <point x="357" y="314" type="curve" smooth="yes"/>
      <point x="359" y="314"/>
      <point x="409" y="314"/>
      <point x="435" y="314" type="curve"/>
      <point x="405" y="142" type="line"/>
      <point x="380" y="139"/>
      <point x="359" y="139"/>
      <point x="338" y="139" type="curve" smooth="yes"/>
      <point x="296" y="139"/>
      <point x="276" y="152"/>
      <point x="287" y="212" type="curve" smooth="yes"/>
      <point x="295" y="256" type="line" smooth="yes"/>
      <point x="303" y="302"/>
      <point x="337" y="314"/>
    </contour>
  </outline>
</glyph>
<glyph name="A" format="1">
  <advance width="438"/>
  <unicode hex="0041"/>
  <outline>
    <contour>
      <point x="239" y="635" type="line"/>
      <point x="-26" y="0" type="line"/>
      <point x="87" y="0" type="line"/>
      <point x="152" y="166" type="line"/>
      <point x="299" y="166" type="line"/>
      <point x="306" y="0" type="line"/>
      <point x="425" y="0" type="line"/>
      <point x="380" y="635" type="line"/>
    </contour>
    <contour>
      <point x="295" y="273" type="line"/>
      <point x="196" y="273" type="line"/>
      <point x="279" y="468" type="line"/>
    </contour>
  </outline>
</glyph>
<glyph name="B" format="1">
  <advance width="432"/>
  <unicode hex="0042"/>
  <outline>
    <contour>
      <point x="281" y="635" type="curve" smooth="yes"/>
      <point x="96" y="635" type="line"/>
      <point x="-15" y="0" type="line"/>
      <point x="184" y="0" type="line" smooth="yes"/>
      <point x="253" y="0"/>
      <point x="304" y="23"/>
      <point x="340" y="55" type="curve" smooth="yes"/>
      <point x="382" y="91"/>
      <point x="403" y="140"/>
      <point x="411" y="186" type="curve" smooth="yes"/>
      <point x="426" y="269"/>
      <point x="395" y="322"/>
      <point x="346" y="346" type="curve"/>
      <point x="346" y="347" type="line" smooth="yes"/>
      <point x="346" y="348"/>
      <point x="346" y="348"/>
      <point x="347" y="349" type="curve"/>
      <point x="392" y="376"/>
      <point x="419" y="417"/>
      <point x="429" y="474" type="curve" smooth="yes"/>
      <point x="438" y="526"/>
      <point x="429" y="565"/>
      <point x="400" y="594" type="curve" smooth="yes"/>
      <point x="371" y="622"/>
      <point x="331" y="635"/>
    </contour>
    <contour>
      <point x="195" y="375" type="curve" smooth="yes"/>
      <point x="151" y="375" type="line"/>
      <point x="179" y="535" type="line"/>
      <point x="232" y="535" type="line" smooth="yes"/>
      <point x="294" y="535"/>
      <point x="320" y="516"/>
      <point x="310" y="459" type="curve" smooth="yes"/>
      <point x="306" y="433"/>
      <point x="297" y="414"/>
      <point x="283" y="401" type="curve" smooth="yes"/>
      <point x="264" y="383"/>
      <point x="235" y="375"/>
    </contour>
    <contour>
      <point x="174" y="92" type="curve" smooth="yes"/>
      <point x="101" y="92" type="line"/>
      <point x="134" y="279" type="line"/>
      <point x="198" y="279" type="line" smooth="yes"/>
      <point x="275" y="279"/>
      <point x="307" y="249"/>
      <point x="297" y="188" type="curve" smooth="yes"/>
      <point x="283" y="109"/>
      <point x="217" y="92"/>
    </contour>
  </outline>
</glyph>
<glyph name="C" format="1">
  <advance width="366"/>
  <unicode hex="0043"/>
  <outline>
    <contour>
      <point x="342" y="529" type="curve"/>
      <point x="384" y="614" type="line"/>
      <point x="344" y="635"/>
      <point x="302" y="645"/>
      <point x="258" y="645" type="curve" smooth="yes"/>
      <point x="213" y="645"/>
      <point x="169" y="634"/>
      <point x="132" y="604" type="curve" smooth="yes"/>
      <point x="94" y="575"/>
      <point x="63" y="528"/>
      <point x="50" y="457" type="curve" smooth="yes"/>
      <point x="-1" y="166" type="line" smooth="yes"/>
      <point x="-12" y="103"/>
      <point x="1" y="58"/>
      <point x="29" y="29" type="curve" smooth="yes"/>
      <point x="56" y="2"/>
      <point x="98" y="-11"/>
      <point x="147" y="-11" type="curve" smooth="yes"/>
      <point x="194" y="-10"/>
      <point x="246" y="1"/>
      <point x="301" y="21" type="curve"/>
      <point x="303" y="115" type="line"/>
      <point x="292" y="115"/>
      <point x="226" y="91"/>
      <point x="171" y="91" type="curve" smooth="yes"/>
      <point x="145" y="91"/>
      <point x="123" y="95"/>
      <point x="111" y="109" type="curve"/>
      <point x="99" y="121"/>
      <point x="94" y="140"/>
      <point x="99" y="168" type="curve" smooth="yes"/>
      <point x="151" y="465" type="line" smooth="yes"/>
      <point x="156" y="493"/>
      <point x="167" y="512"/>
      <point x="185" y="525" type="curve" smooth="yes"/>
      <point x="202" y="538"/>
      <point x="227" y="545"/>
      <point x="259" y="545" type="curve" smooth="yes"/>
      <point x="286" y="545"/>
      <point x="318" y="538"/>
    </contour>
  </outline>
</glyph>
<glyph name="F" format="1">
  <advance width="362"/>
  <unicode hex="0046"/>
  <outline>
    <contour>
      <point x="-15" y="0" type="line"/>
      <point x="85" y="0" type="line"/>
      <point x="134" y="280" type="line"/>
      <point x="227" y="280" type="line"/>
      <point x="276" y="375" type="line"/>
      <point x="151" y="375" type="line"/>
      <point x="179" y="535" type="line"/>
      <point x="383" y="535" type="line"/>
      <point x="400" y="635" type="line"/>
      <point x="96" y="635" type="line"/>
    </contour>
  </outline>
</glyph>
<glyph name="G" format="1">
  <advance width="392"/>
  <unicode hex="0047"/>
  <outline>
    <contour>
      <point x="337" y="524" type="curve"/>
      <point x="383" y="614" type="line"/>
      <point x="350" y="632"/>
      <point x="313" y="642"/>
      <point x="270" y="644" type="curve" smooth="yes"/>
      <point x="221" y="644"/>
      <point x="188" y="636"/>
      <point x="157" y="621" type="curve"/>
      <point x="99" y="589"/>
      <point x="63" y="534"/>
      <point x="49" y="456" type="curve" smooth="yes"/>
      <point x="-1" y="172" type="line" smooth="yes"/>
      <point x="-12" y="112"/>
      <point x="-2" y="66"/>
      <point x="31" y="36" type="curve" smooth="yes"/>
      <point x="63" y="6"/>
      <point x="105" y="-9"/>
      <point x="159" y="-9" type="curve" smooth="yes"/>
      <point x="182" y="-9"/>
      <point x="210" y="-4"/>
      <point x="244" y="7" type="curve"/>
      <point x="248" y="0" type="line"/>
      <point x="343" y="0" type="line"/>
      <point x="391" y="273" type="line"/>
      <point x="207" y="273" type="line"/>
      <point x="222" y="177" type="line"/>
      <point x="274" y="177" type="line"/>
      <point x="272" y="169" type="line"/>
      <point x="268" y="145"/>
      <point x="258" y="126"/>
      <point x="245" y="114" type="curve" smooth="yes"/>
      <point x="228" y="99"/>
      <point x="205" y="92"/>
      <point x="176" y="92" type="curve" smooth="yes"/>
      <point x="117" y="92"/>
      <point x="88" y="112"/>
      <point x="98" y="170" type="curve" smooth="yes"/>
      <point x="150" y="464" type="line" smooth="yes"/>
      <point x="156" y="499"/>
      <point x="172" y="519"/>
      <point x="196" y="530" type="curve" smooth="yes"/>
      <point x="212" y="537"/>
      <point x="233" y="540"/>
      <point x="257" y="540" type="curve" smooth="yes"/>
      <point x="283" y="540"/>
      <point x="310" y="534"/>
    </contour>
  </outline>
</glyph>
<glyph name="H" format="1">
  <advance width="466"/>
  <unicode hex="0048"/>
  <outline>
    <contour>
      <point x="196" y="635" type="line"/>
      <point x="96" y="635" type="line"/>
      <point x="-15" y="0" type="line"/>
      <point x="85" y="0" type="line"/>
      <point x="134" y="280" type="line"/>
      <point x="326" y="280" type="line"/>
      <point x="277" y="0" type="line"/>
      <point x="376" y="0" type="line"/>
      <point x="487" y="635" type="line"/>
      <point x="388" y="635" type="line"/>
      <point x="343" y="375" type="line"/>
      <point x="151" y="375" type="line"/>
    </contour>
  </outline>
</glyph>
<glyph name="J" format="1">
  <advance width="253"/>
  <unicode hex="004A"/>
  <outline>
    <contour>
      <point x="186" y="126" type="curve" smooth="yes"/>
      <point x="275" y="635" type="line"/>
      <point x="122" y="635" type="line"/>
      <point x="106" y="539" type="line"/>
      <point x="160" y="537" type="line"/>
      <point x="91" y="142" type="line" smooth="yes"/>
      <point x="80" y="82"/>
      <point x="43" y="52"/>
      <point x="-21" y="52" type="curve"/>
      <point x="-3" y="-34" type="line"/>
      <point x="30" y="-33"/>
      <point x="74" y="-25"/>
      <point x="113" y="3" type="curve" smooth="yes"/>
      <point x="146" y="26"/>
      <point x="175" y="65"/>
    </contour>
  </outline>
</glyph>
<glyph name="K" format="1">
  <advance width="448"/>
  <unicode hex="004B"/>
  <outline>
    <contour>
      <point x="96" y="636" type="line"/>
      <point x="-16" y="0" type="line"/>
      <point x="91" y="0" type="line"/>
      <point x="134" y="244" type="line"/>
      <point x="142" y="253" type="line"/>
      <point x="269" y="0" type="line"/>
      <point x="394" y="0" type="line"/>
      <point x="217" y="342" type="line"/>
      <point x="470" y="636" type="line"/>
      <point x="350" y="636" type="line"/>
      <point x="164" y="417" type="line"/>
      <point x="203" y="636" type="line"/>
    </contour>
  </outline>
</glyph>
<glyph name="L" format="1">
  <advance width="338"/>
  <unicode hex="004C"/>
  <outline>
    <contour>
      <point x="329" y="92" type="line"/>
      <point x="101" y="92" type="line"/>
      <point x="196" y="635" type="line"/>
      <point x="96" y="635" type="line"/>
      <point x="-15" y="0" type="line"/>
      <point x="313" y="0" type="line"/>
    </contour>
  </outline>
</glyph>
<glyph name="P" format="1">
  <advance width="457"/>
  <unicode hex="0050"/>
  <outline>
    <contour>
      <point x="293" y="635" type="curve" smooth="yes"/>
      <point x="96" y="635" type="line"/>
      <point x="-15" y="0" type="line"/>
      <point x="85" y="0" type="line"/>
      <point x="116" y="177" type="line"/>
      <point x="116" y="177"/>
      <point x="209" y="177"/>
      <point x="213" y="177" type="curve" smooth="yes"/>
      <point x="311" y="177"/>
      <point x="417" y="214"/>
      <point x="452" y="410" type="curve" smooth="yes"/>
      <point x="483" y="589"/>
      <point x="389" y="635"/>
    </contour>
    <contour>
      <point x="133" y="273" type="curve"/>
      <point x="179" y="535" type="line"/>
      <point x="239" y="535" type="line" smooth="yes"/>
      <point x="332" y="535"/>
      <point x="372" y="524"/>
      <point x="352" y="410" type="curve" smooth="yes"/>
      <point x="330" y="288"/>
      <point x="287" y="273"/>
      <point x="193" y="273" type="curve" smooth="yes"/>
      <point x="188" y="273"/>
      <point x="133" y="273"/>
    </contour>
  </outline>
</glyph>
<glyph name="Q" format="1">
  <advance width="437"/>
  <unicode hex="0051"/>
  <outline>
    <contour>
      <point x="56" y="460" type="curve" smooth="yes"/>
      <point x="4" y="168" type="line" smooth="yes"/>
      <point x="-17" y="51"/>
      <point x="57" y="-10"/>
      <point x="165" y="-10" type="curve" smooth="yes"/>
      <point x="279" y="-10"/>
      <point x="367" y="57"/>
      <point x="386" y="168" type="curve" smooth="yes"/>
      <point x="437" y="459" type="line" smooth="yes"/>
      <point x="458" y="578"/>
      <point x="402" y="650"/>
      <point x="282" y="650" type="curve" smooth="yes"/>
      <point x="162" y="650"/>
      <point x="77" y="584"/>
    </contour>
    <contour>
      <point x="104" y="167" type="curve" smooth="yes"/>
      <point x="150" y="427" type="line" smooth="yes"/>
      <point x="164" y="506"/>
      <point x="198" y="544"/>
      <point x="261" y="544" type="curve" smooth="yes"/>
      <point x="331" y="544"/>
      <point x="345" y="504"/>
      <point x="332" y="426" type="curve" smooth="yes"/>
      <point x="286" y="169" type="line" smooth="yes"/>
      <point x="276" y="112"/>
      <point x="252" y="74"/>
      <point x="179" y="74" type="curve" smooth="yes"/>
      <point x="98" y="74"/>
      <point x="97" y="127"/>
    </contour>
    <contour>
      <point x="225" y="45" type="curve" smooth="yes"/>
      <point x="232" y="85"/>
      <point x="238" y="121"/>
      <point x="245" y="157" type="curve"/>
      <point x="142" y="157" type="line"/>
      <point x="133" y="112"/>
      <point x="127" y="70"/>
      <point x="119" y="28" type="curve" smooth="yes"/>
      <point x="107" y="-45"/>
      <point x="130" y="-106"/>
      <point x="278" y="-106" type="curve"/>
      <point x="306" y="-20" type="line"/>
      <point x="220" y="-20"/>
      <point x="218" y="5"/>
    </contour>
  </outline>
</glyph>
<glyph name="R" format="1">
  <advance width="459"/>
  <unicode hex="0052"/>
  <outline>
    <contour>
      <point x="293" y="635" type="curve" smooth="yes"/>
      <point x="96" y="635" type="line"/>
      <point x="-15" y="0" type="line"/>
      <point x="85" y="0" type="line"/>
      <point x="116" y="177" type="line"/>
      <point x="213" y="177" type="line" smooth="yes"/>
      <point x="224" y="177"/>
      <point x="235" y="177"/>
      <point x="246" y="178" type="curve"/>
      <point x="279" y="0" type="line"/>
      <point x="380" y="0" type="line"/>
      <point x="344" y="211" type="line"/>
      <point x="392" y="243"/>
      <point x="433" y="303"/>
      <point x="452" y="410" type="curve" smooth="yes"/>
      <point x="483" y="589"/>
      <point x="389" y="635"/>
    </contour>
    <contour>
      <point x="193" y="273" type="curve" smooth="yes"/>
      <point x="133" y="273" type="line"/>
      <point x="179" y="535" type="line"/>
      <point x="239" y="535" type="line" smooth="yes"/>
      <point x="332" y="535"/>
      <point x="372" y="524"/>
      <point x="352" y="410" type="curve" smooth="yes"/>
      <point x="330" y="288"/>
      <point x="287" y="273"/>
    </contour>
  </outline>
</glyph>
<glyph name="S" format="1">
  <advance width="453"/>
  <unicode hex="0053"/>
  <outline>
    <contour>
      <point x="410" y="522" type="curve"/>
      <point x="455" y="610" type="line"/>
      <point x="417" y="632"/>
      <point x="366" y="644"/>
      <point x="315" y="644" type="curve" smooth="yes"/>
      <point x="262" y="644"/>
      <point x="209" y="634"/>
      <point x="163" y="606" type="curve" smooth="yes"/>
      <point x="114" y="577"/>
      <point x="88" y="533"/>
      <point x="81" y="488" type="curve" smooth="yes"/>
      <point x="63" y="389"/>
      <point x="137" y="352"/>
      <point x="207" y="315" type="curve" smooth="yes"/>
      <point x="226" y="306"/>
      <point x="246" y="296"/>
      <point x="263" y="285" type="curve" smooth="yes"/>
      <point x="304" y="260"/>
      <point x="335" y="229"/>
      <point x="326" y="180" type="curve" smooth="yes"/>
      <point x="321" y="152"/>
      <point x="304" y="125"/>
      <point x="280" y="110" type="curve" smooth="yes"/>
      <point x="255" y="93"/>
      <point x="222" y="87"/>
      <point x="195" y="87" type="curve" smooth="yes"/>
      <point x="177" y="87"/>
      <point x="144" y="90"/>
      <point x="114" y="111" type="curve" smooth="yes"/>
      <point x="97" y="123"/>
      <point x="82" y="141"/>
      <point x="71" y="166" type="curve"/>
      <point x="-15" y="115" type="line"/>
      <point x="5" y="74"/>
      <point x="22" y="50"/>
      <point x="49" y="28" type="curve" smooth="yes"/>
      <point x="86" y="-2"/>
      <point x="134" y="-11"/>
      <point x="176" y="-11" type="curve" smooth="yes"/>
      <point x="229" y="-11"/>
      <point x="285" y="-1"/>
      <point x="332" y="26" type="curve" smooth="yes"/>
      <point x="395" y="63"/>
      <point x="428" y="124"/>
      <point x="438" y="181" type="curve" smooth="yes"/>
      <point x="454" y="270"/>
      <point x="403" y="327"/>
      <point x="342" y="367" type="curve" smooth="yes"/>
      <point x="318" y="384"/>
      <point x="293" y="397"/>
      <point x="269" y="408" type="curve" smooth="yes"/>
      <point x="221" y="432"/>
      <point x="186" y="451"/>
      <point x="192" y="488" type="curve" smooth="yes"/>
      <point x="195" y="508"/>
      <point x="207" y="523"/>
      <point x="222" y="533" type="curve" smooth="yes"/>
      <point x="239" y="544"/>
      <point x="266" y="551"/>
      <point x="297" y="551" type="curve" smooth="yes"/>
      <point x="330" y="551"/>
      <point x="369" y="543"/>
    </contour>
  </outline>
</glyph>
<glyph name="T" format="1">
  <advance width="340"/>
  <unicode hex="0054"/>
  <outline>
    <contour>
      <point x="383" y="635" type="line"/>
      <point x="17" y="635" type="line"/>
      <point x="0" y="534" type="line"/>
      <point x="131" y="534" type="line"/>
      <point x="37" y="0" type="line"/>
      <point x="137" y="0" type="line"/>
      <point x="231" y="534" type="line"/>
      <point x="366" y="534" type="line"/>
    </contour>
  </outline>
</glyph>
<glyph name="V" format="1">
  <advance width="408"/>
  <unicode hex="0056"/>
  <outline>
    <contour>
      <point x="176" y="0" type="line"/>
      <point x="446" y="635" type="line"/>
      <point x="330" y="635" type="line"/>
      <point x="151" y="196" type="line"/>
      <point x="124" y="635" type="line"/>
      <point x="11" y="635" type="line"/>
      <point x="59" y="0" type="line"/>
    </contour>
  </outline>
</glyph>
<glyph name="W" format="1">
  <advance width="613"/>
  <unicode hex="0057"/>
  <outline>
    <contour>
      <point x="129" y="229" type="line"/>
      <point x="125" y="635" type="line"/>
      <point x="15" y="635" type="line"/>
      <point x="26" y="0" type="line"/>
      <point x="142" y="0" type="line"/>
      <point x="277" y="321" type="line"/>
      <point x="302" y="0" type="line"/>
      <point x="415" y="0" type="line"/>
      <point x="648" y="635" type="line"/>
      <point x="533" y="635" type="line"/>
      <point x="394" y="229" type="line"/>
      <point x="368" y="635" type="line"/>
      <point x="297" y="635" type="line"/>
    </contour>
  </outline>
</glyph>
<glyph name="Y" format="1">
  <advance width="438"/>
  <unicode hex="0059"/>
  <outline>
    <contour>
      <point x="374" y="142" type="curve" smooth="yes"/>
      <point x="460" y="635" type="line"/>
      <point x="360" y="635" type="line"/>
      <point x="313" y="368" type="line" smooth="yes"/>
      <point x="309" y="341"/>
      <point x="292" y="315"/>
      <point x="271" y="298" type="curve" smooth="yes"/>
      <point x="250" y="282"/>
      <point x="227" y="273"/>
      <point x="202" y="273" type="curve" smooth="yes"/>
      <point x="169" y="273"/>
      <point x="142" y="281"/>
      <point x="128" y="297" type="curve" smooth="yes"/>
      <point x="110" y="316"/>
      <point x="105" y="345"/>
      <point x="112" y="384" type="curve" smooth="yes"/>
      <point x="156" y="635" type="line"/>
      <point x="56" y="635" type="line"/>
      <point x="11" y="375" type="line" smooth="yes"/>
      <point x="0" y="314"/>
      <point x="10" y="266"/>
      <point x="42" y="231" type="curve" smooth="yes"/>
      <point x="77" y="191"/>
      <point x="125" y="180"/>
      <point x="178" y="180" type="curve" smooth="yes"/>
      <point x="240" y="183"/>
      <point x="286" y="215"/>
      <point x="286" y="215" type="curve"/>
      <point x="275" y="149" type="line" smooth="yes"/>
      <point x="263" y="85"/>
      <point x="231" y="64"/>
      <point x="190" y="59" type="curve"/>
      <point x="209" y="-17" type="line"/>
      <point x="309" y="-7"/>
      <point x="357" y="46"/>
    </contour>
  </outline>
</glyph>
<glyph name="bracketleft" format="1">
  <advance width="316"/>
  <unicode hex="005B"/>
  <outline>
    <contour>
      <point x="306" y="742" type="line"/>
      <point x="160" y="742" type="line"/>
      <point x="11" y="-104" type="line"/>
      <point x="157" y="-104" type="line"/>
      <point x="174" y="-8" type="line"/>
      <point x="130" y="1" type="line"/>
      <point x="242" y="637" type="line"/>
      <point x="289" y="646" type="line"/>
    </contour>
  </outline>
</glyph>
<glyph name="bracketright" format="1">
  <advance width="315"/>
  <unicode hex="005D"/>
  <outline>
    <contour>
      <point x="305" y="742" type="line"/>
      <point x="159" y="742" type="line"/>
      <point x="142" y="646" type="line"/>
      <point x="187" y="637" type="line"/>
      <point x="75" y="1" type="line"/>
      <point x="27" y="-8" type="line"/>
      <point x="11" y="-104" type="line"/>
      <point x="156" y="-104" type="line"/>
    </contour>
  </outline>
</glyph>
<glyph name="asciicircum" format="1">
  <advance width="345"/>
  <unicode hex="005E"/>
  <outline>
    <contour>
      <point x="442" y="702" type="line"/>
      <point x="346" y="816" type="line"/>
      <point x="206" y="701" type="line"/>
      <point x="245" y="653" type="line"/>
      <point x="331" y="728" type="line"/>
      <point x="385" y="654" type="line"/>
    </contour>
  </outline>
</glyph>
<glyph name="underscore" format="1">
  <advance width="330"/>
  <unicode hex="005F"/>
  <outline>
    <contour>
      <point x="314" y="0" type="line"/>
      <point x="24" y="0" type="line"/>
      <point x="11" y="-70" type="line"/>
      <point x="301" y="-70" type="line"/>
    </contour>
  </outline>
</glyph>
<glyph name="grave" format="1">
  <advance width="215"/>
  <unicode hex="0060"/>
  <outline>
    <contour>
      <point x="233" y="640" type="line"/>
      <point x="228" y="664"/>
      <point x="205" y="681"/>
      <point x="178" y="667" type="curve" smooth="yes"/>
      <point x="150" y="653"/>
      <point x="148" y="620"/>
      <point x="161" y="603" type="curve"/>
      <point x="202" y="534" type="line"/>
      <point x="242" y="534" type="line"/>
    </contour>
  </outline>
</glyph>
<glyph name="b" format="1">
  <advance width="395"/>
  <unicode hex="0062"/>
  <outline>
    <contour>
      <point x="162" y="438" type="curve"/>
      <point x="196" y="635" type="line"/>
      <point x="96" y="635" type="line"/>
      <point x="-15" y="0" type="line"/>
      <point x="38" y="-4"/>
      <point x="90" y="-10"/>
      <point x="143" y="-10" type="curve" smooth="yes"/>
      <point x="247" y="-10"/>
      <point x="333" y="23"/>
      <point x="358" y="141" type="curve"/>
      <point x="359" y="142"/>
      <point x="391" y="326"/>
      <point x="391" y="326" type="curve"/>
      <point x="407" y="419"/>
      <point x="348" y="462"/>
      <point x="280" y="462" type="curve" smooth="yes"/>
      <point x="239" y="462"/>
      <point x="204" y="455"/>
    </contour>
    <contour>
      <point x="99" y="85" type="curve"/>
      <point x="99" y="85"/>
      <point x="144" y="336"/>
      <point x="144" y="336" type="curve"/>
      <point x="155" y="343"/>
      <point x="192" y="358"/>
      <point x="234" y="358" type="curve" smooth="yes"/>
      <point x="262" y="358"/>
      <point x="295" y="347"/>
      <point x="289" y="314" type="curve" smooth="yes"/>
      <point x="286" y="295"/>
      <point x="264" y="175"/>
      <point x="261" y="158" type="curve" smooth="yes"/>
      <point x="253" y="112"/>
      <point x="236" y="83"/>
      <point x="153" y="83" type="curve" smooth="yes"/>
      <point x="138" y="83"/>
      <point x="99" y="85"/>
    </contour>
  </outline>
</glyph>
<glyph name="c" format="1">
  <advance width="324"/>
  <unicode hex="0063"/>
  <outline>
    <contour>
      <point x="300" y="356" type="curve"/>
      <point x="337" y="434" type="line"/>
      <point x="288" y="457"/>
      <point x="233" y="471"/>
      <point x="175" y="459" type="curve" smooth="yes"/>
      <point x="133" y="450"/>
      <point x="94" y="428"/>
      <point x="63" y="388" type="curve" smooth="yes"/>
      <point x="41" y="359"/>
      <point x="30" y="330"/>
      <point x="21" y="290" type="curve" smooth="yes"/>
      <point x="-3" y="157" type="line" smooth="yes"/>
      <point x="-19" y="68"/>
      <point x="13" y="21"/>
      <point x="72" y="1" type="curve" smooth="yes"/>
      <point x="131" y="-18"/>
      <point x="201" y="-11"/>
      <point x="263" y="5" type="curve"/>
      <point x="258" y="85" type="line"/>
      <point x="258" y="85"/>
      <point x="216" y="76"/>
      <point x="176" y="76" type="curve" smooth="yes"/>
      <point x="120" y="76"/>
      <point x="87" y="103"/>
      <point x="96" y="158" type="curve" smooth="yes"/>
      <point x="122" y="301" type="line" smooth="yes"/>
      <point x="125" y="319"/>
      <point x="132" y="334"/>
      <point x="141" y="345" type="curve" smooth="yes"/>
      <point x="155" y="362"/>
      <point x="176" y="372"/>
      <point x="198" y="375" type="curve"/>
      <point x="234" y="382"/>
      <point x="271" y="371"/>
    </contour>
  </outline>
</glyph>
<glyph name="d" format="1">
  <advance width="412"/>
  <unicode hex="0064"/>
  <outline>
    <contour>
      <point x="322" y="0" type="curve"/>
      <point x="433" y="635" type="line"/>
      <point x="333" y="635" type="line"/>
      <point x="299" y="438" type="line"/>
      <point x="263" y="455"/>
      <point x="230" y="462"/>
      <point x="188" y="462" type="curve" smooth="yes"/>
      <point x="121" y="462"/>
      <point x="45" y="419"/>
      <point x="29" y="326" type="curve"/>
      <point x="29" y="326"/>
      <point x="-3" y="142"/>
      <point x="-4" y="141" type="curve"/>
      <point x="-19" y="23"/>
      <point x="56" y="-10"/>
      <point x="159" y="-10" type="curve" smooth="yes"/>
      <point x="218" y="-10"/>
      <point x="271" y="-7"/>
    </contour>
    <contour>
      <point x="281" y="336" type="curve"/>
      <point x="281" y="336"/>
      <point x="236" y="85"/>
      <point x="236" y="85" type="curve"/>
      <point x="236" y="85"/>
      <point x="196" y="83"/>
      <point x="181" y="83" type="curve" smooth="yes"/>
      <point x="99" y="83"/>
      <point x="92" y="112"/>
      <point x="100" y="158" type="curve" smooth="yes"/>
      <point x="103" y="175"/>
      <point x="125" y="295"/>
      <point x="128" y="314" type="curve" smooth="yes"/>
      <point x="134" y="347"/>
      <point x="171" y="358"/>
      <point x="199" y="358" type="curve" smooth="yes"/>
      <point x="241" y="358"/>
      <point x="271" y="343"/>
    </contour>
  </outline>
</glyph>
<glyph name="e" format="1">
  <advance width="354"/>
  <unicode hex="0065"/>
  <outline>
    <contour>
      <point x="95" y="135" type="curve" smooth="yes"/>
      <point x="99" y="157" type="line"/>
      <point x="327" y="169" type="line"/>
      <point x="352" y="311" type="line" smooth="yes"/>
      <point x="362" y="365"/>
      <point x="349" y="408"/>
      <point x="319" y="434" type="curve" smooth="yes"/>
      <point x="295" y="453"/>
      <point x="262" y="463"/>
      <point x="219" y="463" type="curve" smooth="yes"/>
      <point x="173" y="463"/>
      <point x="132" y="451"/>
      <point x="100" y="429" type="curve" smooth="yes"/>
      <point x="61" y="402"/>
      <point x="34" y="361"/>
      <point x="25" y="308" type="curve" smooth="yes"/>
      <point x="-8" y="122" type="line" smooth="yes"/>
      <point x="-17" y="73"/>
      <point x="-5" y="39"/>
      <point x="19" y="18" type="curve" smooth="yes"/>
      <point x="43" y="-3"/>
      <point x="78" y="-12"/>
      <point x="118" y="-12" type="curve" smooth="yes"/>
      <point x="172" y="-12"/>
      <point x="233" y="5"/>
      <point x="280" y="32" type="curve"/>
      <point x="259" y="118" type="line"/>
      <point x="217" y="98"/>
      <point x="170" y="82"/>
      <point x="137" y="82" type="curve" smooth="yes"/>
      <point x="120" y="82"/>
      <point x="109" y="86"/>
      <point x="101" y="96" type="curve" smooth="yes"/>
      <point x="94" y="105"/>
      <point x="92" y="117"/>
    </contour>
    <contour>
      <point x="247" y="284" type="curve"/>
      <point x="245" y="277"/>
      <point x="243" y="263"/>
      <point x="242" y="257" type="curve"/>
      <point x="115" y="249" type="line"/>
      <point x="117" y="258"/>
      <point x="120" y="276"/>
      <point x="122" y="285" type="curve" smooth="yes"/>
      <point x="127" y="314"/>
      <point x="131" y="334"/>
      <point x="150" y="350" type="curve"/>
      <point x="162" y="359"/>
      <point x="179" y="366"/>
      <point x="201" y="367" type="curve" smooth="yes"/>
      <point x="220" y="367"/>
      <point x="232" y="361"/>
      <point x="240" y="353" type="curve"/>
      <point x="254" y="337"/>
      <point x="252" y="316"/>
    </contour>
  </outline>
</glyph>
<glyph name="f" format="1">
  <advance width="256"/>
  <unicode hex="0066"/>
  <outline>
    <contour>
      <point x="255" y="551" type="curve"/>
      <point x="287" y="642" type="line"/>
      <point x="270" y="644"/>
      <point x="247" y="646"/>
      <point x="231" y="646" type="curve" smooth="yes"/>
      <point x="157" y="646"/>
      <point x="89" y="599"/>
      <point x="71" y="498" type="curve" smooth="yes"/>
      <point x="-16" y="0" type="line"/>
      <point x="87" y="0" type="line"/>
      <point x="150" y="360" type="line"/>
      <point x="207" y="360" type="line"/>
      <point x="246" y="454" type="line"/>
      <point x="167" y="454" type="line"/>
      <point x="176" y="505"/>
      <point x="176" y="506"/>
      <point x="176" y="507" type="curve"/>
      <point x="182" y="540"/>
      <point x="197" y="556"/>
      <point x="220" y="556" type="curve" smooth="yes"/>
      <point x="232" y="556"/>
      <point x="245" y="554"/>
    </contour>
  </outline>
</glyph>
<glyph name="g" format="1">
  <advance width="378"/>
  <unicode hex="0067"/>
  <outline>
    <contour>
      <point x="297" y="-58" type="curve" smooth="yes"/>
      <point x="388" y="454" type="line"/>
      <point x="288" y="454" type="line"/>
      <point x="284" y="434" type="line"/>
      <point x="259" y="453"/>
      <point x="230" y="463"/>
      <point x="196" y="463" type="curve" smooth="yes"/>
      <point x="103" y="463"/>
      <point x="43" y="405"/>
      <point x="27" y="314" type="curve" smooth="yes"/>
      <point x="0" y="160" type="line" smooth="yes"/>
      <point x="-20" y="48"/>
      <point x="23" y="-11"/>
      <point x="124" y="-11" type="curve" smooth="yes"/>
      <point x="154" y="-11"/>
      <point x="186" y="-3"/>
      <point x="209" y="11" type="curve"/>
      <point x="199" y="-48" type="line" smooth="yes"/>
      <point x="191" y="-96"/>
      <point x="152" y="-113"/>
      <point x="122" y="-113" type="curve"/>
      <point x="132" y="-191" type="line"/>
      <point x="219" y="-191"/>
      <point x="280" y="-154"/>
    </contour>
    <contour>
      <point x="269" y="351" type="curve"/>
      <point x="230" y="126" type="line" smooth="yes"/>
      <point x="226" y="105"/>
      <point x="198" y="84"/>
      <point x="148" y="80" type="curve"/>
      <point x="106" y="80"/>
      <point x="91" y="109"/>
      <point x="97" y="145" type="curve" smooth="yes"/>
      <point x="125" y="306" type="line" smooth="yes"/>
      <point x="134" y="357"/>
      <point x="169" y="373"/>
      <point x="204" y="373" type="curve" smooth="yes"/>
      <point x="235" y="373"/>
      <point x="269" y="351"/>
    </contour>
  </outline>
</glyph>
<glyph name="h" format="1">
  <advance width="384"/>
  <unicode hex="0068"/>
  <outline>
    <contour>
      <point x="160" y="433" type="curve"/>
      <point x="195" y="635" type="line"/>
      <point x="96" y="635" type="line"/>
      <point x="-15" y="0" type="line"/>
      <point x="84" y="0" type="line"/>
      <point x="145" y="351" type="line"/>
      <point x="177" y="365"/>
      <point x="201" y="372"/>
      <point x="222" y="372" type="curve" smooth="yes"/>
      <point x="260" y="372"/>
      <point x="283" y="346"/>
      <point x="277" y="312" type="curve" smooth="yes"/>
      <point x="222" y="0" type="line"/>
      <point x="321" y="0" type="line"/>
      <point x="376" y="314" type="line" smooth="yes"/>
      <point x="396" y="430"/>
      <point x="328" y="463"/>
      <point x="256" y="463" type="curve" smooth="yes"/>
      <point x="219" y="463"/>
      <point x="178" y="444"/>
    </contour>
  </outline>
</glyph>
<glyph name="i" format="1">
  <advance width="177"/>
  <unicode hex="0069"/>
  <outline>
    <contour>
      <point x="165" y="454" type="line"/>
      <point x="65" y="454" type="line"/>
      <point x="-15" y="0" type="line"/>
      <point x="85" y="0" type="line"/>
    </contour>
    <contour>
      <point x="148" y="644" type="curve" smooth="yes"/>
      <point x="118" y="644"/>
      <point x="90" y="621"/>
      <point x="85" y="591" type="curve" smooth="yes"/>
      <point x="79" y="561"/>
      <point x="99" y="536"/>
      <point x="129" y="536" type="curve" smooth="yes"/>
      <point x="159" y="536"/>
      <point x="187" y="561"/>
      <point x="193" y="591" type="curve" smooth="yes"/>
      <point x="198" y="621"/>
      <point x="178" y="644"/>
    </contour>
  </outline>
</glyph>
<glyph name="j" format="1">
  <advance width="245"/>
  <unicode hex="006A"/>
  <outline>
    <contour>
      <point x="142" y="-55" type="curve" smooth="yes"/>
      <point x="232" y="454" type="line"/>
      <point x="66" y="454" type="line"/>
      <point x="51" y="373" type="line"/>
      <point x="116" y="364" type="line"/>
      <point x="44" y="-45" type="line" smooth="yes"/>
      <point x="40" y="-67"/>
      <point x="29" y="-83"/>
      <point x="16" y="-93" type="curve"/>
      <point x="2" y="-105"/>
      <point x="-12" y="-109"/>
      <point x="-33" y="-114" type="curve"/>
      <point x="-21" y="-195" type="line"/>
      <point x="6" y="-195"/>
      <point x="50" y="-184"/>
      <point x="80" y="-161" type="curve" smooth="yes"/>
      <point x="110" y="-137"/>
      <point x="133" y="-105"/>
    </contour>
    <contour>
      <point x="262" y="590" type="curve" smooth="yes"/>
      <point x="267" y="620"/>
      <point x="246" y="644"/>
      <point x="216" y="644" type="curve" smooth="yes"/>
      <point x="186" y="644"/>
      <point x="158" y="620"/>
      <point x="153" y="590" type="curve" smooth="yes"/>
      <point x="147" y="561"/>
      <point x="167" y="536"/>
      <point x="197" y="536" type="curve" smooth="yes"/>
      <point x="227" y="536"/>
      <point x="256" y="561"/>
    </contour>
  </outline>
</glyph>
<glyph name="k" format="1">
  <advance width="372"/>
  <unicode hex="006B"/>
  <outline>
    <contour>
      <point x="228" y="302" type="curve"/>
      <point x="365" y="403" type="line"/>
      <point x="304" y="472" type="line"/>
      <point x="146" y="347" type="line"/>
      <point x="196" y="635" type="line"/>
      <point x="96" y="635" type="line"/>
      <point x="-15" y="0" type="line"/>
      <point x="85" y="0" type="line"/>
      <point x="123" y="218" type="line"/>
      <point x="138" y="231" type="line"/>
      <point x="234" y="0" type="line"/>
      <point x="360" y="0" type="line"/>
      <point x="334" y="55"/>
      <point x="290" y="155"/>
    </contour>
  </outline>
</glyph>
<glyph name="l" format="1">
  <advance width="175"/>
  <unicode hex="006C"/>
  <outline>
    <contour>
      <point x="196" y="635" type="line"/>
      <point x="96" y="635" type="line"/>
      <point x="-15" y="0" type="line"/>
      <point x="85" y="0" type="line"/>
    </contour>
  </outline>
</glyph>
<glyph name="m" format="1">
  <advance width="632"/>
  <unicode hex="006D"/>
  <outline>
    <contour>
      <point x="522" y="310" type="curve" smooth="yes"/>
      <point x="468" y="0" type="line"/>
      <point x="568" y="0" type="line"/>
      <point x="623" y="313" type="line" smooth="yes"/>
      <point x="643" y="429"/>
      <point x="568" y="461"/>
      <point x="496" y="461" type="curve" smooth="yes"/>
      <point x="465" y="461"/>
      <point x="407" y="444"/>
      <point x="363" y="417" type="curve"/>
      <point x="339" y="450"/>
      <point x="297" y="461"/>
      <point x="254" y="461" type="curve" smooth="yes"/>
      <point x="217" y="461"/>
      <point x="175" y="442"/>
      <point x="159" y="432" type="curve"/>
      <point x="163" y="454" type="line"/>
      <point x="63" y="454" type="line"/>
      <point x="-17" y="0" type="line"/>
      <point x="83" y="0" type="line"/>
      <point x="144" y="349" type="line"/>
      <point x="175" y="364"/>
      <point x="200" y="371"/>
      <point x="221" y="371" type="curve" smooth="yes"/>
      <point x="259" y="371"/>
      <point x="285" y="345"/>
      <point x="279" y="310" type="curve" smooth="yes"/>
      <point x="225" y="0" type="line"/>
      <point x="325" y="0" type="line"/>
      <point x="380" y="313" type="line" smooth="yes"/>
      <point x="382" y="326"/>
      <point x="383" y="338"/>
      <point x="383" y="349" type="curve"/>
      <point x="414" y="364"/>
      <point x="445" y="371"/>
      <point x="462" y="371" type="curve" smooth="yes"/>
      <point x="500" y="371"/>
      <point x="529" y="346"/>
    </contour>
  </outline>
</glyph>
<glyph name="n" format="1">
  <advance width="383"/>
  <unicode hex="006E"/>
  <outline>
    <contour>
      <point x="274" y="311" type="curve" smooth="yes"/>
      <point x="219" y="-1" type="line"/>
      <point x="318" y="-1" type="line"/>
      <point x="374" y="314" type="line" smooth="yes"/>
      <point x="394" y="430"/>
      <point x="326" y="462"/>
      <point x="254" y="462" type="curve" smooth="yes"/>
      <point x="217" y="462"/>
      <point x="176" y="443"/>
      <point x="158" y="433" type="curve"/>
      <point x="162" y="454" type="line"/>
      <point x="63" y="454" type="line"/>
      <point x="-18" y="-1" type="line"/>
      <point x="81" y="-1" type="line"/>
      <point x="143" y="350" type="line"/>
      <point x="175" y="365"/>
      <point x="199" y="372"/>
      <point x="220" y="372" type="curve" smooth="yes"/>
      <point x="258" y="372"/>
      <point x="280" y="345"/>
    </contour>
  </outline>
</glyph>
<glyph name="o" format="1">
  <advance width="363"/>
  <unicode hex="006F"/>
  <outline>
    <contour>
      <point x="333" y="167" type="curve" smooth="yes"/>
      <point x="354" y="287" type="line" smooth="yes"/>
      <point x="374" y="397"/>
      <point x="325" y="464"/>
      <point x="220" y="464" type="curve" smooth="yes"/>
      <point x="110" y="464"/>
      <point x="40" y="403"/>
      <point x="19" y="287" type="curve" smooth="yes"/>
      <point x="-2" y="167" type="line" smooth="yes"/>
      <point x="-18" y="75"/>
      <point x="17" y="-9"/>
      <point x="137" y="-9" type="curve" smooth="yes"/>
      <point x="250" y="-9"/>
      <point x="315" y="65"/>
    </contour>
    <contour>
      <point x="253" y="293" type="curve" smooth="yes"/>
      <point x="230" y="160" type="line" smooth="yes"/>
      <point x="222" y="119"/>
      <point x="198" y="89"/>
      <point x="153" y="89" type="curve" smooth="yes"/>
      <point x="105" y="89"/>
      <point x="91" y="123"/>
      <point x="98" y="160" type="curve" smooth="yes"/>
      <point x="121" y="293" type="line" smooth="yes"/>
      <point x="129" y="339"/>
      <point x="158" y="364"/>
      <point x="202" y="364" type="curve" smooth="yes"/>
      <point x="245" y="364"/>
      <point x="261" y="336"/>
    </contour>
  </outline>
</glyph>
<glyph name="p" format="1">
  <advance width="397"/>
  <unicode hex="0070"/>
  <outline>
    <contour>
      <point x="365" y="160" type="curve" smooth="yes"/>
      <point x="392" y="314" type="line" smooth="yes"/>
      <point x="408" y="405"/>
      <point x="367" y="463"/>
      <point x="275" y="463" type="curve" smooth="yes"/>
      <point x="239" y="463"/>
      <point x="191" y="445"/>
      <point x="177" y="434" type="curve"/>
      <point x="181" y="454" type="line"/>
      <point x="81" y="454" type="line"/>
      <point x="-30" y="-181" type="line"/>
      <point x="66" y="-194" type="line"/>
      <point x="102" y="11" type="line"/>
      <point x="121" y="-3"/>
      <point x="151" y="-11"/>
      <point x="181" y="-11" type="curve" smooth="yes"/>
      <point x="282" y="-11"/>
      <point x="345" y="48"/>
    </contour>
    <contour>
      <point x="290" y="306" type="curve" smooth="yes"/>
      <point x="262" y="145" type="line" smooth="yes"/>
      <point x="255" y="105"/>
      <point x="230" y="80"/>
      <point x="192" y="80" type="curve" smooth="yes"/>
      <point x="162" y="80"/>
      <point x="117" y="94"/>
      <point x="123" y="126" type="curve" smooth="yes"/>
      <point x="162" y="351" type="line"/>
      <point x="162" y="351"/>
      <point x="204" y="373"/>
      <point x="235" y="373" type="curve" smooth="yes"/>
      <point x="270" y="373"/>
      <point x="299" y="357"/>
    </contour>
  </outline>
</glyph>
<glyph name="q" format="1">
  <advance width="378"/>
  <unicode hex="0071"/>
  <outline>
    <contour>
      <point x="210" y="12" type="curve"/>
      <point x="176" y="-180" type="line"/>
      <point x="273" y="-193" type="line"/>
      <point x="388" y="454" type="line"/>
      <point x="288" y="454" type="line"/>
      <point x="284" y="434" type="line"/>
      <point x="260" y="453"/>
      <point x="231" y="464"/>
      <point x="198" y="464" type="curve" smooth="yes"/>
      <point x="104" y="464"/>
      <point x="43" y="407"/>
      <point x="27" y="314" type="curve" smooth="yes"/>
      <point x="0" y="160" type="line" smooth="yes"/>
      <point x="-20" y="49"/>
      <point x="23" y="-10"/>
      <point x="124" y="-10" type="curve" smooth="yes"/>
      <point x="153" y="-10"/>
      <point x="185" y="-2"/>
    </contour>
    <contour>
      <point x="270" y="352" type="curve"/>
      <point x="230" y="127" type="line" smooth="yes"/>
      <point x="226" y="106"/>
      <point x="198" y="84"/>
      <point x="148" y="81" type="curve"/>
      <point x="104" y="81"/>
      <point x="91" y="111"/>
      <point x="97" y="146" type="curve" smooth="yes"/>
      <point x="126" y="307" type="line" smooth="yes"/>
      <point x="135" y="358"/>
      <point x="170" y="374"/>
      <point x="203" y="374" type="curve" smooth="yes"/>
      <point x="235" y="374"/>
      <point x="270" y="352"/>
    </contour>
  </outline>
</glyph>
<glyph name="r" format="1">
  <advance width="323"/>
  <unicode hex="0072"/>
  <outline>
    <contour>
      <point x="314" y="372" type="curve"/>
      <point x="343" y="454" type="line"/>
      <point x="325" y="461"/>
      <point x="301" y="467"/>
      <point x="273" y="467" type="curve" smooth="yes"/>
      <point x="234" y="467"/>
      <point x="193" y="455"/>
      <point x="159" y="435" type="curve"/>
      <point x="163" y="454" type="line"/>
      <point x="63" y="454" type="line"/>
      <point x="-17" y="0" type="line"/>
      <point x="83" y="0" type="line"/>
      <point x="145" y="353" type="line"/>
      <point x="186" y="370"/>
      <point x="226" y="378"/>
      <point x="267" y="378" type="curve" smooth="yes"/>
      <point x="300" y="378"/>
      <point x="314" y="372"/>
    </contour>
  </outline>
</glyph>
<glyph name="t" format="1">
  <advance width="231"/>
  <unicode hex="0074"/>
  <outline>
    <contour>
      <point x="102" y="120" type="curve" smooth="yes"/>
      <point x="144" y="362" type="line"/>
      <point x="209" y="362" type="line"/>
      <point x="247" y="454" type="line"/>
      <point x="161" y="454" type="line"/>
      <point x="192" y="635" type="line"/>
      <point x="90" y="635" type="line"/>
      <point x="0" y="120" type="line" smooth="yes"/>
      <point x="-16" y="34"/>
      <point x="24" y="-10"/>
      <point x="114" y="-12" type="curve"/>
      <point x="158" y="68" type="line"/>
      <point x="116" y="68"/>
      <point x="94" y="79"/>
    </contour>
  </outline>
</glyph>
<glyph name="u" format="1">
  <advance width="382"/>
  <unicode hex="0075"/>
  <outline>
    <contour>
      <point x="216" y="24" type="curve"/>
      <point x="212" y="0" type="line"/>
      <point x="312" y="0" type="line"/>
      <point x="392" y="455" type="line"/>
      <point x="292" y="455" type="line"/>
      <point x="240" y="159" type="line" smooth="yes"/>
      <point x="232" y="117"/>
      <point x="194" y="85"/>
      <point x="153" y="85" type="curve" smooth="yes"/>
      <point x="117" y="85"/>
      <point x="96" y="113"/>
      <point x="102" y="145" type="curve" smooth="yes"/>
      <point x="157" y="455" type="line"/>
      <point x="57" y="455" type="line"/>
      <point x="2" y="143" type="line" smooth="yes"/>
      <point x="-19" y="26"/>
      <point x="49" y="-6"/>
      <point x="120" y="-6" type="curve" smooth="yes"/>
      <point x="158" y="-6"/>
      <point x="201" y="11"/>
    </contour>
  </outline>
</glyph>
<glyph name="w" format="1">
  <advance width="600"/>
  <unicode hex="0077"/>
  <outline>
    <contour>
      <point x="145" y="176" type="line"/>
      <point x="111" y="454" type="line"/>
      <point x="2" y="454" type="line"/>
      <point x="68" y="0" type="line"/>
      <point x="166" y="0" type="line"/>
      <point x="274" y="243" type="line"/>
      <point x="297" y="0" type="line"/>
      <point x="393" y="0" type="line"/>
      <point x="620" y="454" type="line"/>
      <point x="513" y="454" type="line"/>
      <point x="389" y="176" type="line"/>
      <point x="362" y="454" type="line"/>
      <point x="267" y="454" type="line"/>
    </contour>
  </outline>
</glyph>
<glyph name="x" format="1">
  <advance width="451"/>
  <unicode hex="0078"/>
  <outline>
    <contour>
      <point x="58" y="454" type="line"/>
      <point x="159" y="225" type="line"/>
      <point x="-22" y="0" type="line"/>
      <point x="103" y="0" type="line"/>
      <point x="204" y="127" type="line"/>
      <point x="262" y="0" type="line"/>
      <point x="381" y="0" type="line"/>
      <point x="283" y="226" type="line"/>
      <point x="468" y="454" type="line"/>
      <point x="344" y="454" type="line"/>
      <point x="240" y="324" type="line"/>
      <point x="185" y="454" type="line"/>
    </contour>
  </outline>
</glyph>
<glyph name="y" format="1">
  <advance width="413"/>
  <unicode hex="0079"/>
  <outline>
    <contour>
      <point x="425" y="394" type="curve"/>
      <point x="406" y="464" type="line"/>
      <point x="324" y="464"/>
      <point x="284" y="407"/>
      <point x="275" y="356" type="curve" smooth="yes"/>
      <point x="241" y="160" type="line" smooth="yes"/>
      <point x="233" y="118"/>
      <point x="195" y="85"/>
      <point x="154" y="85" type="curve" smooth="yes"/>
      <point x="117" y="85"/>
      <point x="96" y="112"/>
      <point x="102" y="146" type="curve" smooth="yes"/>
      <point x="157" y="455" type="line"/>
      <point x="57" y="455" type="line"/>
      <point x="2" y="144" type="line" smooth="yes"/>
      <point x="-19" y="27"/>
      <point x="49" y="-5"/>
      <point x="121" y="-5" type="curve" smooth="yes"/>
      <point x="159" y="-5"/>
      <point x="203" y="12"/>
      <point x="217" y="25" type="curve"/>
      <point x="205" y="-44" type="line" smooth="yes"/>
      <point x="201" y="-65"/>
      <point x="192" y="-81"/>
      <point x="178" y="-92" type="curve" smooth="yes"/>
      <point x="163" y="-104"/>
      <point x="145" y="-113"/>
      <point x="129" y="-113" type="curve"/>
      <point x="141" y="-194" type="line"/>
      <point x="171" y="-194"/>
      <point x="213" y="-181"/>
      <point x="240" y="-163" type="curve" smooth="yes"/>
      <point x="273" y="-143"/>
      <point x="294" y="-105"/>
      <point x="303" y="-54" type="curve" smooth="yes"/>
      <point x="371" y="329" type="line" smooth="yes"/>
      <point x="376" y="359"/>
      <point x="388" y="386"/>
    </contour>
  </outline>
</glyph>
<glyph name="z" format="1">
  <advance width="375"/>
  <unicode hex="007A"/>
  <outline>
    <contour>
      <point x="51" y="361" type="line"/>
      <point x="233" y="361" type="line"/>
      <point x="-4" y="95" type="line"/>
      <point x="-20" y="0" type="line"/>
      <point x="314" y="0" type="line"/>
      <point x="330" y="95" type="line"/>
      <point x="130" y="95" type="line"/>
      <point x="369" y="364" type="line"/>
      <point x="385" y="454" type="line"/>
      <point x="68" y="454" type="line"/>
    </contour>
  </outline>
</glyph>
<glyph name="braceleft" format="1">
  <advance width="302"/>
  <unicode hex="007B"/>
  <outline>
    <contour>
      <point x="210" y="469" type="curve" smooth="yes"/>
      <point x="228" y="572" type="line" smooth="yes"/>
      <point x="240" y="640"/>
      <point x="267" y="659"/>
      <point x="292" y="672" type="curve"/>
      <point x="259" y="746" type="line"/>
      <point x="255" y="745"/>
      <point x="155" y="718"/>
      <point x="129" y="572" type="curve" smooth="yes"/>
      <point x="111" y="469" type="line" smooth="yes"/>
      <point x="102" y="417"/>
      <point x="88" y="372"/>
      <point x="22" y="327" type="curve" smooth="yes"/>
      <point x="12" y="320" type="line"/>
      <point x="20" y="314" type="line"/>
      <point x="70" y="269"/>
      <point x="68" y="223"/>
      <point x="59" y="172" type="curve" smooth="yes"/>
      <point x="41" y="69" type="line" smooth="yes"/>
      <point x="15" y="-76"/>
      <point x="104" y="-105"/>
      <point x="109" y="-106" type="curve"/>
      <point x="168" y="-31" type="line"/>
      <point x="147" y="-18"/>
      <point x="128" y="1"/>
      <point x="140" y="69" type="curve" smooth="yes"/>
      <point x="158" y="172" type="line" smooth="yes"/>
      <point x="167" y="224"/>
      <point x="172" y="274"/>
      <point x="124" y="320" type="curve"/>
      <point x="188" y="367"/>
      <point x="201" y="417"/>
    </contour>
  </outline>
</glyph>
<glyph name="bar" format="1">
  <advance width="270"/>
  <unicode hex="007C"/>
  <outline>
    <contour>
      <point x="260" y="742" type="line"/>
      <point x="160" y="742" type="line"/>
      <point x="11" y="-104" type="line"/>
      <point x="111" y="-104" type="line"/>
    </contour>
  </outline>
</glyph>
<glyph name="braceright" format="1">
  <advance width="301"/>
  <unicode hex="007D"/>
  <outline>
    <contour>
      <point x="194" y="746" type="curve"/>
      <point x="135" y="672" type="line"/>
      <point x="156" y="659"/>
      <point x="175" y="640"/>
      <point x="163" y="572" type="curve" smooth="yes"/>
      <point x="145" y="469" type="line" smooth="yes"/>
      <point x="136" y="417"/>
      <point x="131" y="367"/>
      <point x="179" y="320" type="curve"/>
      <point x="115" y="274"/>
      <point x="102" y="224"/>
      <point x="93" y="172" type="curve" smooth="yes"/>
      <point x="75" y="69" type="line" smooth="yes"/>
      <point x="63" y="1"/>
      <point x="36" y="-18"/>
      <point x="11" y="-31" type="curve"/>
      <point x="44" y="-106" type="line"/>
      <point x="49" y="-105"/>
      <point x="149" y="-76"/>
      <point x="175" y="69" type="curve" smooth="yes"/>
      <point x="193" y="172" type="line" smooth="yes"/>
      <point x="202" y="223"/>
      <point x="215" y="269"/>
      <point x="281" y="314" type="curve"/>
      <point x="291" y="320" type="line"/>
      <point x="282" y="327" type="line"/>
      <point x="233" y="372"/>
      <point x="236" y="417"/>
      <point x="245" y="469" type="curve" smooth="yes"/>
      <point x="263" y="572" type="line" smooth="yes"/>
      <point x="289" y="718"/>
      <point x="198" y="745"/>
    </contour>
  </outline>
</glyph>
<glyph name="asciitilde" format="1">
  <advance width="307"/>
  <unicode hex="007E"/>
  <outline>
    <contour>
      <point x="296" y="272" type="curve"/>
      <point x="275" y="323" type="line"/>
      <point x="250" y="306"/>
      <point x="231" y="301"/>
      <point x="214" y="301" type="curve" smooth="yes"/>
      <point x="176" y="301"/>
      <point x="147" y="327"/>
      <point x="105" y="327" type="curve" smooth="yes"/>
      <point x="71" y="327"/>
      <point x="40" y="310"/>
      <point x="12" y="290" type="curve"/>
      <point x="33" y="239" type="line"/>
      <point x="57" y="254"/>
      <point x="78" y="260"/>
      <point x="96" y="260" type="curve" smooth="yes"/>
      <point x="134" y="259"/>
      <point x="162" y="234"/>
      <point x="201" y="233" type="curve" smooth="yes"/>
      <point x="238" y="233"/>
      <point x="269" y="251"/>
    </contour>
  </outline>
</glyph>
<glyph name="exclamdown" format="1">
  <advance width="231"/>
  <unicode hex="00A1"/>
  <outline>
    <contour>
      <point x="121" y="62" type="curve" smooth="yes"/>
      <point x="185" y="535" type="line"/>
      <point x="116" y="535" type="line"/>
      <point x="16" y="63" type="line" smooth="yes"/>
      <point x="8" y="21"/>
      <point x="22" y="0"/>
      <point x="56" y="0" type="curve" smooth="yes"/>
      <point x="92" y="0"/>
      <point x="114" y="21"/>
    </contour>
    <contour>
      <point x="218" y="604" type="curve" smooth="yes"/>
      <point x="223" y="634"/>
      <point x="204" y="658"/>
      <point x="174" y="658" type="curve" smooth="yes"/>
      <point x="145" y="658"/>
      <point x="115" y="634"/>
      <point x="110" y="604" type="curve" smooth="yes"/>
      <point x="105" y="574"/>
      <point x="125" y="550"/>
      <point x="154" y="550" type="curve" smooth="yes"/>
      <point x="184" y="550"/>
      <point x="213" y="574"/>
    </contour>
  </outline>
</glyph>
<glyph name="cent" format="1">
  <advance width="371"/>
  <unicode hex="00A2"/>
  <outline>
    <contour>
      <point x="324" y="356" type="curve"/>
      <point x="361" y="434" type="line"/>
      <point x="312" y="457"/>
      <point x="257" y="471"/>
      <point x="200" y="459" type="curve" smooth="yes"/>
      <point x="158" y="450"/>
      <point x="118" y="428"/>
      <point x="88" y="388" type="curve" smooth="yes"/>
      <point x="65" y="359"/>
      <point x="54" y="330"/>
      <point x="45" y="290" type="curve" smooth="yes"/>
      <point x="21" y="157" type="line" smooth="yes"/>
      <point x="5" y="68"/>
      <point x="37" y="21"/>
      <point x="96" y="1" type="curve" smooth="yes"/>
      <point x="156" y="-18"/>
      <point x="226" y="-11"/>
      <point x="287" y="5" type="curve"/>
      <point x="283" y="85" type="line"/>
      <point x="283" y="85"/>
      <point x="240" y="76"/>
      <point x="200" y="76" type="curve" smooth="yes"/>
      <point x="145" y="76"/>
      <point x="111" y="103"/>
      <point x="120" y="158" type="curve" smooth="yes"/>
      <point x="146" y="301" type="line" smooth="yes"/>
      <point x="149" y="319"/>
      <point x="156" y="334"/>
      <point x="165" y="345" type="curve" smooth="yes"/>
      <point x="179" y="362"/>
      <point x="200" y="372"/>
      <point x="222" y="375" type="curve"/>
      <point x="258" y="382"/>
      <point x="296" y="371"/>
    </contour>
    <contour>
      <point x="336" y="566" type="line"/>
      <point x="240" y="566" type="line"/>
      <point x="122" y="-103" type="line"/>
      <point x="218" y="-103" type="line"/>
    </contour>
  </outline>
</glyph>
<glyph name="sterling" format="1">
  <advance width="425"/>
  <unicode hex="00A3"/>
  <outline>
    <contour>
      <point x="117" y="91" type="curve"/>
      <point x="27" y="91" type="line"/>
      <point x="11" y="0" type="line"/>
      <point x="338" y="0" type="line"/>
      <point x="354" y="91" type="line"/>
      <point x="260" y="91" type="line"/>
      <point x="268" y="98"/>
      <point x="276" y="105"/>
      <point x="284" y="114" type="curve" smooth="yes"/>
      <point x="327" y="165"/>
      <point x="329" y="229"/>
      <point x="318" y="283" type="curve"/>
      <point x="317" y="292"/>
      <point x="314" y="300"/>
      <point x="311" y="309" type="curve"/>
      <point x="392" y="309" type="line"/>
      <point x="409" y="403" type="line"/>
      <point x="269" y="403" type="line"/>
      <point x="261" y="413"/>
      <point x="255" y="423"/>
      <point x="251" y="433" type="curve"/>
      <point x="233" y="467"/>
      <point x="228" y="498"/>
      <point x="231" y="514" type="curve" smooth="yes"/>
      <point x="236" y="540"/>
      <point x="266" y="548"/>
      <point x="286" y="548" type="curve" smooth="yes"/>
      <point x="322" y="548"/>
      <point x="349" y="540"/>
      <point x="370" y="529" type="curve"/>
      <point x="415" y="611" type="line"/>
      <point x="389" y="632"/>
      <point x="340" y="644"/>
      <point x="308" y="644" type="curve" smooth="yes"/>
      <point x="225" y="644"/>
      <point x="143" y="601"/>
      <point x="125" y="517" type="curve" smooth="yes"/>
      <point x="119" y="484"/>
      <point x="125" y="452"/>
      <point x="137" y="421" type="curve"/>
      <point x="139" y="414"/>
      <point x="141" y="408"/>
      <point x="145" y="403" type="curve"/>
      <point x="82" y="403" type="line"/>
      <point x="65" y="309" type="line"/>
      <point x="189" y="309" type="line"/>
      <point x="191" y="303"/>
      <point x="194" y="298"/>
      <point x="196" y="294" type="curve" smooth="yes"/>
      <point x="221" y="239"/>
      <point x="231" y="172"/>
      <point x="178" y="119" type="curve" smooth="yes"/>
      <point x="160" y="102"/>
      <point x="136" y="94"/>
    </contour>
  </outline>
</glyph>
<glyph name="currency" format="1">
  <advance width="462"/>
  <unicode hex="00A4"/>
  <outline>
    <contour>
      <point x="359" y="317" type="curve"/>
      <point x="452" y="395" type="line"/>
      <point x="404" y="453" type="line"/>
      <point x="312" y="374" type="line"/>
      <point x="296" y="384"/>
      <point x="277" y="389"/>
      <point x="255" y="389" type="curve" smooth="yes"/>
      <point x="233" y="389"/>
      <point x="212" y="384"/>
      <point x="192" y="374" type="curve"/>
      <point x="128" y="453" type="line"/>
      <point x="60" y="395" type="line"/>
      <point x="124" y="316" type="line"/>
      <point x="112" y="299"/>
      <point x="104" y="278"/>
      <point x="100" y="257" type="curve" smooth="yes"/>
      <point x="96" y="235"/>
      <point x="97" y="215"/>
      <point x="103" y="197" type="curve"/>
      <point x="11" y="119" type="line"/>
      <point x="59" y="62" type="line"/>
      <point x="151" y="140" type="line"/>
      <point x="168" y="131"/>
      <point x="187" y="125"/>
      <point x="209" y="125" type="curve" smooth="yes"/>
      <point x="230" y="125"/>
      <point x="251" y="130"/>
      <point x="270" y="139" type="curve"/>
      <point x="335" y="62" type="line"/>
      <point x="403" y="119" type="line"/>
      <point x="338" y="197" type="line"/>
      <point x="351" y="215"/>
      <point x="360" y="235"/>
      <point x="364" y="257" type="curve" smooth="yes"/>
      <point x="368" y="279"/>
      <point x="366" y="299"/>
    </contour>
    <contour>
      <point x="224" y="210" type="curve" smooth="yes"/>
      <point x="198" y="210"/>
      <point x="180" y="231"/>
      <point x="185" y="257" type="curve" smooth="yes"/>
      <point x="190" y="284"/>
      <point x="214" y="304"/>
      <point x="240" y="304" type="curve" smooth="yes"/>
      <point x="267" y="304"/>
      <point x="284" y="284"/>
      <point x="279" y="257" type="curve" smooth="yes"/>
      <point x="274" y="231"/>
      <point x="251" y="210"/>
    </contour>
  </outline>
</glyph>
<glyph name="yen" format="1">
  <advance width="485"/>
  <unicode hex="00A5"/>
  <outline>
    <contour>
      <point x="122" y="136" type="line"/>
      <point x="27" y="136" type="line"/>
      <point x="11" y="41" type="line"/>
      <point x="106" y="41" type="line"/>
      <point x="99" y="0" type="line"/>
      <point x="200" y="0" type="line"/>
      <point x="207" y="41" type="line"/>
      <point x="302" y="41" type="line"/>
      <point x="318" y="136" type="line"/>
      <point x="223" y="136" type="line"/>
      <point x="231" y="180" type="line"/>
      <point x="326" y="180" type="line"/>
      <point x="343" y="274" type="line"/>
      <point x="248" y="274" type="line"/>
      <point x="250" y="286" type="line"/>
      <point x="475" y="635" type="line"/>
      <point x="369" y="635" type="line"/>
      <point x="218" y="394" type="line"/>
      <point x="152" y="635" type="line"/>
      <point x="46" y="635" type="line"/>
      <point x="149" y="286" type="line"/>
      <point x="147" y="274" type="line"/>
      <point x="52" y="274" type="line"/>
      <point x="35" y="180" type="line"/>
      <point x="130" y="180" type="line"/>
    </contour>
  </outline>
</glyph>
<glyph name="dieresis" format="1">
  <advance width="361"/>
  <unicode hex="00A8"/>
  <outline>
    <contour>
      <point x="149" y="697" type="curve" smooth="yes"/>
      <point x="119" y="697"/>
      <point x="91" y="673"/>
      <point x="86" y="644" type="curve" smooth="yes"/>
      <point x="81" y="614"/>
      <point x="100" y="589"/>
      <point x="130" y="589" type="curve" smooth="yes"/>
      <point x="160" y="589"/>
      <point x="189" y="614"/>
      <point x="194" y="644" type="curve" smooth="yes"/>
      <point x="199" y="673"/>
      <point x="179" y="697"/>
    </contour>
    <contour>
      <point x="293" y="697" type="curve" smooth="yes"/>
      <point x="263" y="697"/>
      <point x="234" y="673"/>
      <point x="229" y="644" type="curve" smooth="yes"/>
      <point x="224" y="614"/>
      <point x="244" y="589"/>
      <point x="274" y="589" type="curve" smooth="yes"/>
      <point x="304" y="589"/>
      <point x="333" y="614"/>
      <point x="338" y="644" type="curve" smooth="yes"/>
      <point x="343" y="673"/>
      <point x="323" y="697"/>
    </contour>
  </outline>
</glyph>
<glyph name="copyright" format="1">
  <advance width="730"/>
  <unicode hex="00A9"/>
  <outline>
    <contour>
      <point x="680" y="168" type="curve" smooth="yes"/>
      <point x="703" y="296" type="line" smooth="yes"/>
      <point x="732" y="464"/>
      <point x="611" y="547"/>
      <point x="421" y="548" type="curve" smooth="yes"/>
      <point x="230" y="547"/>
      <point x="79" y="464"/>
      <point x="50" y="296" type="curve" smooth="yes"/>
      <point x="27" y="168" type="line" smooth="yes"/>
      <point x="-2" y="0"/>
      <point x="119" y="-83"/>
      <point x="310" y="-85" type="curve" smooth="yes"/>
      <point x="500" y="-83"/>
      <point x="651" y="0"/>
    </contour>
    <contour>
      <point x="604" y="263" type="curve" smooth="yes"/>
      <point x="593" y="202" type="line" smooth="yes"/>
      <point x="565" y="40"/>
      <point x="492" y="8"/>
      <point x="326" y="6" type="curve" smooth="yes"/>
      <point x="159" y="8"/>
      <point x="98" y="40"/>
      <point x="126" y="202" type="curve" smooth="yes"/>
      <point x="137" y="263" type="line" smooth="yes"/>
      <point x="165" y="424"/>
      <point x="238" y="455"/>
      <point x="405" y="457" type="curve" smooth="yes"/>
      <point x="571" y="455"/>
      <point x="632" y="424"/>
    </contour>
    <contour>
      <point x="493" y="301" type="curve"/>
      <point x="533" y="383" type="line"/>
      <point x="499" y="401"/>
      <point x="456" y="413"/>
      <point x="411" y="414" type="curve" smooth="yes"/>
      <point x="366" y="414"/>
      <point x="319" y="402"/>
      <point x="281" y="373" type="curve" smooth="yes"/>
      <point x="242" y="344"/>
      <point x="212" y="297"/>
      <point x="199" y="226" type="curve" smooth="yes"/>
      <point x="188" y="164"/>
      <point x="201" y="120"/>
      <point x="230" y="91" type="curve" smooth="yes"/>
      <point x="257" y="64"/>
      <point x="297" y="51"/>
      <point x="347" y="51" type="curve" smooth="yes"/>
      <point x="394" y="51"/>
      <point x="448" y="63"/>
      <point x="502" y="83" type="curve"/>
      <point x="504" y="177" type="line"/>
      <point x="504" y="177"/>
      <point x="423" y="148"/>
      <point x="366" y="148" type="curve" smooth="yes"/>
      <point x="344" y="148"/>
      <point x="323" y="152"/>
      <point x="311" y="165" type="curve" smooth="yes"/>
      <point x="299" y="178"/>
      <point x="295" y="204"/>
      <point x="300" y="232" type="curve" smooth="yes"/>
      <point x="305" y="258"/>
      <point x="317" y="283"/>
      <point x="335" y="297" type="curve" smooth="yes"/>
      <point x="352" y="311"/>
      <point x="377" y="318"/>
      <point x="409" y="318" type="curve" smooth="yes"/>
      <point x="452" y="318"/>
      <point x="493" y="301"/>
    </contour>
  </outline>
</glyph>
<glyph name="ordfeminine" format="1">
  <advance width="255"/>
  <unicode hex="00AA"/>
  <outline>
    <contour>
      <point x="240" y="355" type="curve"/>
      <point x="240" y="354"/>
      <point x="266" y="504"/>
      <point x="266" y="504" type="curve"/>
      <point x="276" y="561"/>
      <point x="274" y="602"/>
      <point x="248" y="625" type="curve" smooth="yes"/>
      <point x="221" y="649"/>
      <point x="174" y="648"/>
      <point x="140" y="644" type="curve"/>
      <point x="121" y="588" type="line"/>
      <point x="137" y="590"/>
      <point x="150" y="591"/>
      <point x="160" y="591" type="curve" smooth="yes"/>
      <point x="202" y="591"/>
      <point x="199" y="576"/>
      <point x="195" y="554" type="curve"/>
      <point x="174" y="567"/>
      <point x="152" y="574"/>
      <point x="130" y="574" type="curve" smooth="yes"/>
      <point x="69" y="573"/>
      <point x="27" y="528"/>
      <point x="16" y="471" type="curve" smooth="yes"/>
      <point x="-2" y="369"/>
      <point x="48" y="344"/>
      <point x="128" y="344" type="curve" smooth="yes"/>
      <point x="159" y="344"/>
      <point x="199" y="349"/>
    </contour>
    <contour>
      <point x="183" y="485" type="curve"/>
      <point x="171" y="418" type="line"/>
      <point x="162" y="418"/>
      <point x="152" y="416"/>
      <point x="138" y="416" type="curve" smooth="yes"/>
      <point x="112" y="416"/>
      <point x="84" y="424"/>
      <point x="90" y="461" type="curve" smooth="yes"/>
      <point x="94" y="485"/>
      <point x="108" y="505"/>
      <point x="131" y="505" type="curve" smooth="yes"/>
      <point x="151" y="505"/>
      <point x="170" y="494"/>
    </contour>
  </outline>
</glyph>
<glyph name="registered" format="1">
  <advance width="730"/>
  <unicode hex="00AE"/>
  <outline>
    <contour>
      <point x="680" y="168" type="curve" smooth="yes"/>
      <point x="703" y="296" type="line" smooth="yes"/>
      <point x="732" y="464"/>
      <point x="611" y="547"/>
      <point x="420" y="548" type="curve" smooth="yes"/>
      <point x="229" y="547"/>
      <point x="79" y="464"/>
      <point x="50" y="296" type="curve" smooth="yes"/>
      <point x="27" y="168" type="line" smooth="yes"/>
      <point x="-2" y="0"/>
      <point x="118" y="-83"/>
      <point x="309" y="-85" type="curve" smooth="yes"/>
      <point x="500" y="-83"/>
      <point x="651" y="0"/>
    </contour>
    <contour>
      <point x="604" y="262" type="curve" smooth="yes"/>
      <point x="593" y="202" type="line" smooth="yes"/>
      <point x="565" y="40"/>
      <point x="491" y="8"/>
      <point x="325" y="6" type="curve" smooth="yes"/>
      <point x="159" y="8"/>
      <point x="98" y="40"/>
      <point x="126" y="202" type="curve" smooth="yes"/>
      <point x="137" y="262" type="line" smooth="yes"/>
      <point x="165" y="424"/>
      <point x="238" y="455"/>
      <point x="404" y="457" type="curve" smooth="yes"/>
      <point x="570" y="455"/>
      <point x="632" y="424"/>
    </contour>
    <contour>
      <point x="250" y="403" type="line"/>
      <point x="188" y="55" type="line"/>
      <point x="288" y="55" type="line"/>
      <point x="299" y="116" type="line"/>
      <point x="366" y="116" type="line"/>
      <point x="384" y="55" type="line"/>
      <point x="498" y="55" type="line"/>
      <point x="464" y="136" type="line"/>
      <point x="500" y="157"/>
      <point x="521" y="196"/>
      <point x="532" y="257" type="curve" smooth="yes"/>
      <point x="550" y="361"/>
      <point x="524" y="403"/>
      <point x="428" y="403" type="curve" smooth="yes"/>
    </contour>
    <contour>
      <point x="387" y="212" type="curve" smooth="yes"/>
      <point x="316" y="212" type="line"/>
      <point x="332" y="303" type="line"/>
      <point x="402" y="303" type="line" smooth="yes"/>
      <point x="422" y="303"/>
      <point x="440" y="300"/>
      <point x="433" y="257" type="curve" smooth="yes"/>
      <point x="425" y="215"/>
      <point x="407" y="212"/>
    </contour>
  </outline>
</glyph>
<glyph name="degree" format="1">
  <advance width="303"/>
  <unicode hex="00B0"/>
  <outline>
    <contour>
      <point x="285" y="513" type="curve" smooth="yes"/>
      <point x="298" y="586"/>
      <point x="249" y="645"/>
      <point x="175" y="645" type="curve" smooth="yes"/>
      <point x="102" y="645"/>
      <point x="33" y="586"/>
      <point x="20" y="513" type="curve" smooth="yes"/>
      <point x="7" y="440"/>
      <point x="56" y="381"/>
      <point x="129" y="381" type="curve" smooth="yes"/>
      <point x="203" y="381"/>
      <point x="272" y="440"/>
    </contour>
    <contour>
      <point x="160" y="561" type="curve" smooth="yes"/>
      <point x="186" y="561"/>
      <point x="205" y="539"/>
      <point x="200" y="513" type="curve" smooth="yes"/>
      <point x="195" y="487"/>
      <point x="169" y="465"/>
      <point x="143" y="465" type="curve" smooth="yes"/>
      <point x="117" y="465"/>
      <point x="100" y="487"/>
      <point x="105" y="513" type="curve" smooth="yes"/>
      <point x="110" y="539"/>
      <point x="134" y="561"/>
    </contour>
  </outline>
</glyph>
<glyph name="plusminus" format="1">
  <advance width="362"/>
  <unicode hex="00B1"/>
  <outline>
    <contour>
      <point x="123" y="224" type="line"/>
      <point x="27" y="224" type="line"/>
      <point x="11" y="133" type="line"/>
      <point x="302" y="133" type="line"/>
      <point x="318" y="224" type="line"/>
      <point x="224" y="224" type="line"/>
      <point x="240" y="317" type="line"/>
      <point x="335" y="317" type="line"/>
      <point x="352" y="413" type="line"/>
      <point x="257" y="413" type="line"/>
      <point x="275" y="513" type="line"/>
      <point x="174" y="513" type="line"/>
      <point x="156" y="413" type="line"/>
      <point x="61" y="413" type="line"/>
      <point x="44" y="317" type="line"/>
      <point x="139" y="317" type="line"/>
    </contour>
  </outline>
</glyph>
<glyph name="acute" format="1">
  <advance width="215"/>
  <unicode hex="00B4"/>
  <outline>
    <contour>
      <point x="245" y="610" type="line"/>
      <point x="266" y="630"/>
      <point x="271" y="661"/>
      <point x="250" y="674" type="curve" smooth="yes"/>
      <point x="229" y="688"/>
      <point x="197" y="671"/>
      <point x="187" y="647" type="curve" smooth="yes"/>
      <point x="140" y="542" type="line"/>
      <point x="180" y="542" type="line"/>
    </contour>
  </outline>
</glyph>
<glyph name="paragraph" format="1">
  <advance width="631"/>
  <unicode hex="00B6"/>
  <outline>
    <contour>
      <point x="286" y="177" type="line"/>
      <point x="255" y="1" type="line"/>
      <point x="355" y="1" type="line"/>
      <point x="450" y="540" type="line"/>
      <point x="503" y="538" type="line"/>
      <point x="409" y="1" type="line"/>
      <point x="509" y="1" type="line"/>
      <point x="621" y="636" type="line"/>
      <point x="270" y="636" type="line" smooth="yes"/>
      <point x="175" y="636"/>
      <point x="64" y="589"/>
      <point x="33" y="411" type="curve" smooth="yes"/>
      <point x="-2" y="215"/>
      <point x="92" y="177"/>
      <point x="189" y="177" type="curve" smooth="yes"/>
    </contour>
    <contour>
      <point x="289" y="536" type="curve" smooth="yes"/>
      <point x="349" y="536" type="line"/>
      <point x="303" y="273" type="line"/>
      <point x="243" y="273" type="line" smooth="yes"/>
      <point x="150" y="273"/>
      <point x="111" y="289"/>
      <point x="133" y="411" type="curve" smooth="yes"/>
      <point x="153" y="525"/>
      <point x="197" y="536"/>
    </contour>
  </outline>
</glyph>
<glyph name="cedilla" format="1">
  <advance width="308"/>
  <unicode hex="00B8"/>
  <outline>
    <contour>
      <point x="99" y="0" type="line"/>
      <point x="39" y="0" type="line"/>
      <point x="-14" y="-68" type="line"/>
      <point x="-4" y="-104" type="line"/>
      <point x="33" y="-101"/>
      <point x="59" y="-97"/>
      <point x="77" y="-97" type="curve" smooth="yes"/>
      <point x="100" y="-97"/>
      <point x="107" y="-109"/>
      <point x="104" y="-125" type="curve" smooth="yes"/>
      <point x="102" y="-141"/>
      <point x="90" y="-153"/>
      <point x="65" y="-153" type="curve" smooth="yes"/>
      <point x="26" y="-153"/>
      <point x="-23" y="-144"/>
      <point x="-24" y="-144" type="curve"/>
      <point x="-33" y="-170"/>
      <point x="-37" y="-178"/>
      <point x="-46" y="-203" type="curve"/>
      <point x="-44" y="-204"/>
      <point x="0" y="-214"/>
      <point x="44" y="-214" type="curve" smooth="yes"/>
      <point x="118" y="-214"/>
      <point x="157" y="-175"/>
      <point x="166" y="-121" type="curve" smooth="yes"/>
      <point x="174" y="-78"/>
      <point x="150" y="-36"/>
      <point x="95" y="-36" type="curve" smooth="yes"/>
      <point x="91" y="-36"/>
      <point x="87" y="-37"/>
      <point x="70" y="-38" type="curve"/>
    </contour>
  </outline>
</glyph>
<glyph name="guillemotright" format="1">
  <advance width="475"/>
  <unicode hex="00BB"/>
  <outline>
    <contour>
      <point x="65" y="73" type="line"/>
      <point x="265" y="243" type="line"/>
      <point x="125" y="413" type="line"/>
      <point x="48" y="348" type="line"/>
      <point x="138" y="243" type="line"/>
      <point x="11" y="135" type="line"/>
    </contour>
    <contour>
      <point x="265" y="73" type="line"/>
      <point x="465" y="243" type="line"/>
      <point x="325" y="413" type="line"/>
      <point x="248" y="348" type="line"/>
      <point x="338" y="243" type="line"/>
      <point x="211" y="135" type="line"/>
    </contour>
  </outline>
</glyph>
<glyph name="questiondown" format="1">
  <advance width="367"/>
  <unicode hex="00BF"/>
  <outline>
    <contour>
      <point x="355" y="146" type="curve"/>
      <point x="254" y="146" type="line"/>
      <point x="245" y="105"/>
      <point x="214" y="81"/>
      <point x="176" y="81" type="curve"/>
      <point x="144" y="83"/>
      <point x="114" y="106"/>
      <point x="122" y="152" type="curve" smooth="yes"/>
      <point x="129" y="192"/>
      <point x="167" y="224"/>
      <point x="205" y="264" type="curve" smooth="yes"/>
      <point x="247" y="307"/>
      <point x="292" y="358"/>
      <point x="305" y="436" type="curve" smooth="yes"/>
      <point x="320" y="521" type="line"/>
      <point x="221" y="521" type="line"/>
      <point x="210" y="454"/>
      <point x="208" y="447"/>
      <point x="207" y="439" type="curve"/>
      <point x="192" y="374"/>
      <point x="175" y="351"/>
      <point x="118" y="298" type="curve" smooth="yes"/>
      <point x="71" y="254"/>
      <point x="32" y="215"/>
      <point x="22" y="155" type="curve" smooth="yes"/>
      <point x="3" y="50"/>
      <point x="77" y="-9"/>
      <point x="160" y="-14" type="curve"/>
      <point x="266" y="-14"/>
      <point x="338" y="53"/>
    </contour>
    <contour>
      <point x="292" y="644" type="curve" smooth="yes"/>
      <point x="262" y="644"/>
      <point x="234" y="620"/>
      <point x="229" y="590" type="curve" smooth="yes"/>
      <point x="223" y="560"/>
      <point x="243" y="535"/>
      <point x="273" y="535" type="curve" smooth="yes"/>
      <point x="303" y="535"/>
      <point x="331" y="560"/>
      <point x="337" y="590" type="curve" smooth="yes"/>
      <point x="342" y="620"/>
      <point x="322" y="644"/>
    </contour>
  </outline>
</glyph>
<glyph name="Agrave" format="1">
  <advance width="438"/>
  <unicode hex="00C0"/>
  <outline>
    <contour>
      <point x="239" y="635" type="line"/>
      <point x="-26" y="0" type="line"/>
      <point x="87" y="0" type="line"/>
      <point x="152" y="166" type="line"/>
      <point x="299" y="166" type="line"/>
      <point x="306" y="0" type="line"/>
      <point x="425" y="0" type="line"/>
      <point x="380" y="635" type="line"/>
    </contour>
    <contour>
      <point x="295" y="273" type="line"/>
      <point x="196" y="273" type="line"/>
      <point x="279" y="468" type="line"/>
    </contour>
    <contour>
      <point x="255" y="743" type="curve"/>
      <point x="295" y="674" type="line"/>
      <point x="336" y="674" type="line"/>
      <point x="327" y="780" type="line" smooth="yes"/>
      <point x="324" y="806"/>
      <point x="295" y="822"/>
      <point x="273" y="808" type="curve"/>
      <point x="245" y="795"/>
      <point x="243" y="761"/>
    </contour>
  </outline>
</glyph>
<glyph name="Aacute" format="1">
  <advance width="438"/>
  <unicode hex="00C1"/>
  <outline>
    <contour>
      <point x="239" y="635" type="line"/>
      <point x="-26" y="0" type="line"/>
      <point x="87" y="0" type="line"/>
      <point x="152" y="166" type="line"/>
      <point x="299" y="166" type="line"/>
      <point x="306" y="0" type="line"/>
      <point x="425" y="0" type="line"/>
      <point x="380" y="635" type="line"/>
    </contour>
    <contour>
      <point x="295" y="273" type="line"/>
      <point x="196" y="273" type="line"/>
      <point x="279" y="468" type="line"/>
    </contour>
    <contour>
      <point x="337" y="773" type="curve" smooth="yes"/>
      <point x="294" y="675" type="line"/>
      <point x="331" y="675" type="line"/>
      <point x="392" y="739" type="line"/>
      <point x="411" y="757"/>
      <point x="417" y="787"/>
      <point x="397" y="799" type="curve"/>
      <point x="375" y="810"/>
      <point x="348" y="796"/>
    </contour>
  </outline>
</glyph>
<glyph name="Acircumflex" format="1">
  <advance width="449"/>
  <unicode hex="00C2"/>
  <outline>
    <contour>
      <point x="239" y="635" type="line"/>
      <point x="-26" y="0" type="line"/>
      <point x="87" y="0" type="line"/>
      <point x="152" y="166" type="line"/>
      <point x="299" y="166" type="line"/>
      <point x="306" y="0" type="line"/>
      <point x="425" y="0" type="line"/>
      <point x="380" y="635" type="line"/>
    </contour>
    <contour>
      <point x="295" y="273" type="line"/>
      <point x="196" y="273" type="line"/>
      <point x="279" y="468" type="line"/>
    </contour>
    <contour>
      <point x="445" y="723" type="line"/>
      <point x="389" y="675" type="line"/>
      <point x="333" y="750" type="line"/>
      <point x="248" y="675" type="line"/>
      <point x="209" y="722" type="line"/>
      <point x="344" y="838" type="line"/>
    </contour>
  </outline>
</glyph>
<glyph name="Atilde" format="1">
  <advance width="448"/>
  <unicode hex="00C3"/>
  <outline>
    <contour>
      <point x="239" y="635" type="line"/>
      <point x="-26" y="0" type="line"/>
      <point x="87" y="0" type="line"/>
      <point x="152" y="166" type="line"/>
      <point x="299" y="166" type="line"/>
      <point x="306" y="0" type="line"/>
      <point x="425" y="0" type="line"/>
      <point x="380" y="635" type="line"/>
    </contour>
    <contour>
      <point x="295" y="273" type="line"/>
      <point x="196" y="273" type="line"/>
      <point x="279" y="468" type="line"/>
    </contour>
    <contour>
      <point x="442" y="703" type="curve"/>
      <point x="428" y="757" type="line"/>
      <point x="412" y="746"/>
      <point x="396" y="740"/>
      <point x="380" y="740" type="curve" smooth="yes"/>
      <point x="347" y="740"/>
      <point x="321" y="757"/>
      <point x="290" y="757" type="curve"/>
      <point x="243" y="754"/>
      <point x="221" y="736"/>
      <point x="209" y="726" type="curve"/>
      <point x="224" y="673" type="line"/>
      <point x="233" y="679"/>
      <point x="246" y="689"/>
      <point x="269" y="691" type="curve"/>
      <point x="306" y="691"/>
      <point x="334" y="675"/>
      <point x="367" y="675" type="curve" smooth="yes"/>
      <point x="391" y="676"/>
      <point x="417" y="685"/>
    </contour>
  </outline>
</glyph>
<glyph name="Adieresis" format="1">
  <advance width="457"/>
  <unicode hex="00C4"/>
  <outline>
    <contour>
      <point x="239" y="635" type="line"/>
      <point x="-26" y="0" type="line"/>
      <point x="87" y="0" type="line"/>
      <point x="152" y="166" type="line"/>
      <point x="299" y="166" type="line"/>
      <point x="306" y="0" type="line"/>
      <point x="425" y="0" type="line"/>
      <point x="380" y="635" type="line"/>
    </contour>
    <contour>
      <point x="295" y="273" type="line"/>
      <point x="196" y="273" type="line"/>
      <point x="279" y="468" type="line"/>
    </contour>
    <contour>
      <point x="409" y="783" type="curve" smooth="yes"/>
      <point x="379" y="783"/>
      <point x="351" y="759"/>
      <point x="346" y="729" type="curve" smooth="yes"/>
      <point x="341" y="699"/>
      <point x="359" y="674"/>
      <point x="389" y="674" type="curve" smooth="yes"/>
      <point x="419" y="674"/>
      <point x="449" y="699"/>
      <point x="454" y="729" type="curve" smooth="yes"/>
      <point x="459" y="759"/>
      <point x="439" y="783"/>
    </contour>
    <contour>
      <point x="310" y="729" type="curve" smooth="yes"/>
      <point x="315" y="759"/>
      <point x="296" y="783"/>
      <point x="266" y="783" type="curve" smooth="yes"/>
      <point x="236" y="783"/>
      <point x="206" y="759"/>
      <point x="201" y="729" type="curve" smooth="yes"/>
      <point x="196" y="699"/>
      <point x="216" y="674"/>
      <point x="246" y="674" type="curve" smooth="yes"/>
      <point x="276" y="674"/>
      <point x="305" y="699"/>
    </contour>
  </outline>
</glyph>
<glyph name="Aring" format="1">
  <advance width="444"/>
  <unicode hex="00C5"/>
  <outline>
    <contour>
      <point x="239" y="635" type="line"/>
      <point x="-26" y="0" type="line"/>
      <point x="87" y="0" type="line"/>
      <point x="152" y="166" type="line"/>
      <point x="299" y="166" type="line"/>
      <point x="306" y="0" type="line"/>
      <point x="425" y="0" type="line"/>
      <point x="380" y="635" type="line"/>
    </contour>
    <contour>
      <point x="295" y="273" type="line"/>
      <point x="196" y="273" type="line"/>
      <point x="279" y="468" type="line"/>
    </contour>
    <contour>
      <point x="304" y="601" type="curve" smooth="yes"/>
      <point x="361" y="601"/>
      <point x="416" y="647"/>
      <point x="426" y="704" type="curve" smooth="yes"/>
      <point x="436" y="762"/>
      <point x="398" y="808"/>
      <point x="341" y="808" type="curve" smooth="yes"/>
      <point x="284" y="808"/>
      <point x="229" y="762"/>
      <point x="219" y="704" type="curve" smooth="yes"/>
      <point x="209" y="647"/>
      <point x="247" y="601"/>
    </contour>
    <contour>
      <point x="352" y="704" type="curve"/>
      <point x="349" y="689"/>
      <point x="333" y="676"/>
      <point x="318" y="676" type="curve" smooth="yes"/>
      <point x="302" y="676"/>
      <point x="292" y="689"/>
      <point x="295" y="704" type="curve"/>
      <point x="297" y="720"/>
      <point x="312" y="733"/>
      <point x="328" y="733" type="curve" smooth="yes"/>
      <point x="343" y="733"/>
      <point x="354" y="720"/>
    </contour>
  </outline>
</glyph>
<glyph name="AE" format="1">
  <advance width="693"/>
  <unicode hex="00C6"/>
  <outline>
    <contour>
      <point x="621" y="91" type="line"/>
      <point x="417" y="91" type="line"/>
      <point x="450" y="278" type="line"/>
      <point x="558" y="278" type="line"/>
      <point x="606" y="375" type="line"/>
      <point x="467" y="375" type="line"/>
      <point x="495" y="535" type="line"/>
      <point x="701" y="535" type="line"/>
      <point x="718" y="635" type="line"/>
      <point x="328" y="635" type="line"/>
      <point x="-29" y="0" type="line"/>
      <point x="88" y="0" type="line"/>
      <point x="186" y="175" type="line"/>
      <point x="333" y="175" type="line"/>
      <point x="303" y="0" type="line"/>
      <point x="605" y="0" type="line"/>
    </contour>
    <contour>
      <point x="396" y="535" type="line"/>
      <point x="350" y="273" type="line"/>
      <point x="241" y="273" type="line"/>
      <point x="385" y="535" type="line"/>
    </contour>
  </outline>
</glyph>
<glyph name="Egrave" format="1">
  <advance width="374"/>
  <unicode hex="00C8"/>
  <outline>
    <contour>
      <point x="302" y="91" type="line"/>
      <point x="100" y="91" type="line"/>
      <point x="133" y="280" type="line"/>
      <point x="229" y="280" type="line"/>
      <point x="275" y="375" type="line"/>
      <point x="150" y="375" type="line"/>
      <point x="178" y="535" type="line"/>
      <point x="382" y="535" type="line"/>
      <point x="399" y="635" type="line"/>
      <point x="95" y="635" type="line"/>
      <point x="-16" y="0" type="line"/>
      <point x="286" y="0" type="line"/>
    </contour>
    <contour>
      <point x="198" y="745" type="curve"/>
      <point x="239" y="676" type="line"/>
      <point x="280" y="676" type="line"/>
      <point x="270" y="782" type="line" smooth="yes"/>
      <point x="268" y="807"/>
      <point x="242" y="823"/>
      <point x="216" y="810" type="curve" smooth="yes"/>
      <point x="188" y="796"/>
      <point x="185" y="763"/>
    </contour>
  </outline>
</glyph>
<glyph name="Eacute" format="1">
  <advance width="374"/>
  <unicode hex="00C9"/>
  <outline>
    <contour>
      <point x="302" y="91" type="line"/>
      <point x="100" y="91" type="line"/>
      <point x="133" y="280" type="line"/>
      <point x="229" y="280" type="line"/>
      <point x="275" y="375" type="line"/>
      <point x="150" y="375" type="line"/>
      <point x="178" y="535" type="line"/>
      <point x="382" y="535" type="line"/>
      <point x="399" y="635" type="line"/>
      <point x="95" y="635" type="line"/>
      <point x="-16" y="0" type="line"/>
      <point x="286" y="0" type="line"/>
    </contour>
    <contour>
      <point x="278" y="775" type="curve"/>
      <point x="236" y="676" type="line"/>
      <point x="273" y="676" type="line"/>
      <point x="334" y="741" type="line" smooth="yes"/>
      <point x="355" y="763"/>
      <point x="356" y="786"/>
      <point x="339" y="801" type="curve"/>
      <point x="315" y="808"/>
      <point x="293" y="801"/>
    </contour>
  </outline>
</glyph>
<glyph name="Ecircumflex" format="1">
  <advance width="374"/>
  <unicode hex="00CA"/>
  <outline>
    <contour>
      <point x="302" y="91" type="line"/>
      <point x="100" y="91" type="line"/>
      <point x="133" y="280" type="line"/>
      <point x="229" y="280" type="line"/>
      <point x="275" y="375" type="line"/>
      <point x="150" y="375" type="line"/>
      <point x="178" y="535" type="line"/>
      <point x="382" y="535" type="line"/>
      <point x="399" y="635" type="line"/>
      <point x="95" y="635" type="line"/>
      <point x="-16" y="0" type="line"/>
      <point x="286" y="0" type="line"/>
    </contour>
    <contour>
      <point x="270" y="752" type="line"/>
      <point x="325" y="677" type="line"/>
      <point x="381" y="725" type="line"/>
      <point x="285" y="839" type="line"/>
      <point x="145" y="723" type="line"/>
      <point x="184" y="676" type="line"/>
    </contour>
  </outline>
</glyph>
<glyph name="Edieresis" format="1">
  <advance width="375"/>
  <unicode hex="00CB"/>
  <outline>
    <contour>
      <point x="303" y="91" type="line"/>
      <point x="101" y="91" type="line"/>
      <point x="134" y="280" type="line"/>
      <point x="230" y="280" type="line"/>
      <point x="276" y="375" type="line"/>
      <point x="151" y="375" type="line"/>
      <point x="179" y="535" type="line"/>
      <point x="383" y="535" type="line"/>
      <point x="400" y="635" type="line"/>
      <point x="96" y="635" type="line"/>
      <point x="-15" y="0" type="line"/>
      <point x="287" y="0" type="line"/>
    </contour>
    <contour>
      <point x="391" y="730" type="curve" smooth="yes"/>
      <point x="397" y="760"/>
      <point x="377" y="784"/>
      <point x="347" y="784" type="curve" smooth="yes"/>
      <point x="317" y="784"/>
      <point x="289" y="760"/>
      <point x="283" y="730" type="curve" smooth="yes"/>
      <point x="278" y="700"/>
      <point x="298" y="676"/>
      <point x="328" y="676" type="curve" smooth="yes"/>
      <point x="358" y="676"/>
      <point x="386" y="700"/>
    </contour>
    <contour>
      <point x="248" y="730" type="curve" smooth="yes"/>
      <point x="254" y="760"/>
      <point x="233" y="784"/>
      <point x="203" y="784" type="curve" smooth="yes"/>
      <point x="173" y="784"/>
      <point x="145" y="760"/>
      <point x="139" y="730" type="curve" smooth="yes"/>
      <point x="134" y="700"/>
      <point x="154" y="676"/>
      <point x="184" y="676" type="curve" smooth="yes"/>
      <point x="214" y="676"/>
      <point x="243" y="700"/>
    </contour>
  </outline>
</glyph>
<glyph name="Igrave" format="1">
  <advance width="222"/>
  <unicode hex="00CC"/>
  <outline>
    <contour>
      <point x="-6" y="0" type="line"/>
      <point x="94" y="0" type="line"/>
      <point x="205" y="635" type="line"/>
      <point x="49" y="635" type="line"/>
      <point x="33" y="539" type="line"/>
      <point x="88" y="537" type="line"/>
    </contour>
    <contour>
      <point x="184" y="780" type="curve" smooth="yes"/>
      <point x="137" y="674" type="line"/>
      <point x="177" y="674" type="line"/>
      <point x="244" y="743" type="line" smooth="yes"/>
      <point x="263" y="763"/>
      <point x="271" y="794"/>
      <point x="248" y="808" type="curve"/>
      <point x="225" y="819"/>
      <point x="195" y="805"/>
    </contour>
  </outline>
</glyph>
<glyph name="Iacute" format="1">
  <advance width="221"/>
  <unicode hex="00CD"/>
  <outline>
    <contour>
      <point x="-6" y="0" type="line"/>
      <point x="94" y="0" type="line"/>
      <point x="205" y="635" type="line"/>
      <point x="48" y="635" type="line"/>
      <point x="32" y="539" type="line"/>
      <point x="88" y="537" type="line"/>
    </contour>
    <contour>
      <point x="183" y="780" type="curve" smooth="yes"/>
      <point x="137" y="674" type="line"/>
      <point x="177" y="674" type="line"/>
      <point x="244" y="743" type="line" smooth="yes"/>
      <point x="263" y="763"/>
      <point x="269" y="795"/>
      <point x="248" y="808" type="curve"/>
      <point x="224" y="819"/>
      <point x="195" y="805"/>
    </contour>
  </outline>
</glyph>
<glyph name="Icircumflex" format="1">
  <advance width="236"/>
  <unicode hex="00CE"/>
  <outline>
    <contour>
      <point x="-5" y="0" type="line"/>
      <point x="95" y="0" type="line"/>
      <point x="206" y="635" type="line"/>
      <point x="49" y="635" type="line"/>
      <point x="33" y="539" type="line"/>
      <point x="89" y="537" type="line"/>
    </contour>
    <contour>
      <point x="179" y="747" type="line"/>
      <point x="234" y="673" type="line"/>
      <point x="291" y="721" type="line"/>
      <point x="195" y="835" type="line"/>
      <point x="54" y="719" type="line"/>
      <point x="93" y="673" type="line"/>
    </contour>
  </outline>
</glyph>
<glyph name="Idieresis" format="1">
  <advance width="229"/>
  <unicode hex="00CF"/>
  <outline>
    <contour>
      <point x="-4" y="0" type="line"/>
      <point x="96" y="0" type="line"/>
      <point x="207" y="635" type="line"/>
      <point x="50" y="635" type="line"/>
      <point x="34" y="539" type="line"/>
      <point x="90" y="537" type="line"/>
    </contour>
    <contour>
      <point x="231" y="783" type="curve" smooth="yes"/>
      <point x="201" y="783"/>
      <point x="171" y="759"/>
      <point x="166" y="729" type="curve" smooth="yes"/>
      <point x="161" y="699"/>
      <point x="181" y="674"/>
      <point x="211" y="674" type="curve" smooth="yes"/>
      <point x="241" y="674"/>
      <point x="269" y="699"/>
      <point x="274" y="729" type="curve" smooth="yes"/>
      <point x="279" y="759"/>
      <point x="261" y="783"/>
    </contour>
    <contour>
      <point x="86" y="783" type="curve" smooth="yes"/>
      <point x="56" y="783"/>
      <point x="28" y="759"/>
      <point x="23" y="729" type="curve" smooth="yes"/>
      <point x="18" y="699"/>
      <point x="36" y="674"/>
      <point x="66" y="674" type="curve" smooth="yes"/>
      <point x="96" y="674"/>
      <point x="126" y="699"/>
      <point x="131" y="729" type="curve" smooth="yes"/>
      <point x="136" y="759"/>
      <point x="116" y="783"/>
    </contour>
  </outline>
</glyph>
<glyph name="Eth" format="1">
  <advance width="442"/>
  <unicode hex="00D0"/>
  <outline>
    <contour>
      <point x="266" y="636" type="curve" smooth="yes"/>
      <point x="96" y="636" type="line"/>
      <point x="-16" y="0" type="line"/>
      <point x="172" y="0" type="line" smooth="yes"/>
      <point x="300" y="0"/>
      <point x="376" y="67"/>
      <point x="397" y="187" type="curve" smooth="yes"/>
      <point x="440" y="430" type="line" smooth="yes"/>
      <point x="462" y="554"/>
      <point x="403" y="636"/>
    </contour>
    <contour>
      <point x="174" y="92" type="curve" smooth="yes"/>
      <point x="100" y="92" type="line"/>
      <point x="133" y="282" type="line"/>
      <point x="225" y="282" type="line"/>
      <point x="267" y="375" type="line"/>
      <point x="150" y="375" type="line"/>
      <point x="178" y="535" type="line"/>
      <point x="257" y="535" type="line" smooth="yes"/>
      <point x="326" y="535"/>
      <point x="354" y="505"/>
      <point x="342" y="439" type="curve" smooth="yes"/>
      <point x="296" y="178" type="line" smooth="yes"/>
      <point x="290" y="142"/>
      <point x="276" y="92"/>
    </contour>
  </outline>
</glyph>
<glyph name="Ntilde" format="1">
  <advance width="521"/>
  <unicode hex="00D1"/>
  <outline>
    <contour>
      <point x="366" y="209" type="line"/>
      <point x="195" y="635" type="line"/>
      <point x="95" y="635" type="line"/>
      <point x="-16" y="0" type="line"/>
      <point x="84" y="0" type="line"/>
      <point x="159" y="429" type="line"/>
      <point x="330" y="0" type="line"/>
      <point x="431" y="0" type="line"/>
      <point x="542" y="635" type="line"/>
      <point x="441" y="635" type="line"/>
    </contour>
    <contour>
      <point x="452" y="710" type="curve"/>
      <point x="437" y="764" type="line"/>
      <point x="423" y="754"/>
      <point x="406" y="748"/>
      <point x="392" y="747" type="curve"/>
      <point x="359" y="747"/>
      <point x="333" y="764"/>
      <point x="303" y="764" type="curve" smooth="yes"/>
      <point x="269" y="764"/>
      <point x="243" y="752"/>
      <point x="218" y="733" type="curve"/>
      <point x="234" y="681" type="line"/>
      <point x="242" y="686"/>
      <point x="255" y="696"/>
      <point x="279" y="698" type="curve"/>
      <point x="312" y="698"/>
      <point x="338" y="683"/>
      <point x="369" y="683" type="curve" smooth="yes"/>
      <point x="401" y="683"/>
      <point x="429" y="694"/>
    </contour>
  </outline>
</glyph>
<glyph name="Oacute" format="1">
  <advance width="437"/>
  <unicode hex="00D3"/>
  <outline>
    <contour>
      <point x="56" y="460" type="curve" smooth="yes"/>
      <point x="4" y="168" type="line" smooth="yes"/>
      <point x="-17" y="51"/>
      <point x="57" y="-10"/>
      <point x="165" y="-10" type="curve" smooth="yes"/>
      <point x="279" y="-10"/>
      <point x="367" y="57"/>
      <point x="386" y="168" type="curve" smooth="yes"/>
      <point x="437" y="459" type="line" smooth="yes"/>
      <point x="458" y="578"/>
      <point x="402" y="650"/>
      <point x="282" y="650" type="curve" smooth="yes"/>
      <point x="162" y="650"/>
      <point x="77" y="584"/>
    </contour>
    <contour>
      <point x="107" y="185" type="curve" smooth="yes"/>
      <point x="150" y="427" type="line" smooth="yes"/>
      <point x="164" y="506"/>
      <point x="198" y="544"/>
      <point x="261" y="544" type="curve" smooth="yes"/>
      <point x="331" y="544"/>
      <point x="345" y="504"/>
      <point x="332" y="426" type="curve" smooth="yes"/>
      <point x="289" y="187" type="line" smooth="yes"/>
      <point x="279" y="130"/>
      <point x="240" y="92"/>
      <point x="182" y="92" type="curve" smooth="yes"/>
      <point x="121" y="92"/>
      <point x="97" y="127"/>
    </contour>
    <contour>
      <point x="310" y="790" type="curve" smooth="yes"/>
      <point x="264" y="684" type="line"/>
      <point x="304" y="684" type="line"/>
      <point x="369" y="753" type="line"/>
      <point x="390" y="773"/>
      <point x="395" y="805"/>
      <point x="374" y="818" type="curve"/>
      <point x="350" y="829"/>
      <point x="321" y="815"/>
    </contour>
  </outline>
</glyph>
<glyph name="Ocircumflex" format="1">
  <advance width="437"/>
  <unicode hex="00D4"/>
  <outline>
    <contour>
      <point x="56" y="460" type="curve" smooth="yes"/>
      <point x="4" y="168" type="line" smooth="yes"/>
      <point x="-17" y="51"/>
      <point x="57" y="-10"/>
      <point x="165" y="-10" type="curve" smooth="yes"/>
      <point x="279" y="-10"/>
      <point x="367" y="57"/>
      <point x="386" y="168" type="curve" smooth="yes"/>
      <point x="437" y="459" type="line" smooth="yes"/>
      <point x="458" y="578"/>
      <point x="402" y="650"/>
      <point x="282" y="650" type="curve" smooth="yes"/>
      <point x="162" y="650"/>
      <point x="77" y="584"/>
    </contour>
    <contour>
      <point x="107" y="185" type="curve" smooth="yes"/>
      <point x="150" y="427" type="line" smooth="yes"/>
      <point x="164" y="506"/>
      <point x="198" y="544"/>
      <point x="261" y="544" type="curve" smooth="yes"/>
      <point x="331" y="544"/>
      <point x="345" y="504"/>
      <point x="332" y="426" type="curve" smooth="yes"/>
      <point x="289" y="187" type="line" smooth="yes"/>
      <point x="279" y="130"/>
      <point x="240" y="92"/>
      <point x="182" y="92" type="curve" smooth="yes"/>
      <point x="121" y="92"/>
      <point x="97" y="127"/>
    </contour>
    <contour>
      <point x="302" y="762" type="line"/>
      <point x="357" y="687" type="line"/>
      <point x="413" y="735" type="line"/>
      <point x="317" y="850" type="line"/>
      <point x="177" y="733" type="line"/>
      <point x="215" y="686" type="line"/>
    </contour>
  </outline>
</glyph>
<glyph name="Otilde" format="1">
  <advance width="437"/>
  <unicode hex="00D5"/>
  <outline>
    <contour>
      <point x="56" y="460" type="curve" smooth="yes"/>
      <point x="4" y="168" type="line" smooth="yes"/>
      <point x="-17" y="51"/>
      <point x="57" y="-10"/>
      <point x="165" y="-10" type="curve" smooth="yes"/>
      <point x="279" y="-10"/>
      <point x="367" y="57"/>
      <point x="386" y="168" type="curve" smooth="yes"/>
      <point x="437" y="459" type="line" smooth="yes"/>
      <point x="458" y="578"/>
      <point x="402" y="650"/>
      <point x="282" y="650" type="curve" smooth="yes"/>
      <point x="162" y="650"/>
      <point x="77" y="584"/>
    </contour>
    <contour>
      <point x="107" y="185" type="curve" smooth="yes"/>
      <point x="150" y="427" type="line" smooth="yes"/>
      <point x="164" y="506"/>
      <point x="198" y="544"/>
      <point x="261" y="544" type="curve" smooth="yes"/>
      <point x="331" y="544"/>
      <point x="345" y="504"/>
      <point x="332" y="426" type="curve" smooth="yes"/>
      <point x="289" y="187" type="line" smooth="yes"/>
      <point x="279" y="130"/>
      <point x="240" y="92"/>
      <point x="182" y="92" type="curve" smooth="yes"/>
      <point x="121" y="92"/>
      <point x="97" y="127"/>
    </contour>
    <contour>
      <point x="408" y="703" type="curve"/>
      <point x="395" y="757" type="line"/>
      <point x="381" y="747"/>
      <point x="364" y="741"/>
      <point x="350" y="740" type="curve"/>
      <point x="316" y="740"/>
      <point x="291" y="757"/>
      <point x="261" y="757" type="curve" smooth="yes"/>
      <point x="227" y="757"/>
      <point x="201" y="744"/>
      <point x="175" y="726" type="curve"/>
      <point x="191" y="673" type="line"/>
      <point x="200" y="679"/>
      <point x="213" y="689"/>
      <point x="236" y="691" type="curve"/>
      <point x="269" y="691"/>
      <point x="296" y="674"/>
      <point x="328" y="674" type="curve" smooth="yes"/>
      <point x="358" y="674"/>
      <point x="387" y="687"/>
    </contour>
  </outline>
</glyph>
<glyph name="Odieresis" format="1">
  <advance width="437"/>
  <unicode hex="00D6"/>
  <outline>
    <contour>
      <point x="56" y="460" type="curve" smooth="yes"/>
      <point x="4" y="168" type="line" smooth="yes"/>
      <point x="-17" y="51"/>
      <point x="57" y="-10"/>
      <point x="165" y="-10" type="curve" smooth="yes"/>
      <point x="279" y="-10"/>
      <point x="367" y="57"/>
      <point x="386" y="168" type="curve" smooth="yes"/>
      <point x="437" y="459" type="line" smooth="yes"/>
      <point x="458" y="578"/>
      <point x="402" y="650"/>
      <point x="282" y="650" type="curve" smooth="yes"/>
      <point x="162" y="650"/>
      <point x="77" y="584"/>
    </contour>
    <contour>
      <point x="107" y="185" type="curve" smooth="yes"/>
      <point x="150" y="427" type="line" smooth="yes"/>
      <point x="164" y="506"/>
      <point x="198" y="544"/>
      <point x="261" y="544" type="curve" smooth="yes"/>
      <point x="331" y="544"/>
      <point x="345" y="504"/>
      <point x="332" y="426" type="curve" smooth="yes"/>
      <point x="289" y="187" type="line" smooth="yes"/>
      <point x="279" y="130"/>
      <point x="240" y="92"/>
      <point x="182" y="92" type="curve" smooth="yes"/>
      <point x="121" y="92"/>
      <point x="97" y="127"/>
    </contour>
    <contour>
      <point x="234" y="792" type="curve" smooth="yes"/>
      <point x="204" y="792"/>
      <point x="175" y="767"/>
      <point x="169" y="737" type="curve" smooth="yes"/>
      <point x="164" y="707"/>
      <point x="185" y="683"/>
      <point x="215" y="683" type="curve" smooth="yes"/>
      <point x="245" y="683"/>
      <point x="273" y="707"/>
      <point x="278" y="737" type="curve" smooth="yes"/>
      <point x="284" y="767"/>
      <point x="264" y="792"/>
    </contour>
    <contour>
      <point x="377" y="792" type="curve" smooth="yes"/>
      <point x="347" y="792"/>
      <point x="319" y="767"/>
      <point x="313" y="737" type="curve" smooth="yes"/>
      <point x="308" y="707"/>
      <point x="328" y="683"/>
      <point x="358" y="683" type="curve" smooth="yes"/>
      <point x="388" y="683"/>
      <point x="417" y="707"/>
      <point x="422" y="737" type="curve" smooth="yes"/>
      <point x="428" y="767"/>
      <point x="407" y="792"/>
    </contour>
  </outline>
</glyph>
<glyph name="multiply" format="1">
  <advance width="343"/>
  <unicode hex="00D7"/>
  <outline>
    <contour>
      <point x="45" y="406" type="line"/>
      <point x="116" y="302" type="line"/>
      <point x="11" y="198" type="line"/>
      <point x="64" y="142" type="line"/>
      <point x="158" y="236" type="line"/>
      <point x="221" y="143" type="line"/>
      <point x="294" y="198" type="line"/>
      <point x="225" y="302" type="line"/>
      <point x="333" y="409" type="line"/>
      <point x="276" y="462" type="line"/>
      <point x="181" y="367" type="line"/>
      <point x="120" y="461" type="line"/>
    </contour>
  </outline>
</glyph>
<glyph name="Oslash" format="1">
  <advance width="486"/>
  <unicode hex="00D8"/>
  <outline>
    <contour>
      <point x="76" y="460" type="curve" smooth="yes"/>
      <point x="24" y="168" type="line" smooth="yes"/>
      <point x="3" y="51"/>
      <point x="77" y="-10"/>
      <point x="185" y="-10" type="curve" smooth="yes"/>
      <point x="298" y="-10"/>
      <point x="387" y="57"/>
      <point x="406" y="168" type="curve" smooth="yes"/>
      <point x="457" y="459" type="line" smooth="yes"/>
      <point x="478" y="578"/>
      <point x="422" y="650"/>
      <point x="302" y="650" type="curve" smooth="yes"/>
      <point x="182" y="650"/>
      <point x="97" y="584"/>
    </contour>
    <contour>
      <point x="127" y="185" type="curve" smooth="yes"/>
      <point x="170" y="427" type="line" smooth="yes"/>
      <point x="184" y="506"/>
      <point x="217" y="544"/>
      <point x="281" y="544" type="curve" smooth="yes"/>
      <point x="351" y="544"/>
      <point x="365" y="504"/>
      <point x="352" y="426" type="curve" smooth="yes"/>
      <point x="309" y="187" type="line" smooth="yes"/>
      <point x="299" y="130"/>
      <point x="259" y="92"/>
      <point x="202" y="92" type="curve" smooth="yes"/>
      <point x="140" y="92"/>
      <point x="117" y="127"/>
    </contour>
    <contour>
      <point x="524" y="742" type="line"/>
      <point x="415" y="742" type="line"/>
      <point x="-27" y="-104" type="line"/>
      <point x="78" y="-104" type="line"/>
    </contour>
  </outline>
</glyph>
<glyph name="Udieresis" format="1">
  <advance width="441"/>
  <unicode hex="00DC"/>
  <outline>
    <contour>
      <point x="382" y="168" type="curve" smooth="yes"/>
      <point x="464" y="635" type="line"/>
      <point x="364" y="635" type="line"/>
      <point x="285" y="187" type="line" smooth="yes"/>
      <point x="280" y="156"/>
      <point x="266" y="131"/>
      <point x="246" y="115" type="curve" smooth="yes"/>
      <point x="227" y="100"/>
      <point x="205" y="92"/>
      <point x="178" y="92" type="curve" smooth="yes"/>
      <point x="151" y="92"/>
      <point x="131" y="98"/>
      <point x="119" y="111" type="curve" smooth="yes"/>
      <point x="103" y="127"/>
      <point x="97" y="153"/>
      <point x="103" y="185" type="curve" smooth="yes"/>
      <point x="182" y="635" type="line"/>
      <point x="82" y="635" type="line"/>
      <point x="0" y="168" type="line" smooth="yes"/>
      <point x="-11" y="107"/>
      <point x="1" y="62"/>
      <point x="33" y="33" type="curve" smooth="yes"/>
      <point x="66" y="5"/>
      <point x="109" y="-10"/>
      <point x="161" y="-10" type="curve" smooth="yes"/>
      <point x="213" y="-10"/>
      <point x="260" y="5"/>
      <point x="302" y="33" type="curve" smooth="yes"/>
      <point x="344" y="62"/>
      <point x="371" y="107"/>
    </contour>
    <contour>
      <point x="417" y="731" type="curve" smooth="yes"/>
      <point x="423" y="761"/>
      <point x="402" y="785"/>
      <point x="372" y="785" type="curve" smooth="yes"/>
      <point x="342" y="785"/>
      <point x="314" y="761"/>
      <point x="308" y="731" type="curve" smooth="yes"/>
      <point x="303" y="701"/>
      <point x="323" y="677"/>
      <point x="353" y="677" type="curve" smooth="yes"/>
      <point x="383" y="677"/>
      <point x="412" y="701"/>
    </contour>
    <contour>
      <point x="273" y="731" type="curve" smooth="yes"/>
      <point x="279" y="761"/>
      <point x="259" y="785"/>
      <point x="229" y="785" type="curve" smooth="yes"/>
      <point x="199" y="785"/>
      <point x="170" y="761"/>
      <point x="164" y="731" type="curve" smooth="yes"/>
      <point x="159" y="701"/>
      <point x="180" y="677"/>
      <point x="210" y="677" type="curve" smooth="yes"/>
      <point x="240" y="677"/>
      <point x="268" y="701"/>
    </contour>
  </outline>
</glyph>
<glyph name="Thorn" format="1">
  <advance width="404"/>
  <unicode hex="00DE"/>
  <outline>
    <contour>
      <point x="388" y="264" type="curve" smooth="yes"/>
      <point x="411" y="395" type="line" smooth="yes"/>
      <point x="416" y="435"/>
      <point x="415" y="464"/>
      <point x="404" y="494" type="curve"/>
      <point x="381" y="546"/>
      <point x="330" y="569"/>
      <point x="274" y="569" type="curve" smooth="yes"/>
      <point x="244" y="569"/>
      <point x="213" y="563"/>
      <point x="182" y="553" type="curve"/>
      <point x="196" y="635" type="line"/>
      <point x="96" y="635" type="line"/>
      <point x="-15" y="0" type="line"/>
      <point x="85" y="0" type="line"/>
      <point x="103" y="103" type="line"/>
      <point x="154" y="93"/>
      <point x="208" y="91"/>
      <point x="258" y="107" type="curve" smooth="yes"/>
      <point x="325" y="127"/>
      <point x="372" y="175"/>
    </contour>
    <contour>
      <point x="248" y="484" type="curve" smooth="yes"/>
      <point x="274" y="484"/>
      <point x="301" y="473"/>
      <point x="310" y="452" type="curve"/>
      <point x="316" y="440"/>
      <point x="317" y="425"/>
      <point x="314" y="407" type="curve" smooth="yes"/>
      <point x="290" y="264" type="line" smooth="yes"/>
      <point x="283" y="226"/>
      <point x="267" y="200"/>
      <point x="229" y="189" type="curve" smooth="yes"/>
      <point x="195" y="178"/>
      <point x="150" y="179"/>
      <point x="117" y="187" type="curve"/>
      <point x="167" y="467" type="line"/>
      <point x="191" y="476"/>
      <point x="224" y="484"/>
    </contour>
  </outline>
</glyph>
<glyph name="germandbls" format="1">
  <advance width="426"/>
  <unicode hex="00DF"/>
  <outline>
    <contour>
      <point x="84" y="0" type="curve"/>
      <point x="164" y="459" type="line" smooth="yes"/>
      <point x="174" y="514"/>
      <point x="197" y="541"/>
      <point x="234" y="541" type="curve" smooth="yes"/>
      <point x="260" y="541"/>
      <point x="270" y="524"/>
      <point x="267" y="505" type="curve" smooth="yes"/>
      <point x="263" y="484"/>
      <point x="242" y="460"/>
      <point x="212" y="460" type="curve"/>
      <point x="195" y="438"/>
      <point x="185" y="418"/>
      <point x="182" y="399" type="curve" smooth="yes"/>
      <point x="169" y="325"/>
      <point x="241" y="271"/>
      <point x="281" y="221" type="curve" smooth="yes"/>
      <point x="305" y="190"/>
      <point x="313" y="162"/>
      <point x="309" y="138" type="curve" smooth="yes"/>
      <point x="303" y="105"/>
      <point x="273" y="85"/>
      <point x="244" y="85" type="curve" smooth="yes"/>
      <point x="220" y="85"/>
      <point x="194" y="97"/>
      <point x="169" y="125" type="curve"/>
      <point x="148" y="94"/>
      <point x="129" y="65"/>
      <point x="108" y="34" type="curve"/>
      <point x="138" y="6"/>
      <point x="180" y="-11"/>
      <point x="230" y="-11" type="curve" smooth="yes"/>
      <point x="318" y="-11"/>
      <point x="398" y="48"/>
      <point x="413" y="135" type="curve" smooth="yes"/>
      <point x="422" y="186"/>
      <point x="409" y="228"/>
      <point x="384" y="262" type="curve" smooth="yes"/>
      <point x="347" y="314"/>
      <point x="277" y="357"/>
      <point x="286" y="404" type="curve"/>
      <point x="287" y="414"/>
      <point x="293" y="423"/>
      <point x="301" y="433" type="curve"/>
      <point x="302" y="433"/>
      <point x="319" y="433"/>
      <point x="319" y="433" type="curve"/>
      <point x="359" y="468"/>
      <point x="372" y="516"/>
      <point x="367" y="555" type="curve" smooth="yes"/>
      <point x="358" y="606"/>
      <point x="304" y="636"/>
      <point x="242" y="636" type="curve" smooth="yes"/>
      <point x="168" y="635"/>
      <point x="88" y="592"/>
      <point x="69" y="487" type="curve" smooth="yes"/>
      <point x="41" y="325"/>
      <point x="12" y="162"/>
      <point x="-16" y="0" type="curve"/>
      <point x="17" y="0"/>
      <point x="51" y="0"/>
    </contour>
  </outline>
</glyph>
<glyph name="aacute" format="1">
  <advance width="377"/>
  <unicode hex="00E1"/>
  <outline>
    <contour>
      <point x="273" y="304" type="curve"/>
      <point x="252" y="344"/>
      <point x="199" y="364"/>
      <point x="157" y="364" type="curve" smooth="yes"/>
      <point x="90" y="364"/>
      <point x="26" y="322"/>
      <point x="10" y="229" type="curve"/>
      <point x="10" y="229"/>
      <point x="-6" y="141"/>
      <point x="-6" y="141" type="curve"/>
      <point x="-21" y="25"/>
      <point x="52" y="-10"/>
      <point x="154" y="-10" type="curve" smooth="yes"/>
      <point x="215" y="-10"/>
      <point x="268" y="-7"/>
      <point x="320" y="0" type="curve"/>
      <point x="320" y="0"/>
      <point x="351" y="176"/>
      <point x="369" y="278" type="curve" smooth="yes"/>
      <point x="383" y="362"/>
      <point x="369" y="402"/>
      <point x="351" y="422" type="curve" smooth="yes"/>
      <point x="317" y="458"/>
      <point x="260" y="462"/>
      <point x="212" y="462" type="curve"/>
      <point x="192" y="394" type="line"/>
      <point x="230" y="394"/>
      <point x="254" y="384"/>
      <point x="269" y="369" type="curve"/>
      <point x="278" y="359"/>
      <point x="280" y="343"/>
    </contour>
    <contour>
      <point x="260" y="229" type="curve"/>
      <point x="260" y="229"/>
      <point x="234" y="85"/>
      <point x="234" y="85" type="curve"/>
      <point x="234" y="85"/>
      <point x="194" y="82"/>
      <point x="179" y="82" type="curve" smooth="yes"/>
      <point x="97" y="82"/>
      <point x="90" y="112"/>
      <point x="98" y="157" type="curve" smooth="yes"/>
      <point x="101" y="173"/>
      <point x="105" y="198"/>
      <point x="109" y="216" type="curve" smooth="yes"/>
      <point x="115" y="250"/>
      <point x="139" y="261"/>
      <point x="167" y="261" type="curve" smooth="yes"/>
      <point x="210" y="261"/>
      <point x="250" y="236"/>
    </contour>
    <contour>
      <point x="268" y="604" type="curve" smooth="yes"/>
      <point x="222" y="499" type="line"/>
      <point x="262" y="499" type="line"/>
      <point x="327" y="567" type="line" smooth="yes"/>
      <point x="348" y="587"/>
      <point x="354" y="619"/>
      <point x="332" y="632" type="curve" smooth="yes"/>
      <point x="310" y="645"/>
      <point x="278" y="628"/>
    </contour>
  </outline>
</glyph>
<glyph name="acircumflex" format="1">
  <advance width="379"/>
  <unicode hex="00E2"/>
  <outline>
    <contour>
      <point x="274" y="304" type="curve"/>
      <point x="253" y="344"/>
      <point x="200" y="364"/>
      <point x="158" y="364" type="curve" smooth="yes"/>
      <point x="91" y="364"/>
      <point x="27" y="322"/>
      <point x="11" y="229" type="curve"/>
      <point x="11" y="229"/>
      <point x="-5" y="141"/>
      <point x="-5" y="141" type="curve"/>
      <point x="-20" y="25"/>
      <point x="53" y="-10"/>
      <point x="155" y="-10" type="curve" smooth="yes"/>
      <point x="216" y="-10"/>
      <point x="269" y="-7"/>
      <point x="321" y="0" type="curve"/>
      <point x="321" y="0"/>
      <point x="352" y="176"/>
      <point x="370" y="278" type="curve" smooth="yes"/>
      <point x="384" y="362"/>
      <point x="370" y="402"/>
      <point x="352" y="422" type="curve" smooth="yes"/>
      <point x="318" y="458"/>
      <point x="261" y="462"/>
      <point x="213" y="462" type="curve"/>
      <point x="193" y="394" type="line"/>
      <point x="231" y="394"/>
      <point x="255" y="384"/>
      <point x="270" y="369" type="curve"/>
      <point x="279" y="359"/>
      <point x="281" y="343"/>
    </contour>
    <contour>
      <point x="261" y="229" type="curve"/>
      <point x="261" y="229"/>
      <point x="235" y="85"/>
      <point x="235" y="85" type="curve"/>
      <point x="235" y="85"/>
      <point x="195" y="82"/>
      <point x="180" y="82" type="curve" smooth="yes"/>
      <point x="98" y="82"/>
      <point x="91" y="112"/>
      <point x="99" y="157" type="curve" smooth="yes"/>
      <point x="102" y="173"/>
      <point x="106" y="198"/>
      <point x="110" y="216" type="curve" smooth="yes"/>
      <point x="116" y="250"/>
      <point x="140" y="261"/>
      <point x="168" y="261" type="curve" smooth="yes"/>
      <point x="211" y="261"/>
      <point x="251" y="236"/>
    </contour>
    <contour>
      <point x="247" y="572" type="line"/>
      <point x="303" y="498" type="line"/>
      <point x="361" y="545" type="line"/>
      <point x="263" y="660" type="line"/>
      <point x="122" y="544" type="line"/>
      <point x="163" y="497" type="line"/>
    </contour>
  </outline>
</glyph>
<glyph name="atilde" format="1">
  <advance width="379"/>
  <unicode hex="00E3"/>
  <outline>
    <contour>
      <point x="274" y="304" type="curve"/>
      <point x="253" y="344"/>
      <point x="200" y="364"/>
      <point x="158" y="364" type="curve" smooth="yes"/>
      <point x="91" y="364"/>
      <point x="27" y="322"/>
      <point x="11" y="229" type="curve"/>
      <point x="11" y="229"/>
      <point x="-5" y="141"/>
      <point x="-5" y="141" type="curve"/>
      <point x="-20" y="25"/>
      <point x="53" y="-10"/>
      <point x="155" y="-10" type="curve" smooth="yes"/>
      <point x="216" y="-10"/>
      <point x="269" y="-7"/>
      <point x="321" y="0" type="curve"/>
      <point x="321" y="0"/>
      <point x="352" y="176"/>
      <point x="370" y="278" type="curve" smooth="yes"/>
      <point x="384" y="362"/>
      <point x="370" y="402"/>
      <point x="352" y="422" type="curve" smooth="yes"/>
      <point x="318" y="458"/>
      <point x="261" y="462"/>
      <point x="213" y="462" type="curve"/>
      <point x="193" y="394" type="line"/>
      <point x="231" y="394"/>
      <point x="255" y="384"/>
      <point x="270" y="369" type="curve"/>
      <point x="279" y="359"/>
      <point x="281" y="343"/>
    </contour>
    <contour>
      <point x="261" y="229" type="curve"/>
      <point x="261" y="229"/>
      <point x="235" y="85"/>
      <point x="235" y="85" type="curve"/>
      <point x="235" y="85"/>
      <point x="195" y="82"/>
      <point x="180" y="82" type="curve" smooth="yes"/>
      <point x="98" y="82"/>
      <point x="91" y="112"/>
      <point x="99" y="157" type="curve" smooth="yes"/>
      <point x="102" y="173"/>
      <point x="106" y="198"/>
      <point x="110" y="216" type="curve" smooth="yes"/>
      <point x="116" y="250"/>
      <point x="140" y="261"/>
      <point x="168" y="261" type="curve" smooth="yes"/>
      <point x="211" y="261"/>
      <point x="251" y="236"/>
    </contour>
    <contour>
      <point x="359" y="528" type="curve"/>
      <point x="344" y="583" type="line"/>
      <point x="331" y="573"/>
      <point x="313" y="566"/>
      <point x="298" y="565" type="curve"/>
      <point x="263" y="565"/>
      <point x="238" y="583"/>
      <point x="206" y="583" type="curve" smooth="yes"/>
      <point x="159" y="581"/>
      <point x="138" y="562"/>
      <point x="124" y="553" type="curve"/>
      <point x="140" y="499" type="line"/>
      <point x="149" y="505"/>
      <point x="162" y="515"/>
      <point x="185" y="516" type="curve" smooth="yes"/>
      <point x="219" y="516"/>
      <point x="246" y="501"/>
      <point x="277" y="501" type="curve" smooth="yes"/>
      <point x="308" y="501"/>
      <point x="335" y="513"/>
    </contour>
  </outline>
</glyph>
<glyph name="adieresis" format="1">
  <advance width="379"/>
  <unicode hex="00E4"/>
  <outline>
    <contour>
      <point x="274" y="304" type="curve"/>
      <point x="253" y="344"/>
      <point x="200" y="364"/>
      <point x="158" y="364" type="curve" smooth="yes"/>
      <point x="91" y="364"/>
      <point x="27" y="322"/>
      <point x="11" y="229" type="curve"/>
      <point x="11" y="229"/>
      <point x="-5" y="141"/>
      <point x="-5" y="141" type="curve"/>
      <point x="-20" y="25"/>
      <point x="53" y="-10"/>
      <point x="155" y="-10" type="curve" smooth="yes"/>
      <point x="216" y="-10"/>
      <point x="269" y="-7"/>
      <point x="321" y="0" type="curve"/>
      <point x="321" y="0"/>
      <point x="352" y="176"/>
      <point x="370" y="278" type="curve" smooth="yes"/>
      <point x="384" y="362"/>
      <point x="370" y="402"/>
      <point x="352" y="422" type="curve" smooth="yes"/>
      <point x="318" y="458"/>
      <point x="261" y="462"/>
      <point x="213" y="462" type="curve"/>
      <point x="193" y="394" type="line"/>
      <point x="231" y="394"/>
      <point x="255" y="384"/>
      <point x="270" y="369" type="curve"/>
      <point x="279" y="359"/>
      <point x="281" y="343"/>
    </contour>
    <contour>
      <point x="261" y="229" type="curve"/>
      <point x="261" y="229"/>
      <point x="235" y="85"/>
      <point x="235" y="85" type="curve"/>
      <point x="235" y="85"/>
      <point x="195" y="82"/>
      <point x="180" y="82" type="curve" smooth="yes"/>
      <point x="98" y="82"/>
      <point x="91" y="112"/>
      <point x="99" y="157" type="curve" smooth="yes"/>
      <point x="102" y="173"/>
      <point x="106" y="198"/>
      <point x="110" y="216" type="curve" smooth="yes"/>
      <point x="116" y="250"/>
      <point x="140" y="261"/>
      <point x="168" y="261" type="curve" smooth="yes"/>
      <point x="211" y="261"/>
      <point x="251" y="236"/>
    </contour>
    <contour>
      <point x="324" y="607" type="curve" smooth="yes"/>
      <point x="294" y="607"/>
      <point x="265" y="584"/>
      <point x="260" y="554" type="curve" smooth="yes"/>
      <point x="255" y="524"/>
      <point x="274" y="499"/>
      <point x="304" y="499" type="curve" smooth="yes"/>
      <point x="333" y="499"/>
      <point x="363" y="524"/>
      <point x="368" y="554" type="curve" smooth="yes"/>
      <point x="373" y="584"/>
      <point x="353" y="607"/>
    </contour>
    <contour>
      <point x="180" y="607" type="curve" smooth="yes"/>
      <point x="150" y="607"/>
      <point x="121" y="584"/>
      <point x="116" y="554" type="curve" smooth="yes"/>
      <point x="111" y="524"/>
      <point x="130" y="499"/>
      <point x="160" y="499" type="curve" smooth="yes"/>
      <point x="190" y="499"/>
      <point x="219" y="524"/>
      <point x="224" y="554" type="curve" smooth="yes"/>
      <point x="229" y="584"/>
      <point x="210" y="607"/>
    </contour>
  </outline>
</glyph>
<glyph name="aring" format="1">
  <advance width="378"/>
  <unicode hex="00E5"/>
  <outline>
    <contour>
      <point x="274" y="304" type="curve"/>
      <point x="253" y="344"/>
      <point x="200" y="364"/>
      <point x="158" y="364" type="curve" smooth="yes"/>
      <point x="91" y="364"/>
      <point x="27" y="322"/>
      <point x="11" y="229" type="curve"/>
      <point x="11" y="229"/>
      <point x="-5" y="141"/>
      <point x="-5" y="141" type="curve"/>
      <point x="-20" y="25"/>
      <point x="53" y="-10"/>
      <point x="155" y="-10" type="curve" smooth="yes"/>
      <point x="216" y="-10"/>
      <point x="269" y="-7"/>
      <point x="321" y="0" type="curve"/>
      <point x="321" y="0"/>
      <point x="352" y="176"/>
      <point x="370" y="278" type="curve" smooth="yes"/>
      <point x="384" y="362"/>
      <point x="370" y="402"/>
      <point x="352" y="422" type="curve" smooth="yes"/>
      <point x="318" y="458"/>
      <point x="261" y="462"/>
      <point x="213" y="462" type="curve"/>
      <point x="193" y="394" type="line"/>
      <point x="231" y="394"/>
      <point x="255" y="384"/>
      <point x="270" y="369" type="curve"/>
      <point x="279" y="359"/>
      <point x="281" y="343"/>
    </contour>
    <contour>
      <point x="261" y="229" type="curve"/>
      <point x="261" y="229"/>
      <point x="235" y="85"/>
      <point x="235" y="85" type="curve"/>
      <point x="235" y="85"/>
      <point x="195" y="82"/>
      <point x="180" y="82" type="curve" smooth="yes"/>
      <point x="98" y="82"/>
      <point x="91" y="112"/>
      <point x="99" y="157" type="curve" smooth="yes"/>
      <point x="102" y="173"/>
      <point x="106" y="198"/>
      <point x="110" y="216" type="curve" smooth="yes"/>
      <point x="116" y="250"/>
      <point x="140" y="261"/>
      <point x="168" y="261" type="curve" smooth="yes"/>
      <point x="211" y="261"/>
      <point x="251" y="236"/>
    </contour>
    <contour>
      <point x="203" y="394" type="curve" smooth="yes"/>
      <point x="260" y="394"/>
      <point x="314" y="441"/>
      <point x="324" y="498" type="curve" smooth="yes"/>
      <point x="334" y="555"/>
      <point x="297" y="602"/>
      <point x="240" y="602" type="curve" smooth="yes"/>
      <point x="183" y="602"/>
      <point x="127" y="555"/>
      <point x="117" y="498" type="curve" smooth="yes"/>
      <point x="107" y="441"/>
      <point x="146" y="394"/>
    </contour>
    <contour>
      <point x="249" y="498" type="curve" smooth="yes"/>
      <point x="246" y="482"/>
      <point x="231" y="469"/>
      <point x="216" y="469" type="curve" smooth="yes"/>
      <point x="200" y="469"/>
      <point x="190" y="482"/>
      <point x="193" y="498" type="curve" smooth="yes"/>
      <point x="196" y="514"/>
      <point x="210" y="526"/>
      <point x="226" y="526" type="curve" smooth="yes"/>
      <point x="241" y="526"/>
      <point x="252" y="514"/>
    </contour>
  </outline>
</glyph>
<glyph name="ae" format="1">
  <advance width="610"/>
  <unicode hex="00E6"/>
  <outline>
    <contour>
      <point x="347" y="136" type="curve" smooth="yes"/>
      <point x="351" y="158" type="line"/>
      <point x="579" y="170" type="line"/>
      <point x="605" y="312" type="line" smooth="yes"/>
      <point x="622" y="409"/>
      <point x="560" y="464"/>
      <point x="471" y="464" type="curve" smooth="yes"/>
      <point x="426" y="464"/>
      <point x="385" y="452"/>
      <point x="347" y="426" type="curve"/>
      <point x="312" y="458"/>
      <point x="258" y="462"/>
      <point x="212" y="462" type="curve"/>
      <point x="205" y="439"/>
      <point x="199" y="417"/>
      <point x="192" y="394" type="curve"/>
      <point x="262" y="392"/>
      <point x="285" y="371"/>
      <point x="273" y="304" type="curve"/>
      <point x="252" y="344"/>
      <point x="199" y="364"/>
      <point x="157" y="364" type="curve" smooth="yes"/>
      <point x="90" y="364"/>
      <point x="26" y="322"/>
      <point x="10" y="229" type="curve" smooth="yes"/>
      <point x="-6" y="141" type="line"/>
      <point x="-21" y="25"/>
      <point x="52" y="-10"/>
      <point x="155" y="-10" type="curve" smooth="yes"/>
      <point x="211" y="-10"/>
      <point x="260" y="-8"/>
      <point x="308" y="-2" type="curve"/>
      <point x="311" y="12" type="line"/>
      <point x="323" y="0"/>
      <point x="354" y="-11"/>
      <point x="385" y="-11" type="curve" smooth="yes"/>
      <point x="440" y="-11"/>
      <point x="486" y="6"/>
      <point x="532" y="33" type="curve"/>
      <point x="511" y="119" type="line"/>
      <point x="469" y="99"/>
      <point x="422" y="83"/>
      <point x="390" y="83" type="curve" smooth="yes"/>
      <point x="355" y="83"/>
      <point x="342" y="106"/>
    </contour>
    <contour>
      <point x="260" y="229" type="curve"/>
      <point x="234" y="85" type="line"/>
      <point x="234" y="85"/>
      <point x="194" y="82"/>
      <point x="179" y="82" type="curve" smooth="yes"/>
      <point x="97" y="82"/>
      <point x="90" y="112"/>
      <point x="98" y="157" type="curve" smooth="yes"/>
      <point x="109" y="216" type="line" smooth="yes"/>
      <point x="115" y="250"/>
      <point x="139" y="261"/>
      <point x="167" y="261" type="curve" smooth="yes"/>
      <point x="210" y="261"/>
      <point x="250" y="236"/>
    </contour>
    <contour>
      <point x="501" y="294" type="curve" smooth="yes"/>
      <point x="495" y="258" type="line"/>
      <point x="368" y="250" type="line"/>
      <point x="376" y="296" type="line" smooth="yes"/>
      <point x="384" y="345"/>
      <point x="408" y="366"/>
      <point x="453" y="368" type="curve" smooth="yes"/>
      <point x="503" y="368"/>
      <point x="508" y="334"/>
    </contour>
  </outline>
</glyph>
<glyph name="ecircumflex" format="1">
  <advance width="356"/>
  <unicode hex="00EA"/>
  <outline>
    <contour>
      <point x="96" y="135" type="curve" smooth="yes"/>
      <point x="100" y="157" type="line"/>
      <point x="328" y="169" type="line"/>
      <point x="353" y="311" type="line" smooth="yes"/>
      <point x="363" y="365"/>
      <point x="350" y="408"/>
      <point x="320" y="434" type="curve" smooth="yes"/>
      <point x="296" y="453"/>
      <point x="263" y="463"/>
      <point x="220" y="463" type="curve" smooth="yes"/>
      <point x="174" y="463"/>
      <point x="133" y="451"/>
      <point x="101" y="429" type="curve" smooth="yes"/>
      <point x="62" y="402"/>
      <point x="35" y="361"/>
      <point x="26" y="308" type="curve" smooth="yes"/>
      <point x="-7" y="122" type="line" smooth="yes"/>
      <point x="-16" y="73"/>
      <point x="-4" y="39"/>
      <point x="21" y="18" type="curve" smooth="yes"/>
      <point x="44" y="-3"/>
      <point x="79" y="-12"/>
      <point x="119" y="-12" type="curve" smooth="yes"/>
      <point x="173" y="-12"/>
      <point x="234" y="5"/>
      <point x="282" y="32" type="curve"/>
      <point x="260" y="118" type="line"/>
      <point x="218" y="98"/>
      <point x="171" y="82"/>
      <point x="138" y="82" type="curve" smooth="yes"/>
      <point x="122" y="82"/>
      <point x="109" y="86"/>
      <point x="101" y="96" type="curve"/>
      <point x="96" y="105"/>
      <point x="93" y="117"/>
    </contour>
    <contour>
      <point x="248" y="284" type="curve"/>
      <point x="246" y="277"/>
      <point x="244" y="263"/>
      <point x="243" y="257" type="curve"/>
      <point x="116" y="249" type="line"/>
      <point x="118" y="258"/>
      <point x="121" y="276"/>
      <point x="123" y="285" type="curve" smooth="yes"/>
      <point x="128" y="314"/>
      <point x="132" y="334"/>
      <point x="151" y="350" type="curve"/>
      <point x="163" y="359"/>
      <point x="180" y="366"/>
      <point x="202" y="367" type="curve" smooth="yes"/>
      <point x="221" y="367"/>
      <point x="233" y="361"/>
      <point x="241" y="353" type="curve" smooth="yes"/>
      <point x="256" y="337"/>
      <point x="253" y="316"/>
    </contour>
    <contour>
      <point x="238" y="574" type="line"/>
      <point x="293" y="499" type="line"/>
      <point x="350" y="547" type="line"/>
      <point x="253" y="662" type="line"/>
      <point x="114" y="545" type="line"/>
      <point x="152" y="499" type="line"/>
    </contour>
  </outline>
</glyph>
<glyph name="igrave" format="1">
  <advance width="160"/>
  <unicode hex="00EC"/>
  <outline>
    <contour>
      <point x="169" y="454" type="line"/>
      <point x="69" y="454" type="line"/>
      <point x="-11" y="0" type="line"/>
      <point x="89" y="0" type="line"/>
    </contour>
    <contour>
      <point x="64" y="564" type="curve" smooth="yes"/>
      <point x="106" y="495" type="line"/>
      <point x="146" y="495" type="line"/>
      <point x="136" y="601" type="line" smooth="yes"/>
      <point x="133" y="626"/>
      <point x="107" y="641"/>
      <point x="82" y="628" type="curve" smooth="yes"/>
      <point x="53" y="614"/>
      <point x="53" y="582"/>
    </contour>
  </outline>
</glyph>
<glyph name="iacute" format="1">
  <advance width="197"/>
  <unicode hex="00ED"/>
  <outline>
    <contour>
      <point x="163" y="454" type="line"/>
      <point x="63" y="454" type="line"/>
      <point x="-17" y="0" type="line"/>
      <point x="83" y="0" type="line"/>
    </contour>
    <contour>
      <point x="142" y="601" type="curve" smooth="yes"/>
      <point x="97" y="495" type="line"/>
      <point x="137" y="495" type="line"/>
      <point x="202" y="564" type="line" smooth="yes"/>
      <point x="222" y="584"/>
      <point x="228" y="615"/>
      <point x="206" y="628" type="curve"/>
      <point x="186" y="642"/>
      <point x="153" y="624"/>
    </contour>
  </outline>
</glyph>
<glyph name="icircumflex" format="1">
  <advance width="230"/>
  <unicode hex="00EE"/>
  <outline>
    <contour>
      <point x="176" y="454" type="line"/>
      <point x="76" y="454" type="line"/>
      <point x="-4" y="0" type="line"/>
      <point x="96" y="0" type="line"/>
    </contour>
    <contour>
      <point x="148" y="570" type="line"/>
      <point x="203" y="496" type="line"/>
      <point x="259" y="544" type="line"/>
      <point x="164" y="658" type="line"/>
      <point x="23" y="543" type="line"/>
      <point x="62" y="495" type="line"/>
    </contour>
  </outline>
</glyph>
<glyph name="idieresis" format="1">
  <advance width="244"/>
  <unicode hex="00EF"/>
  <outline>
    <contour>
      <point x="179" y="454" type="line"/>
      <point x="79" y="454" type="line"/>
      <point x="-1" y="0" type="line"/>
      <point x="99" y="0" type="line"/>
    </contour>
    <contour>
      <point x="271" y="549" type="curve" smooth="yes"/>
      <point x="276" y="578"/>
      <point x="256" y="603"/>
      <point x="226" y="603" type="curve" smooth="yes"/>
      <point x="196" y="603"/>
      <point x="168" y="578"/>
      <point x="163" y="549" type="curve" smooth="yes"/>
      <point x="158" y="519"/>
      <point x="177" y="494"/>
      <point x="207" y="494" type="curve" smooth="yes"/>
      <point x="237" y="494"/>
      <point x="266" y="519"/>
    </contour>
    <contour>
      <point x="127" y="549" type="curve" smooth="yes"/>
      <point x="132" y="578"/>
      <point x="113" y="603"/>
      <point x="83" y="603" type="curve" smooth="yes"/>
      <point x="53" y="603"/>
      <point x="23" y="578"/>
      <point x="18" y="549" type="curve" smooth="yes"/>
      <point x="13" y="519"/>
      <point x="34" y="494"/>
      <point x="64" y="494" type="curve" smooth="yes"/>
      <point x="94" y="494"/>
      <point x="122" y="519"/>
    </contour>
  </outline>
</glyph>
<glyph name="ntilde" format="1">
  <advance width="384"/>
  <unicode hex="00F1"/>
  <outline>
    <contour>
      <point x="275" y="312" type="curve" smooth="yes"/>
      <point x="220" y="0" type="line"/>
      <point x="319" y="0" type="line"/>
      <point x="374" y="314" type="line" smooth="yes"/>
      <point x="394" y="430"/>
      <point x="325" y="463"/>
      <point x="253" y="463" type="curve" smooth="yes"/>
      <point x="216" y="463"/>
      <point x="176" y="444"/>
      <point x="158" y="433" type="curve"/>
      <point x="162" y="454" type="line"/>
      <point x="63" y="454" type="line"/>
      <point x="-17" y="0" type="line"/>
      <point x="82" y="0" type="line"/>
      <point x="143" y="351" type="line"/>
      <point x="176" y="366"/>
      <point x="203" y="373"/>
      <point x="224" y="373" type="curve"/>
      <point x="263" y="371"/>
      <point x="280" y="345"/>
    </contour>
    <contour>
      <point x="362" y="526" type="curve"/>
      <point x="348" y="581" type="line"/>
      <point x="334" y="571"/>
      <point x="317" y="564"/>
      <point x="303" y="564" type="curve" smooth="yes"/>
      <point x="269" y="564"/>
      <point x="244" y="581"/>
      <point x="214" y="581" type="curve" smooth="yes"/>
      <point x="180" y="581"/>
      <point x="154" y="568"/>
      <point x="127" y="550" type="curve"/>
      <point x="144" y="497" type="line"/>
      <point x="153" y="503"/>
      <point x="167" y="514"/>
      <point x="189" y="514" type="curve" smooth="yes"/>
      <point x="223" y="514"/>
      <point x="249" y="499"/>
      <point x="281" y="499" type="curve" smooth="yes"/>
      <point x="311" y="499"/>
      <point x="340" y="511"/>
    </contour>
  </outline>
</glyph>
<glyph name="ocircumflex" format="1">
  <advance width="366"/>
  <unicode hex="00F4"/>
  <outline>
    <contour>
      <point x="335" y="167" type="curve" smooth="yes"/>
      <point x="356" y="287" type="line" smooth="yes"/>
      <point x="376" y="397"/>
      <point x="327" y="464"/>
      <point x="222" y="464" type="curve" smooth="yes"/>
      <point x="112" y="464"/>
      <point x="41" y="403"/>
      <point x="20" y="287" type="curve" smooth="yes"/>
      <point x="-1" y="167" type="line" smooth="yes"/>
      <point x="-17" y="75"/>
      <point x="19" y="-9"/>
      <point x="139" y="-9" type="curve" smooth="yes"/>
      <point x="252" y="-9"/>
      <point x="317" y="65"/>
    </contour>
    <contour>
      <point x="256" y="293" type="curve" smooth="yes"/>
      <point x="233" y="160" type="line" smooth="yes"/>
      <point x="225" y="119"/>
      <point x="200" y="89"/>
      <point x="155" y="89" type="curve" smooth="yes"/>
      <point x="107" y="89"/>
      <point x="93" y="123"/>
      <point x="100" y="160" type="curve" smooth="yes"/>
      <point x="123" y="293" type="line" smooth="yes"/>
      <point x="131" y="339"/>
      <point x="160" y="364"/>
      <point x="204" y="364" type="curve" smooth="yes"/>
      <point x="247" y="364"/>
      <point x="264" y="336"/>
    </contour>
    <contour>
      <point x="240" y="569" type="line"/>
      <point x="295" y="495" type="line"/>
      <point x="351" y="543" type="line"/>
      <point x="255" y="657" type="line"/>
      <point x="115" y="542" type="line"/>
      <point x="154" y="494" type="line"/>
    </contour>
  </outline>
</glyph>
<glyph name="otilde" format="1">
  <advance width="366"/>
  <unicode hex="00F5"/>
  <outline>
    <contour>
      <point x="335" y="167" type="curve" smooth="yes"/>
      <point x="356" y="287" type="line" smooth="yes"/>
      <point x="376" y="397"/>
      <point x="327" y="464"/>
      <point x="222" y="464" type="curve" smooth="yes"/>
      <point x="112" y="464"/>
      <point x="41" y="403"/>
      <point x="20" y="287" type="curve" smooth="yes"/>
      <point x="-1" y="167" type="line" smooth="yes"/>
      <point x="-17" y="75"/>
      <point x="19" y="-9"/>
      <point x="139" y="-9" type="curve" smooth="yes"/>
      <point x="252" y="-9"/>
      <point x="317" y="65"/>
    </contour>
    <contour>
      <point x="256" y="293" type="curve" smooth="yes"/>
      <point x="233" y="160" type="line" smooth="yes"/>
      <point x="225" y="119"/>
      <point x="200" y="89"/>
      <point x="155" y="89" type="curve" smooth="yes"/>
      <point x="107" y="89"/>
      <point x="93" y="123"/>
      <point x="100" y="160" type="curve" smooth="yes"/>
      <point x="123" y="293" type="line" smooth="yes"/>
      <point x="131" y="339"/>
      <point x="160" y="364"/>
      <point x="204" y="364" type="curve" smooth="yes"/>
      <point x="247" y="364"/>
      <point x="264" y="336"/>
    </contour>
    <contour>
      <point x="349" y="526" type="curve"/>
      <point x="336" y="581" type="line"/>
      <point x="322" y="571"/>
      <point x="304" y="564"/>
      <point x="291" y="564" type="curve" smooth="yes"/>
      <point x="255" y="564"/>
      <point x="229" y="582"/>
      <point x="198" y="582" type="curve"/>
      <point x="151" y="579"/>
      <point x="129" y="560"/>
      <point x="116" y="551" type="curve"/>
      <point x="132" y="497" type="line"/>
      <point x="141" y="504"/>
      <point x="154" y="514"/>
      <point x="176" y="514" type="curve" smooth="yes"/>
      <point x="211" y="514"/>
      <point x="237" y="499"/>
      <point x="268" y="499" type="curve" smooth="yes"/>
      <point x="299" y="499"/>
      <point x="327" y="512"/>
    </contour>
  </outline>
</glyph>
<glyph name="odieresis" format="1">
  <advance width="366"/>
  <unicode hex="00F6"/>
  <outline>
    <contour>
      <point x="335" y="167" type="curve" smooth="yes"/>
      <point x="356" y="287" type="line" smooth="yes"/>
      <point x="376" y="397"/>
      <point x="327" y="464"/>
      <point x="222" y="464" type="curve" smooth="yes"/>
      <point x="112" y="464"/>
      <point x="41" y="403"/>
      <point x="20" y="287" type="curve" smooth="yes"/>
      <point x="-1" y="167" type="line" smooth="yes"/>
      <point x="-17" y="75"/>
      <point x="19" y="-9"/>
      <point x="139" y="-9" type="curve" smooth="yes"/>
      <point x="252" y="-9"/>
      <point x="317" y="65"/>
    </contour>
    <contour>
      <point x="256" y="293" type="curve" smooth="yes"/>
      <point x="233" y="160" type="line" smooth="yes"/>
      <point x="225" y="119"/>
      <point x="200" y="89"/>
      <point x="155" y="89" type="curve" smooth="yes"/>
      <point x="107" y="89"/>
      <point x="93" y="123"/>
      <point x="100" y="160" type="curve" smooth="yes"/>
      <point x="123" y="293" type="line" smooth="yes"/>
      <point x="131" y="339"/>
      <point x="160" y="364"/>
      <point x="204" y="364" type="curve" smooth="yes"/>
      <point x="247" y="364"/>
      <point x="264" y="336"/>
    </contour>
    <contour>
      <point x="358" y="552" type="curve" smooth="yes"/>
      <point x="363" y="582"/>
      <point x="342" y="606"/>
      <point x="312" y="606" type="curve" smooth="yes"/>
      <point x="282" y="606"/>
      <point x="254" y="582"/>
      <point x="249" y="552" type="curve" smooth="yes"/>
      <point x="244" y="522"/>
      <point x="263" y="497"/>
      <point x="293" y="497" type="curve" smooth="yes"/>
      <point x="323" y="497"/>
      <point x="353" y="522"/>
    </contour>
    <contour>
      <point x="213" y="552" type="curve" smooth="yes"/>
      <point x="218" y="582"/>
      <point x="199" y="606"/>
      <point x="169" y="606" type="curve" smooth="yes"/>
      <point x="139" y="606"/>
      <point x="110" y="582"/>
      <point x="105" y="552" type="curve" smooth="yes"/>
      <point x="100" y="522"/>
      <point x="120" y="497"/>
      <point x="150" y="497" type="curve" smooth="yes"/>
      <point x="180" y="497"/>
      <point x="208" y="522"/>
    </contour>
  </outline>
</glyph>
<glyph name="divide" format="1">
  <advance width="327"/>
  <unicode hex="00F7"/>
  <outline>
    <contour>
      <point x="317" y="387" type="line"/>
      <point x="26" y="387" type="line"/>
      <point x="12" y="309" type="line"/>
      <point x="303" y="309" type="line"/>
    </contour>
    <contour>
      <point x="196" y="519" type="curve" smooth="yes"/>
      <point x="166" y="519"/>
      <point x="137" y="494"/>
      <point x="131" y="465" type="curve" smooth="yes"/>
      <point x="126" y="435"/>
      <point x="147" y="411"/>
      <point x="177" y="411" type="curve" smooth="yes"/>
      <point x="206" y="411"/>
      <point x="235" y="435"/>
      <point x="240" y="465" type="curve" smooth="yes"/>
      <point x="246" y="494"/>
      <point x="225" y="519"/>
    </contour>
    <contour>
      <point x="155" y="285" type="curve" smooth="yes"/>
      <point x="125" y="285"/>
      <point x="96" y="262"/>
      <point x="90" y="232" type="curve" smooth="yes"/>
      <point x="85" y="202"/>
      <point x="106" y="177"/>
      <point x="136" y="177" type="curve" smooth="yes"/>
      <point x="165" y="177"/>
      <point x="194" y="202"/>
      <point x="199" y="232" type="curve" smooth="yes"/>
      <point x="205" y="262"/>
      <point x="184" y="285"/>
    </contour>
  </outline>
</glyph>
<glyph name="oslash" format="1">
  <advance width="410"/>
  <unicode hex="00F8"/>
  <outline>
    <contour>
      <point x="349" y="167" type="curve" smooth="yes"/>
      <point x="370" y="287" type="line" smooth="yes"/>
      <point x="379" y="337"/>
      <point x="374" y="379"/>
      <point x="356" y="409" type="curve"/>
      <point x="431" y="533" type="line"/>
      <point x="333" y="533" type="line"/>
      <point x="288" y="458" type="line"/>
      <point x="272" y="463"/>
      <point x="255" y="464"/>
      <point x="236" y="464" type="curve" smooth="yes"/>
      <point x="126" y="464"/>
      <point x="55" y="403"/>
      <point x="34" y="287" type="curve" smooth="yes"/>
      <point x="13" y="167" type="line" smooth="yes"/>
      <point x="4" y="119"/>
      <point x="10" y="73"/>
      <point x="36" y="40" type="curve"/>
      <point x="-26" y="-61" type="line"/>
      <point x="69" y="-61" type="line"/>
      <point x="104" y="-4" type="line"/>
      <point x="118" y="-7"/>
      <point x="135" y="-9"/>
      <point x="153" y="-9" type="curve" smooth="yes"/>
      <point x="266" y="-9"/>
      <point x="331" y="65"/>
    </contour>
    <contour>
      <point x="120" y="195" type="curve"/>
      <point x="137" y="293" type="line" smooth="yes"/>
      <point x="145" y="339"/>
      <point x="174" y="364"/>
      <point x="218" y="364" type="curve" smooth="yes"/>
      <point x="223" y="364"/>
      <point x="227" y="364"/>
      <point x="232" y="364" type="curve"/>
      <point x="116" y="173" type="line"/>
      <point x="117" y="180"/>
      <point x="118" y="187"/>
    </contour>
    <contour>
      <point x="260" y="236" type="curve"/>
      <point x="247" y="160" type="line" smooth="yes"/>
      <point x="239" y="119"/>
      <point x="214" y="89"/>
      <point x="169" y="89" type="curve" smooth="yes"/>
      <point x="166" y="89"/>
      <point x="163" y="89"/>
      <point x="161" y="89" type="curve"/>
      <point x="264" y="257" type="line"/>
      <point x="263" y="251"/>
      <point x="262" y="244"/>
    </contour>
  </outline>
</glyph>
<glyph name="ugrave" format="1">
  <advance width="380"/>
  <unicode hex="00F9"/>
  <outline>
    <contour>
      <point x="215" y="24" type="curve"/>
      <point x="211" y="0" type="line"/>
      <point x="311" y="0" type="line"/>
      <point x="391" y="455" type="line"/>
      <point x="291" y="455" type="line"/>
      <point x="239" y="159" type="line" smooth="yes"/>
      <point x="231" y="117"/>
      <point x="193" y="85"/>
      <point x="152" y="85" type="curve" smooth="yes"/>
      <point x="116" y="85"/>
      <point x="95" y="113"/>
      <point x="101" y="145" type="curve" smooth="yes"/>
      <point x="156" y="455" type="line"/>
      <point x="56" y="455" type="line"/>
      <point x="1" y="143" type="line" smooth="yes"/>
      <point x="-20" y="26"/>
      <point x="48" y="-6"/>
      <point x="120" y="-6" type="curve" smooth="yes"/>
      <point x="157" y="-6"/>
      <point x="201" y="11"/>
    </contour>
    <contour>
      <point x="171" y="564" type="curve"/>
      <point x="212" y="494" type="line"/>
      <point x="252" y="494" type="line"/>
      <point x="243" y="600" type="line"/>
      <point x="238" y="624"/>
      <point x="215" y="642"/>
      <point x="188" y="628" type="curve" smooth="yes"/>
      <point x="160" y="614"/>
      <point x="158" y="581"/>
    </contour>
  </outline>
</glyph>
<glyph name="ucircumflex" format="1">
  <advance width="381"/>
  <unicode hex="00FB"/>
  <outline>
    <contour>
      <point x="216" y="24" type="curve"/>
      <point x="212" y="0" type="line"/>
      <point x="312" y="0" type="line"/>
      <point x="392" y="455" type="line"/>
      <point x="292" y="455" type="line"/>
      <point x="240" y="159" type="line" smooth="yes"/>
      <point x="232" y="117"/>
      <point x="194" y="85"/>
      <point x="153" y="85" type="curve" smooth="yes"/>
      <point x="117" y="85"/>
      <point x="96" y="113"/>
      <point x="102" y="145" type="curve" smooth="yes"/>
      <point x="157" y="455" type="line"/>
      <point x="57" y="455" type="line"/>
      <point x="2" y="143" type="line" smooth="yes"/>
      <point x="-19" y="26"/>
      <point x="49" y="-6"/>
      <point x="121" y="-6" type="curve" smooth="yes"/>
      <point x="158" y="-6"/>
      <point x="202" y="11"/>
    </contour>
    <contour>
      <point x="247" y="569" type="line"/>
      <point x="302" y="495" type="line"/>
      <point x="358" y="543" type="line"/>
      <point x="262" y="657" type="line"/>
      <point x="122" y="542" type="line"/>
      <point x="161" y="494" type="line"/>
    </contour>
  </outline>
</glyph>
<glyph name="udieresis" format="1">
  <advance width="383"/>
  <unicode hex="00FC"/>
  <outline>
    <contour>
      <point x="216" y="24" type="curve"/>
      <point x="212" y="0" type="line"/>
      <point x="312" y="0" type="line"/>
      <point x="392" y="455" type="line"/>
      <point x="292" y="455" type="line"/>
      <point x="240" y="159" type="line" smooth="yes"/>
      <point x="232" y="117"/>
      <point x="194" y="85"/>
      <point x="153" y="85" type="curve" smooth="yes"/>
      <point x="117" y="85"/>
      <point x="96" y="113"/>
      <point x="102" y="145" type="curve" smooth="yes"/>
      <point x="157" y="455" type="line"/>
      <point x="57" y="455" type="line"/>
      <point x="2" y="143" type="line" smooth="yes"/>
      <point x="-19" y="26"/>
      <point x="49" y="-6"/>
      <point x="121" y="-6" type="curve" smooth="yes"/>
      <point x="158" y="-6"/>
      <point x="202" y="11"/>
    </contour>
    <contour>
      <point x="323" y="603" type="curve" smooth="yes"/>
      <point x="293" y="603"/>
      <point x="264" y="578"/>
      <point x="259" y="548" type="curve" smooth="yes"/>
      <point x="254" y="518"/>
      <point x="274" y="494"/>
      <point x="304" y="494" type="curve" smooth="yes"/>
      <point x="334" y="494"/>
      <point x="363" y="518"/>
      <point x="368" y="548" type="curve" smooth="yes"/>
      <point x="373" y="578"/>
      <point x="353" y="603"/>
    </contour>
    <contour>
      <point x="179" y="603" type="curve" smooth="yes"/>
      <point x="149" y="603"/>
      <point x="120" y="578"/>
      <point x="115" y="548" type="curve" smooth="yes"/>
      <point x="110" y="518"/>
      <point x="130" y="494"/>
      <point x="160" y="494" type="curve" smooth="yes"/>
      <point x="190" y="494"/>
      <point x="219" y="518"/>
      <point x="224" y="548" type="curve" smooth="yes"/>
      <point x="229" y="578"/>
      <point x="209" y="603"/>
    </contour>
  </outline>
</glyph>
<glyph name="yacute" format="1">
  <advance width="412"/>
  <unicode hex="00FD"/>
  <outline>
    <contour>
      <point x="424" y="394" type="curve"/>
      <point x="405" y="464" type="line"/>
      <point x="323" y="464"/>
      <point x="283" y="407"/>
      <point x="274" y="356" type="curve" smooth="yes"/>
      <point x="240" y="160" type="line" smooth="yes"/>
      <point x="232" y="118"/>
      <point x="194" y="85"/>
      <point x="153" y="85" type="curve" smooth="yes"/>
      <point x="116" y="85"/>
      <point x="95" y="112"/>
      <point x="101" y="146" type="curve" smooth="yes"/>
      <point x="156" y="455" type="line"/>
      <point x="56" y="455" type="line"/>
      <point x="1" y="144" type="line" smooth="yes"/>
      <point x="-20" y="27"/>
      <point x="48" y="-5"/>
      <point x="120" y="-5" type="curve" smooth="yes"/>
      <point x="158" y="-5"/>
      <point x="202" y="12"/>
      <point x="216" y="25" type="curve"/>
      <point x="204" y="-44" type="line" smooth="yes"/>
      <point x="200" y="-65"/>
      <point x="191" y="-81"/>
      <point x="177" y="-92" type="curve" smooth="yes"/>
      <point x="162" y="-104"/>
      <point x="144" y="-113"/>
      <point x="128" y="-113" type="curve"/>
      <point x="140" y="-194" type="line"/>
      <point x="170" y="-194"/>
      <point x="212" y="-181"/>
      <point x="239" y="-163" type="curve" smooth="yes"/>
      <point x="272" y="-143"/>
      <point x="293" y="-105"/>
      <point x="302" y="-54" type="curve" smooth="yes"/>
      <point x="370" y="329" type="line" smooth="yes"/>
      <point x="375" y="359"/>
      <point x="387" y="386"/>
    </contour>
    <contour>
      <point x="270" y="599" type="curve" smooth="yes"/>
      <point x="224" y="494" type="line"/>
      <point x="264" y="494" type="line"/>
      <point x="329" y="562" type="line" smooth="yes"/>
      <point x="349" y="582"/>
      <point x="355" y="613"/>
      <point x="334" y="626" type="curve" smooth="yes"/>
      <point x="312" y="640"/>
      <point x="280" y="623"/>
    </contour>
  </outline>
</glyph>
<glyph name="thorn" format="1">
  <advance width="383"/>
  <unicode hex="00FE"/>
  <outline>
    <contour>
      <point x="162" y="446" type="curve"/>
      <point x="196" y="636" type="line"/>
      <point x="96" y="636" type="line"/>
      <point x="-16" y="0" type="line"/>
      <point x="84" y="0" type="line"/>
      <point x="106" y="126" type="line"/>
      <point x="121" y="113"/>
      <point x="147" y="105"/>
      <point x="177" y="105" type="curve" smooth="yes"/>
      <point x="278" y="105"/>
      <point x="358" y="173"/>
      <point x="378" y="286" type="curve" smooth="yes"/>
      <point x="396" y="391"/>
      <point x="349" y="462"/>
      <point x="236" y="462" type="curve" smooth="yes"/>
      <point x="212" y="462"/>
      <point x="185" y="456"/>
    </contour>
    <contour>
      <point x="223" y="367" type="curve" smooth="yes"/>
      <point x="271" y="367"/>
      <point x="286" y="327"/>
      <point x="279" y="287" type="curve" smooth="yes"/>
      <point x="268" y="225"/>
      <point x="230" y="200"/>
      <point x="194" y="200" type="curve" smooth="yes"/>
      <point x="153" y="200"/>
      <point x="122" y="226"/>
      <point x="133" y="289" type="curve" smooth="yes"/>
      <point x="142" y="335"/>
      <point x="185" y="367"/>
    </contour>
  </outline>
</glyph>
<glyph name="ydieresis" format="1">
  <advance width="413"/>
  <unicode hex="00FF"/>
  <outline>
    <contour>
      <point x="425" y="394" type="curve"/>
      <point x="406" y="464" type="line"/>
      <point x="324" y="464"/>
      <point x="284" y="407"/>
      <point x="275" y="356" type="curve" smooth="yes"/>
      <point x="241" y="160" type="line" smooth="yes"/>
      <point x="233" y="117"/>
      <point x="191" y="85"/>
      <point x="152" y="85" type="curve" smooth="yes"/>
      <point x="114" y="86"/>
      <point x="96" y="113"/>
      <point x="102" y="146" type="curve" smooth="yes"/>
      <point x="157" y="455" type="line"/>
      <point x="57" y="455" type="line"/>
      <point x="2" y="144" type="line" smooth="yes"/>
      <point x="-19" y="27"/>
      <point x="50" y="-5"/>
      <point x="122" y="-5" type="curve" smooth="yes"/>
      <point x="159" y="-5"/>
      <point x="204" y="12"/>
      <point x="217" y="25" type="curve"/>
      <point x="205" y="-44" type="line" smooth="yes"/>
      <point x="201" y="-65"/>
      <point x="192" y="-81"/>
      <point x="178" y="-92" type="curve" smooth="yes"/>
      <point x="163" y="-104"/>
      <point x="145" y="-113"/>
      <point x="129" y="-113" type="curve"/>
      <point x="141" y="-194" type="line"/>
      <point x="171" y="-194"/>
      <point x="213" y="-181"/>
      <point x="241" y="-163" type="curve" smooth="yes"/>
      <point x="273" y="-143"/>
      <point x="294" y="-105"/>
      <point x="303" y="-54" type="curve" smooth="yes"/>
      <point x="371" y="329" type="line" smooth="yes"/>
      <point x="376" y="359"/>
      <point x="389" y="386"/>
    </contour>
    <contour>
      <point x="335" y="603" type="curve" smooth="yes"/>
      <point x="305" y="603"/>
      <point x="275" y="578"/>
      <point x="270" y="548" type="curve" smooth="yes"/>
      <point x="265" y="518"/>
      <point x="286" y="494"/>
      <point x="316" y="494" type="curve" smooth="yes"/>
      <point x="346" y="494"/>
      <point x="374" y="518"/>
      <point x="379" y="548" type="curve" smooth="yes"/>
      <point x="384" y="578"/>
      <point x="365" y="603"/>
    </contour>
    <contour>
      <point x="191" y="603" type="curve" smooth="yes"/>
      <point x="161" y="603"/>
      <point x="132" y="578"/>
      <point x="127" y="548" type="curve" smooth="yes"/>
      <point x="122" y="518"/>
      <point x="142" y="494"/>
      <point x="172" y="494" type="curve" smooth="yes"/>
      <point x="202" y="494"/>
      <point x="230" y="518"/>
      <point x="235" y="548" type="curve" smooth="yes"/>
      <point x="240" y="578"/>
      <point x="221" y="603"/>
    </contour>
  </outline>
</glyph>
<glyph name="Abreve" format="1">
  <advance width="445"/>
  <unicode hex="0102"/>
  <outline>
    <contour>
      <point x="239" y="635" type="line"/>
      <point x="-26" y="0" type="line"/>
      <point x="87" y="0" type="line"/>
      <point x="152" y="166" type="line"/>
      <point x="299" y="166" type="line"/>
      <point x="306" y="0" type="line"/>
      <point x="425" y="0" type="line"/>
      <point x="380" y="635" type="line"/>
    </contour>
    <contour>
      <point x="295" y="273" type="line"/>
      <point x="196" y="273" type="line"/>
      <point x="279" y="468" type="line"/>
    </contour>
    <contour>
      <point x="303" y="778" type="curve" smooth="yes"/>
      <point x="304" y="783" type="line"/>
      <point x="231" y="783" type="line"/>
      <point x="230" y="778" type="line" smooth="yes"/>
      <point x="220" y="721"/>
      <point x="258" y="674"/>
      <point x="314" y="674" type="curve" smooth="yes"/>
      <point x="371" y="674"/>
      <point x="427" y="721"/>
      <point x="437" y="778" type="curve" smooth="yes"/>
      <point x="438" y="783" type="line"/>
      <point x="365" y="783" type="line"/>
      <point x="364" y="778" type="line" smooth="yes"/>
      <point x="361" y="761"/>
      <point x="344" y="747"/>
      <point x="328" y="747" type="curve" smooth="yes"/>
      <point x="311" y="747"/>
      <point x="300" y="761"/>
    </contour>
  </outline>
</glyph>
<glyph name="abreve" format="1">
  <advance width="379"/>
  <unicode hex="0103"/>
  <outline>
    <contour>
      <point x="274" y="304" type="curve"/>
      <point x="253" y="344"/>
      <point x="200" y="364"/>
      <point x="158" y="364" type="curve" smooth="yes"/>
      <point x="91" y="364"/>
      <point x="27" y="322"/>
      <point x="11" y="229" type="curve"/>
      <point x="11" y="229"/>
      <point x="-5" y="141"/>
      <point x="-5" y="141" type="curve"/>
      <point x="-20" y="25"/>
      <point x="53" y="-10"/>
      <point x="155" y="-10" type="curve" smooth="yes"/>
      <point x="216" y="-10"/>
      <point x="269" y="-7"/>
      <point x="321" y="0" type="curve"/>
      <point x="321" y="0"/>
      <point x="352" y="176"/>
      <point x="370" y="278" type="curve" smooth="yes"/>
      <point x="384" y="362"/>
      <point x="370" y="402"/>
      <point x="352" y="422" type="curve" smooth="yes"/>
      <point x="318" y="458"/>
      <point x="261" y="462"/>
      <point x="213" y="462" type="curve"/>
      <point x="193" y="394" type="line"/>
      <point x="231" y="394"/>
      <point x="255" y="384"/>
      <point x="270" y="369" type="curve"/>
      <point x="279" y="359"/>
      <point x="281" y="343"/>
    </contour>
    <contour>
      <point x="261" y="229" type="curve"/>
      <point x="261" y="229"/>
      <point x="235" y="85"/>
      <point x="235" y="85" type="curve"/>
      <point x="235" y="85"/>
      <point x="195" y="82"/>
      <point x="180" y="82" type="curve" smooth="yes"/>
      <point x="98" y="82"/>
      <point x="91" y="112"/>
      <point x="99" y="157" type="curve" smooth="yes"/>
      <point x="102" y="173"/>
      <point x="106" y="198"/>
      <point x="110" y="216" type="curve" smooth="yes"/>
      <point x="116" y="250"/>
      <point x="140" y="261"/>
      <point x="168" y="261" type="curve" smooth="yes"/>
      <point x="211" y="261"/>
      <point x="251" y="236"/>
    </contour>
    <contour>
      <point x="355" y="602" type="curve" smooth="yes"/>
      <point x="356" y="608" type="line"/>
      <point x="283" y="608" type="line"/>
      <point x="282" y="602" type="line"/>
      <point x="278" y="584"/>
      <point x="263" y="571"/>
      <point x="246" y="571" type="curve" smooth="yes"/>
      <point x="229" y="571"/>
      <point x="218" y="584"/>
      <point x="222" y="602" type="curve"/>
      <point x="223" y="608" type="line"/>
      <point x="150" y="608" type="line"/>
      <point x="149" y="602" type="line" smooth="yes"/>
      <point x="138" y="544"/>
      <point x="176" y="499"/>
      <point x="233" y="499" type="curve" smooth="yes"/>
      <point x="290" y="499"/>
      <point x="344" y="544"/>
    </contour>
  </outline>
</glyph>
<glyph name="Aogonek" format="1">
  <advance width="454"/>
  <unicode hex="0104"/>
  <outline>
    <contour>
      <point x="239" y="635" type="line"/>
      <point x="-26" y="0" type="line"/>
      <point x="87" y="0" type="line"/>
      <point x="152" y="166" type="line"/>
      <point x="298" y="166" type="line"/>
      <point x="306" y="0" type="line"/>
      <point x="425" y="0" type="line"/>
      <point x="380" y="635" type="line"/>
    </contour>
    <contour>
      <point x="295" y="273" type="line"/>
      <point x="196" y="273" type="line"/>
      <point x="279" y="468" type="line"/>
    </contour>
    <contour>
      <point x="322" y="-115" type="curve"/>
      <point x="416" y="-2" type="line"/>
      <point x="418" y="10" type="line"/>
      <point x="336" y="2" type="line"/>
      <point x="335" y="-2" type="line"/>
      <point x="271" y="-83" type="line" smooth="yes"/>
      <point x="209" y="-166"/>
      <point x="266" y="-230"/>
      <point x="350" y="-208" type="curve" smooth="yes"/>
      <point x="370" y="-203"/>
      <point x="448" y="-177"/>
      <point x="449" y="-176" type="curve"/>
      <point x="439" y="-112" type="line"/>
      <point x="439" y="-112"/>
      <point x="366" y="-135"/>
      <point x="339" y="-144" type="curve" smooth="yes"/>
      <point x="314" y="-153"/>
      <point x="309" y="-134"/>
    </contour>
  </outline>
</glyph>
